STARTFONT 2.1
COMMENT
COMMENT Converted from OpenType font "Vollda-Bold.otf" by "otf2bdf 3.0".
COMMENT
FONT -FreeType-Vollda-Bold-R-Normal--11-80-100-100-P-66-ISO10646-1
SIZE 8 100 100
FONTBOUNDINGBOX 35 15 -2 -3
STARTPROPERTIES 19
FOUNDRY "FreeType"
FAMILY_NAME "Vollda"
WEIGHT_NAME "Bold"
SLANT "R"
SETWIDTH_NAME "Normal"
ADD_STYLE_NAME ""
PIXEL_SIZE 11
POINT_SIZE 80
RESOLUTION_X 100
RESOLUTION_Y 100
SPACING "P"
AVERAGE_WIDTH 66
CHARSET_REGISTRY "ISO10646"
CHARSET_ENCODING "1"
FONT_ASCENT 10
FONT_DESCENT 4
COPYRIGHT "Copyright 2023 Vollda (https://github.com/alexburba/vollda)"
_OTF_FONTFILE "Vollda-Bold.otf"
_OTF_PSNAME "Vollda-Bold"
ENDPROPERTIES
CHARS 1220
STARTCHAR 0000
ENCODING 0
SWIDTH 0 0
DWIDTH 0 0
BBX 0 0 0 0
BITMAP
ENDCHAR
STARTCHAR 000D
ENCODING 13
SWIDTH 180 0
DWIDTH 2 0
BBX 0 0 0 0
BITMAP
ENDCHAR
STARTCHAR 0020
ENCODING 32
SWIDTH 180 0
DWIDTH 2 0
BBX 0 0 0 0
BITMAP
ENDCHAR
STARTCHAR 0021
ENCODING 33
SWIDTH 360 0
DWIDTH 4 0
BBX 2 8 1 0
BITMAP
C0
40
40
40
40
00
40
C0
ENDCHAR
STARTCHAR 0022
ENCODING 34
SWIDTH 360 0
DWIDTH 4 0
BBX 3 3 1 5
BITMAP
E0
C0
C0
ENDCHAR
STARTCHAR 0023
ENCODING 35
SWIDTH 540 0
DWIDTH 6 0
BBX 6 8 0 0
BITMAP
04
24
7C
28
28
FC
48
50
ENDCHAR
STARTCHAR 0024
ENCODING 36
SWIDTH 540 0
DWIDTH 6 0
BBX 5 8 1 -1
BITMAP
60
B0
B0
E0
70
58
D8
F0
ENDCHAR
STARTCHAR 0025
ENCODING 37
SWIDTH 810 0
DWIDTH 9 0
BBX 8 8 1 0
BITMAP
02
E2
A4
E8
10
2E
49
4E
ENDCHAR
STARTCHAR 0026
ENCODING 38
SWIDTH 720 0
DWIDTH 8 0
BBX 7 8 1 0
BITMAP
78
48
40
66
B4
9C
8C
F6
ENDCHAR
STARTCHAR 0027
ENCODING 39
SWIDTH 180 0
DWIDTH 2 0
BBX 1 3 1 5
BITMAP
80
80
80
ENDCHAR
STARTCHAR 0028
ENCODING 40
SWIDTH 270 0
DWIDTH 3 0
BBX 3 11 0 -3
BITMAP
20
40
40
40
C0
C0
C0
40
40
40
20
ENDCHAR
STARTCHAR 0029
ENCODING 41
SWIDTH 270 0
DWIDTH 3 0
BBX 3 11 0 -3
BITMAP
40
40
20
20
20
20
20
20
20
40
80
ENDCHAR
STARTCHAR 002A
ENCODING 42
SWIDTH 450 0
DWIDTH 5 0
BBX 4 4 1 5
BITMAP
40
C0
70
A0
ENDCHAR
STARTCHAR 002B
ENCODING 43
SWIDTH 540 0
DWIDTH 6 0
BBX 6 4 0 1
BITMAP
20
20
FC
20
ENDCHAR
STARTCHAR 002C
ENCODING 44
SWIDTH 270 0
DWIDTH 3 0
BBX 2 3 1 -2
BITMAP
C0
80
80
ENDCHAR
STARTCHAR 002D
ENCODING 45
SWIDTH 360 0
DWIDTH 4 0
BBX 3 1 1 2
BITMAP
E0
ENDCHAR
STARTCHAR 002E
ENCODING 46
SWIDTH 270 0
DWIDTH 3 0
BBX 1 2 1 0
BITMAP
80
80
ENDCHAR
STARTCHAR 002F
ENCODING 47
SWIDTH 360 0
DWIDTH 4 0
BBX 4 8 0 0
BITMAP
10
10
20
20
40
40
40
80
ENDCHAR
STARTCHAR 0030
ENCODING 48
SWIDTH 540 0
DWIDTH 6 0
BBX 6 6 0 0
BITMAP
10
6C
C4
C4
44
38
ENDCHAR
STARTCHAR 0031
ENCODING 49
SWIDTH 360 0
DWIDTH 4 0
BBX 3 6 1 0
BITMAP
E0
C0
C0
C0
C0
E0
ENDCHAR
STARTCHAR 0032
ENCODING 50
SWIDTH 450 0
DWIDTH 5 0
BBX 4 6 1 0
BITMAP
60
B0
B0
60
90
F0
ENDCHAR
STARTCHAR 0033
ENCODING 51
SWIDTH 450 0
DWIDTH 5 0
BBX 4 8 1 -2
BITMAP
F0
F0
20
40
30
10
30
E0
ENDCHAR
STARTCHAR 0034
ENCODING 52
SWIDTH 540 0
DWIDTH 6 0
BBX 6 8 0 -2
BITMAP
08
18
28
28
48
FC
08
08
ENDCHAR
STARTCHAR 0035
ENCODING 53
SWIDTH 450 0
DWIDTH 5 0
BBX 5 8 0 -2
BITMAP
78
78
40
70
38
18
18
F0
ENDCHAR
STARTCHAR 0036
ENCODING 54
SWIDTH 540 0
DWIDTH 6 0
BBX 6 7 0 0
BITMAP
18
60
40
F8
CC
4C
78
ENDCHAR
STARTCHAR 0037
ENCODING 55
SWIDTH 450 0
DWIDTH 5 0
BBX 5 8 0 -2
BITMAP
78
78
90
10
20
20
60
40
ENDCHAR
STARTCHAR 0038
ENCODING 56
SWIDTH 540 0
DWIDTH 6 0
BBX 5 7 1 0
BITMAP
F0
90
D0
70
90
98
F0
ENDCHAR
STARTCHAR 0039
ENCODING 57
SWIDTH 540 0
DWIDTH 6 0
BBX 6 8 0 -2
BITMAP
30
48
CC
CC
7C
08
10
60
ENDCHAR
STARTCHAR 003A
ENCODING 58
SWIDTH 270 0
DWIDTH 3 0
BBX 1 5 1 0
BITMAP
80
80
00
80
80
ENDCHAR
STARTCHAR 003B
ENCODING 59
SWIDTH 270 0
DWIDTH 3 0
BBX 2 7 1 -2
BITMAP
C0
80
00
00
C0
80
80
ENDCHAR
STARTCHAR 003C
ENCODING 60
SWIDTH 540 0
DWIDTH 6 0
BBX 4 5 1 1
BITMAP
30
C0
80
60
10
ENDCHAR
STARTCHAR 003D
ENCODING 61
SWIDTH 540 0
DWIDTH 6 0
BBX 4 3 1 1
BITMAP
F0
00
F0
ENDCHAR
STARTCHAR 003E
ENCODING 62
SWIDTH 540 0
DWIDTH 6 0
BBX 4 6 1 0
BITMAP
80
40
30
10
60
80
ENDCHAR
STARTCHAR 003F
ENCODING 63
SWIDTH 450 0
DWIDTH 5 0
BBX 4 8 1 0
BITMAP
F0
90
30
20
60
20
20
60
ENDCHAR
STARTCHAR 0040
ENCODING 64
SWIDTH 990 0
DWIDTH 11 0
BBX 9 9 1 -2
BITMAP
3F00
4080
9E80
B680
B680
B700
BF00
4000
3F00
ENDCHAR
STARTCHAR 0041
ENCODING 65
SWIDTH 630 0
DWIDTH 7 0
BBX 8 8 0 0
BITMAP
10
18
18
2C
2C
7C
46
C7
ENDCHAR
STARTCHAR 0042
ENCODING 66
SWIDTH 630 0
DWIDTH 7 0
BBX 7 8 0 0
BITMAP
F0
6C
64
6C
7C
66
66
7C
ENDCHAR
STARTCHAR 0043
ENCODING 67
SWIDTH 630 0
DWIDTH 7 0
BBX 7 8 0 0
BITMAP
18
66
40
C0
C0
40
60
3C
ENDCHAR
STARTCHAR 0044
ENCODING 68
SWIDTH 720 0
DWIDTH 8 0
BBX 8 8 0 0
BITMAP
F0
6E
63
63
63
63
62
7C
ENDCHAR
STARTCHAR 0045
ENCODING 69
SWIDTH 540 0
DWIDTH 6 0
BBX 7 8 0 0
BITMAP
FC
64
60
68
78
60
62
7C
ENDCHAR
STARTCHAR 0046
ENCODING 70
SWIDTH 540 0
DWIDTH 6 0
BBX 6 8 0 0
BITMAP
FC
64
60
60
78
60
60
F0
ENDCHAR
STARTCHAR 0047
ENCODING 71
SWIDTH 630 0
DWIDTH 7 0
BBX 7 8 0 0
BITMAP
18
66
42
C0
C6
46
66
3E
ENDCHAR
STARTCHAR 0048
ENCODING 72
SWIDTH 720 0
DWIDTH 8 0
BBX 8 8 0 0
BITMAP
F7
62
62
62
7E
62
62
77
ENDCHAR
STARTCHAR 0049
ENCODING 73
SWIDTH 360 0
DWIDTH 4 0
BBX 4 8 0 0
BITMAP
F0
60
60
60
60
60
60
70
ENDCHAR
STARTCHAR 004A
ENCODING 74
SWIDTH 360 0
DWIDTH 4 0
BBX 4 11 0 -3
BITMAP
F0
60
60
60
60
60
60
60
60
40
80
ENDCHAR
STARTCHAR 004B
ENCODING 75
SWIDTH 720 0
DWIDTH 8 0
BBX 8 8 0 0
BITMAP
F6
64
68
70
78
6C
66
77
ENDCHAR
STARTCHAR 004C
ENCODING 76
SWIDTH 540 0
DWIDTH 6 0
BBX 6 8 0 0
BITMAP
F0
60
60
60
60
60
64
7C
ENDCHAR
STARTCHAR 004D
ENCODING 77
SWIDTH 900 0
DWIDTH 10 0
BBX 10 8 0 0
BITMAP
60C0
3180
3180
5280
5A80
4CC0
4CC0
EDC0
ENDCHAR
STARTCHAR 004E
ENCODING 78
SWIDTH 720 0
DWIDTH 8 0
BBX 8 8 0 0
BITMAP
E7
62
72
5A
5E
4E
46
E2
ENDCHAR
STARTCHAR 004F
ENCODING 79
SWIDTH 720 0
DWIDTH 8 0
BBX 8 8 0 0
BITMAP
18
66
43
C3
C3
43
62
3C
ENDCHAR
STARTCHAR 0050
ENCODING 80
SWIDTH 630 0
DWIDTH 7 0
BBX 7 8 0 0
BITMAP
F0
6C
66
66
6C
60
60
F0
ENDCHAR
STARTCHAR 0051
ENCODING 81
SWIDTH 720 0
DWIDTH 8 0
BBX 9 10 0 -2
BITMAP
1800
6600
4300
C300
C300
4300
6200
3C00
0600
0380
ENDCHAR
STARTCHAR 0052
ENCODING 82
SWIDTH 630 0
DWIDTH 7 0
BBX 8 8 0 0
BITMAP
F8
66
66
66
78
6C
64
77
ENDCHAR
STARTCHAR 0053
ENCODING 83
SWIDTH 540 0
DWIDTH 6 0
BBX 5 8 1 0
BITMAP
60
90
90
E0
70
18
98
F0
ENDCHAR
STARTCHAR 0054
ENCODING 84
SWIDTH 630 0
DWIDTH 7 0
BBX 7 8 0 0
BITMAP
7E
D2
12
10
10
10
10
38
ENDCHAR
STARTCHAR 0055
ENCODING 85
SWIDTH 630 0
DWIDTH 7 0
BBX 7 8 0 0
BITMAP
F6
62
64
64
64
64
64
3C
ENDCHAR
STARTCHAR 0056
ENCODING 86
SWIDTH 630 0
DWIDTH 7 0
BBX 8 8 0 0
BITMAP
E7
62
64
24
34
38
18
10
ENDCHAR
STARTCHAR 0057
ENCODING 87
SWIDTH 990 0
DWIDTH 11 0
BBX 11 8 0 0
BITMAP
E0E0
6640
6640
6A40
3B80
3B80
3180
1100
ENDCHAR
STARTCHAR 0058
ENCODING 88
SWIDTH 630 0
DWIDTH 7 0
BBX 7 8 0 0
BITMAP
F6
66
34
18
18
2C
2C
EE
ENDCHAR
STARTCHAR 0059
ENCODING 89
SWIDTH 630 0
DWIDTH 7 0
BBX 7 8 0 0
BITMAP
E6
64
64
38
38
10
10
38
ENDCHAR
STARTCHAR 005A
ENCODING 90
SWIDTH 540 0
DWIDTH 6 0
BBX 6 8 0 0
BITMAP
7C
4C
58
18
30
30
64
FC
ENDCHAR
STARTCHAR 005B
ENCODING 91
SWIDTH 270 0
DWIDTH 3 0
BBX 3 11 0 -3
BITMAP
C0
C0
C0
C0
C0
C0
C0
C0
C0
C0
E0
ENDCHAR
STARTCHAR 005C
ENCODING 92
SWIDTH 360 0
DWIDTH 4 0
BBX 4 8 0 0
BITMAP
80
40
40
40
20
20
20
10
ENDCHAR
STARTCHAR 005D
ENCODING 93
SWIDTH 270 0
DWIDTH 3 0
BBX 2 11 1 -3
BITMAP
C0
40
40
40
40
40
40
40
40
40
C0
ENDCHAR
STARTCHAR 005E
ENCODING 94
SWIDTH 540 0
DWIDTH 6 0
BBX 5 4 1 4
BITMAP
20
60
90
08
ENDCHAR
STARTCHAR 005F
ENCODING 95
SWIDTH 540 0
DWIDTH 6 0
BBX 6 1 0 -2
BITMAP
FC
ENDCHAR
STARTCHAR 0060
ENCODING 96
SWIDTH 270 0
DWIDTH 3 0
BBX 2 2 1 6
BITMAP
80
40
ENDCHAR
STARTCHAR 0061
ENCODING 97
SWIDTH 450 0
DWIDTH 5 0
BBX 6 5 0 0
BITMAP
78
D8
38
D8
FC
ENDCHAR
STARTCHAR 0062
ENCODING 98
SWIDTH 540 0
DWIDTH 6 0
BBX 6 8 0 0
BITMAP
C0
40
40
5C
6C
44
4C
78
ENDCHAR
STARTCHAR 0063
ENCODING 99
SWIDTH 450 0
DWIDTH 5 0
BBX 5 5 0 0
BITMAP
78
48
C0
40
78
ENDCHAR
STARTCHAR 0064
ENCODING 100
SWIDTH 540 0
DWIDTH 6 0
BBX 6 8 0 0
BITMAP
1C
0C
0C
7C
4C
CC
CC
7C
ENDCHAR
STARTCHAR 0065
ENCODING 101
SWIDTH 450 0
DWIDTH 5 0
BBX 5 5 0 0
BITMAP
78
48
F8
40
78
ENDCHAR
STARTCHAR 0066
ENCODING 102
SWIDTH 360 0
DWIDTH 4 0
BBX 5 8 0 0
BITMAP
38
68
60
F0
60
60
60
F0
ENDCHAR
STARTCHAR 0067
ENCODING 103
SWIDTH 540 0
DWIDTH 6 0
BBX 6 8 0 -3
BITMAP
7C
C8
48
70
78
7C
C8
70
ENDCHAR
STARTCHAR 0068
ENCODING 104
SWIDTH 630 0
DWIDTH 7 0
BBX 7 8 0 0
BITMAP
E0
60
60
7C
64
64
64
EE
ENDCHAR
STARTCHAR 0069
ENCODING 105
SWIDTH 270 0
DWIDTH 3 0
BBX 4 8 0 0
BITMAP
60
60
00
E0
60
60
60
F0
ENDCHAR
STARTCHAR 006A
ENCODING 106
SWIDTH 270 0
DWIDTH 3 0
BBX 3 11 0 -3
BITMAP
60
60
00
E0
60
60
60
60
60
40
80
ENDCHAR
STARTCHAR 006B
ENCODING 107
SWIDTH 540 0
DWIDTH 6 0
BBX 7 8 0 0
BITMAP
E0
60
60
6C
68
78
6C
E6
ENDCHAR
STARTCHAR 006C
ENCODING 108
SWIDTH 270 0
DWIDTH 3 0
BBX 3 8 0 0
BITMAP
E0
60
60
60
60
60
60
E0
ENDCHAR
STARTCHAR 006D
ENCODING 109
SWIDTH 900 0
DWIDTH 10 0
BBX 10 5 0 0
BITMAP
FD80
66C0
64C0
64C0
EFC0
ENDCHAR
STARTCHAR 006E
ENCODING 110
SWIDTH 630 0
DWIDTH 7 0
BBX 7 5 0 0
BITMAP
FC
64
64
64
EE
ENDCHAR
STARTCHAR 006F
ENCODING 111
SWIDTH 540 0
DWIDTH 6 0
BBX 6 5 0 0
BITMAP
78
4C
CC
4C
78
ENDCHAR
STARTCHAR 0070
ENCODING 112
SWIDTH 630 0
DWIDTH 7 0
BBX 7 8 0 -3
BITMAP
FC
66
66
64
7C
60
60
F0
ENDCHAR
STARTCHAR 0071
ENCODING 113
SWIDTH 540 0
DWIDTH 6 0
BBX 7 8 0 -3
BITMAP
7C
4C
CC
CC
7C
0C
0C
1E
ENDCHAR
STARTCHAR 0072
ENCODING 114
SWIDTH 450 0
DWIDTH 5 0
BBX 5 5 0 0
BITMAP
F8
68
60
60
F0
ENDCHAR
STARTCHAR 0073
ENCODING 115
SWIDTH 450 0
DWIDTH 5 0
BBX 5 5 0 0
BITMAP
70
C0
70
98
F0
ENDCHAR
STARTCHAR 0074
ENCODING 116
SWIDTH 360 0
DWIDTH 4 0
BBX 4 7 0 0
BITMAP
20
60
F0
60
60
60
70
ENDCHAR
STARTCHAR 0075
ENCODING 117
SWIDTH 540 0
DWIDTH 6 0
BBX 6 5 0 0
BITMAP
DC
4C
4C
6C
7C
ENDCHAR
STARTCHAR 0076
ENCODING 118
SWIDTH 540 0
DWIDTH 6 0
BBX 6 5 0 0
BITMAP
EC
68
28
30
30
ENDCHAR
STARTCHAR 0077
ENCODING 119
SWIDTH 720 0
DWIDTH 8 0
BBX 9 5 0 0
BITMAP
E980
6D00
7600
3600
2600
ENDCHAR
STARTCHAR 0078
ENCODING 120
SWIDTH 540 0
DWIDTH 6 0
BBX 6 5 0 0
BITMAP
EC
28
30
58
DC
ENDCHAR
STARTCHAR 0079
ENCODING 121
SWIDTH 540 0
DWIDTH 6 0
BBX 6 8 0 -3
BITMAP
EC
68
28
30
30
10
E0
40
ENDCHAR
STARTCHAR 007A
ENCODING 122
SWIDTH 450 0
DWIDTH 5 0
BBX 4 5 1 0
BITMAP
F0
A0
60
D0
F0
ENDCHAR
STARTCHAR 007B
ENCODING 123
SWIDTH 360 0
DWIDTH 4 0
BBX 4 11 0 -3
BITMAP
20
60
60
20
60
C0
60
60
60
20
30
ENDCHAR
STARTCHAR 007C
ENCODING 124
SWIDTH 180 0
DWIDTH 2 0
BBX 1 9 1 -2
BITMAP
80
80
80
80
80
80
80
80
80
ENDCHAR
STARTCHAR 007D
ENCODING 125
SWIDTH 360 0
DWIDTH 4 0
BBX 4 11 0 -3
BITMAP
40
60
60
60
60
30
60
60
60
60
C0
ENDCHAR
STARTCHAR 007E
ENCODING 126
SWIDTH 540 0
DWIDTH 6 0
BBX 5 2 0 2
BITMAP
60
98
ENDCHAR
STARTCHAR 00A0
ENCODING 160
SWIDTH 180 0
DWIDTH 2 0
BBX 0 0 0 0
BITMAP
ENDCHAR
STARTCHAR 00A1
ENCODING 161
SWIDTH 360 0
DWIDTH 4 0
BBX 2 8 1 -3
BITMAP
C0
40
00
40
40
40
40
C0
ENDCHAR
STARTCHAR 00A2
ENCODING 162
SWIDTH 450 0
DWIDTH 5 0
BBX 5 7 0 -1
BITMAP
20
78
68
E0
60
78
20
ENDCHAR
STARTCHAR 00A3
ENCODING 163
SWIDTH 540 0
DWIDTH 6 0
BBX 5 8 1 0
BITMAP
30
D0
C0
C0
F0
40
F8
B0
ENDCHAR
STARTCHAR 00A4
ENCODING 164
SWIDTH 540 0
DWIDTH 6 0
BBX 4 4 1 1
BITMAP
F0
90
90
F0
ENDCHAR
STARTCHAR 00A5
ENCODING 165
SWIDTH 630 0
DWIDTH 7 0
BBX 7 8 0 0
BITMAP
E6
64
64
38
3C
7C
10
38
ENDCHAR
STARTCHAR 00A6
ENCODING 166
SWIDTH 180 0
DWIDTH 2 0
BBX 1 9 1 -2
BITMAP
80
80
80
00
00
00
80
80
80
ENDCHAR
STARTCHAR 00A7
ENCODING 167
SWIDTH 540 0
DWIDTH 6 0
BBX 5 11 1 -3
BITMAP
70
90
C0
70
B8
98
D0
70
30
90
60
ENDCHAR
STARTCHAR 00A8
ENCODING 168
SWIDTH 270 0
DWIDTH 3 0
BBX 4 1 0 6
BITMAP
B0
ENDCHAR
STARTCHAR 00A9
ENCODING 169
SWIDTH 720 0
DWIDTH 8 0
BBX 7 7 1 -1
BITMAP
7C
BA
EA
E2
E2
BA
7C
ENDCHAR
STARTCHAR 00AA
ENCODING 170
SWIDTH 360 0
DWIDTH 4 0
BBX 3 4 1 4
BITMAP
E0
20
E0
E0
ENDCHAR
STARTCHAR 00AB
ENCODING 171
SWIDTH 450 0
DWIDTH 5 0
BBX 4 4 1 1
BITMAP
50
A0
A0
50
ENDCHAR
STARTCHAR 00AC
ENCODING 172
SWIDTH 540 0
DWIDTH 6 0
BBX 5 3 1 1
BITMAP
F8
08
08
ENDCHAR
STARTCHAR 00AD
ENCODING 173
SWIDTH 360 0
DWIDTH 4 0
BBX 3 1 1 2
BITMAP
E0
ENDCHAR
STARTCHAR 00AE
ENCODING 174
SWIDTH 450 0
DWIDTH 5 0
BBX 4 5 1 4
BITMAP
60
F0
F0
F0
60
ENDCHAR
STARTCHAR 00AF
ENCODING 175
SWIDTH 270 0
DWIDTH 3 0
BBX 4 1 0 6
BITMAP
F0
ENDCHAR
STARTCHAR 00B0
ENCODING 176
SWIDTH 360 0
DWIDTH 4 0
BBX 3 3 1 5
BITMAP
C0
A0
E0
ENDCHAR
STARTCHAR 00B1
ENCODING 177
SWIDTH 540 0
DWIDTH 6 0
BBX 4 5 1 1
BITMAP
40
F0
40
00
F0
ENDCHAR
STARTCHAR 00B2
ENCODING 178
SWIDTH 360 0
DWIDTH 4 0
BBX 4 3 0 6
BITMAP
F0
20
70
ENDCHAR
STARTCHAR 00B3
ENCODING 179
SWIDTH 360 0
DWIDTH 4 0
BBX 4 5 0 3
BITMAP
60
40
30
10
E0
ENDCHAR
STARTCHAR 00B4
ENCODING 180
SWIDTH 270 0
DWIDTH 3 0
BBX 1 2 1 6
BITMAP
80
80
ENDCHAR
STARTCHAR 00B5
ENCODING 181
SWIDTH 630 0
DWIDTH 7 0
BBX 7 8 0 -3
BITMAP
EC
6C
6C
6C
76
40
40
40
ENDCHAR
STARTCHAR 00B6
ENCODING 182
SWIDTH 540 0
DWIDTH 6 0
BBX 6 11 0 -3
BITMAP
1C
74
D8
58
38
18
18
18
18
18
10
ENDCHAR
STARTCHAR 00B7
ENCODING 183
SWIDTH 270 0
DWIDTH 3 0
BBX 1 2 1 2
BITMAP
80
80
ENDCHAR
STARTCHAR 00B8
ENCODING 184
SWIDTH 270 0
DWIDTH 3 0
BBX 2 3 1 -3
BITMAP
80
40
80
ENDCHAR
STARTCHAR 00B9
ENCODING 185
SWIDTH 270 0
DWIDTH 3 0
BBX 2 3 1 5
BITMAP
C0
80
C0
ENDCHAR
STARTCHAR 00BA
ENCODING 186
SWIDTH 360 0
DWIDTH 4 0
BBX 4 4 0 4
BITMAP
70
D0
D0
70
ENDCHAR
STARTCHAR 00BB
ENCODING 187
SWIDTH 450 0
DWIDTH 5 0
BBX 4 3 1 2
BITMAP
B0
D0
A0
ENDCHAR
STARTCHAR 00BC
ENCODING 188
SWIDTH 810 0
DWIDTH 9 0
BBX 9 8 0 0
BITMAP
E100
2100
2200
2580
7980
0F80
1780
2180
ENDCHAR
STARTCHAR 00BD
ENCODING 189
SWIDTH 900 0
DWIDTH 10 0
BBX 11 8 0 0
BITMAP
E100
2100
2200
25C0
7940
08C0
11A0
21E0
ENDCHAR
STARTCHAR 00BE
ENCODING 190
SWIDTH 810 0
DWIDTH 9 0
BBX 9 8 0 0
BITMAP
F100
A200
7200
3500
EB00
1500
1780
2380
ENDCHAR
STARTCHAR 00BF
ENCODING 191
SWIDTH 450 0
DWIDTH 5 0
BBX 4 8 1 -3
BITMAP
60
40
40
60
40
C0
90
E0
ENDCHAR
STARTCHAR 00C0
ENCODING 192
SWIDTH 630 0
DWIDTH 7 0
BBX 8 10 0 0
BITMAP
30
10
10
18
18
2C
2C
7C
46
C7
ENDCHAR
STARTCHAR 00C1
ENCODING 193
SWIDTH 630 0
DWIDTH 7 0
BBX 8 10 0 0
BITMAP
08
10
10
18
18
2C
2C
7C
46
C7
ENDCHAR
STARTCHAR 00C2
ENCODING 194
SWIDTH 630 0
DWIDTH 7 0
BBX 8 10 0 0
BITMAP
18
2C
10
18
18
2C
2C
7C
46
C7
ENDCHAR
STARTCHAR 00C3
ENCODING 195
SWIDTH 630 0
DWIDTH 7 0
BBX 8 10 0 0
BITMAP
14
28
10
18
18
2C
2C
7C
46
C7
ENDCHAR
STARTCHAR 00C4
ENCODING 196
SWIDTH 630 0
DWIDTH 7 0
BBX 8 10 0 0
BITMAP
24
2C
10
18
18
2C
2C
7C
46
C7
ENDCHAR
STARTCHAR 00C5
ENCODING 197
SWIDTH 630 0
DWIDTH 7 0
BBX 8 10 0 0
BITMAP
18
18
10
18
18
2C
2C
7C
46
C7
ENDCHAR
STARTCHAR 00C6
ENCODING 198
SWIDTH 900 0
DWIDTH 10 0
BBX 10 8 0 0
BITMAP
1FC0
0E40
1600
1680
3F80
2680
4640
EFC0
ENDCHAR
STARTCHAR 00C7
ENCODING 199
SWIDTH 630 0
DWIDTH 7 0
BBX 7 11 0 -3
BITMAP
18
66
40
C0
C0
40
60
3C
10
08
10
ENDCHAR
STARTCHAR 00C8
ENCODING 200
SWIDTH 540 0
DWIDTH 6 0
BBX 7 10 0 0
BITMAP
20
10
FC
64
60
68
78
60
62
7C
ENDCHAR
STARTCHAR 00C9
ENCODING 201
SWIDTH 540 0
DWIDTH 6 0
BBX 7 10 0 0
BITMAP
18
10
FC
64
60
68
78
60
62
7C
ENDCHAR
STARTCHAR 00CA
ENCODING 202
SWIDTH 540 0
DWIDTH 6 0
BBX 7 10 0 0
BITMAP
10
68
FC
64
60
68
78
60
62
7C
ENDCHAR
STARTCHAR 00CB
ENCODING 203
SWIDTH 540 0
DWIDTH 6 0
BBX 7 10 0 0
BITMAP
28
68
FC
64
60
68
78
60
62
7C
ENDCHAR
STARTCHAR 00CC
ENCODING 204
SWIDTH 360 0
DWIDTH 4 0
BBX 4 10 0 0
BITMAP
40
20
F0
60
60
60
60
60
60
70
ENDCHAR
STARTCHAR 00CD
ENCODING 205
SWIDTH 360 0
DWIDTH 4 0
BBX 4 10 0 0
BITMAP
20
20
F0
60
60
60
60
60
60
70
ENDCHAR
STARTCHAR 00CE
ENCODING 206
SWIDTH 360 0
DWIDTH 4 0
BBX 4 10 0 0
BITMAP
20
70
F0
60
60
60
60
60
60
70
ENDCHAR
STARTCHAR 00CF
ENCODING 207
SWIDTH 360 0
DWIDTH 4 0
BBX 4 9 0 1
BITMAP
F0
F0
60
60
60
60
60
60
70
ENDCHAR
STARTCHAR 00D0
ENCODING 208
SWIDTH 720 0
DWIDTH 8 0
BBX 8 8 0 0
BITMAP
F0
6E
63
63
F3
63
62
7C
ENDCHAR
STARTCHAR 00D1
ENCODING 209
SWIDTH 720 0
DWIDTH 8 0
BBX 8 10 0 0
BITMAP
10
2C
E7
62
72
5A
5E
4E
46
E2
ENDCHAR
STARTCHAR 00D2
ENCODING 210
SWIDTH 720 0
DWIDTH 8 0
BBX 8 10 0 0
BITMAP
10
08
18
66
43
C3
C3
43
62
3C
ENDCHAR
STARTCHAR 00D3
ENCODING 211
SWIDTH 720 0
DWIDTH 8 0
BBX 8 10 0 0
BITMAP
08
08
18
66
43
C3
C3
43
62
3C
ENDCHAR
STARTCHAR 00D4
ENCODING 212
SWIDTH 720 0
DWIDTH 8 0
BBX 8 10 0 0
BITMAP
08
34
18
66
43
C3
C3
43
62
3C
ENDCHAR
STARTCHAR 00D5
ENCODING 213
SWIDTH 720 0
DWIDTH 8 0
BBX 8 10 0 0
BITMAP
10
2C
18
66
43
C3
C3
43
62
3C
ENDCHAR
STARTCHAR 00D6
ENCODING 214
SWIDTH 720 0
DWIDTH 8 0
BBX 8 10 0 0
BITMAP
24
34
18
66
43
C3
C3
43
62
3C
ENDCHAR
STARTCHAR 00D7
ENCODING 215
SWIDTH 540 0
DWIDTH 6 0
BBX 6 5 0 1
BITMAP
48
30
30
48
84
ENDCHAR
STARTCHAR 00D8
ENCODING 216
SWIDTH 720 0
DWIDTH 8 0
BBX 8 8 0 0
BITMAP
19
66
47
CB
DB
53
62
7C
ENDCHAR
STARTCHAR 00D9
ENCODING 217
SWIDTH 630 0
DWIDTH 7 0
BBX 7 10 0 0
BITMAP
10
08
F6
62
64
64
64
64
64
3C
ENDCHAR
STARTCHAR 00DA
ENCODING 218
SWIDTH 630 0
DWIDTH 7 0
BBX 7 10 0 0
BITMAP
0C
08
F6
62
64
64
64
64
64
3C
ENDCHAR
STARTCHAR 00DB
ENCODING 219
SWIDTH 630 0
DWIDTH 7 0
BBX 7 10 0 0
BITMAP
08
34
F6
62
64
64
64
64
64
3C
ENDCHAR
STARTCHAR 00DC
ENCODING 220
SWIDTH 630 0
DWIDTH 7 0
BBX 7 10 0 0
BITMAP
14
34
F6
62
64
64
64
64
64
3C
ENDCHAR
STARTCHAR 00DD
ENCODING 221
SWIDTH 630 0
DWIDTH 7 0
BBX 7 10 0 0
BITMAP
08
00
E6
64
64
38
38
10
10
38
ENDCHAR
STARTCHAR 00DE
ENCODING 222
SWIDTH 630 0
DWIDTH 7 0
BBX 7 8 0 0
BITMAP
F0
60
7C
66
66
64
68
70
ENDCHAR
STARTCHAR 00DF
ENCODING 223
SWIDTH 630 0
DWIDTH 7 0
BBX 7 8 0 0
BITMAP
3C
64
64
E8
7C
6E
72
FE
ENDCHAR
STARTCHAR 00E0
ENCODING 224
SWIDTH 540 0
DWIDTH 6 0
BBX 5 8 1 0
BITMAP
C0
40
00
70
90
70
90
F8
ENDCHAR
STARTCHAR 00E1
ENCODING 225
SWIDTH 540 0
DWIDTH 6 0
BBX 5 8 1 0
BITMAP
20
20
00
70
90
70
90
F8
ENDCHAR
STARTCHAR 00E2
ENCODING 226
SWIDTH 540 0
DWIDTH 6 0
BBX 5 8 1 0
BITMAP
60
B0
00
70
90
70
90
F8
ENDCHAR
STARTCHAR 00E3
ENCODING 227
SWIDTH 540 0
DWIDTH 6 0
BBX 5 7 1 1
BITMAP
E0
00
70
90
70
90
F8
ENDCHAR
STARTCHAR 00E4
ENCODING 228
SWIDTH 540 0
DWIDTH 6 0
BBX 5 7 1 0
BITMAP
B0
00
70
90
70
90
F8
ENDCHAR
STARTCHAR 00E5
ENCODING 229
SWIDTH 540 0
DWIDTH 6 0
BBX 5 8 1 0
BITMAP
60
60
00
70
90
70
90
F8
ENDCHAR
STARTCHAR 00E6
ENCODING 230
SWIDTH 720 0
DWIDTH 8 0
BBX 8 5 0 0
BITMAP
7E
5B
7E
D8
6E
ENDCHAR
STARTCHAR 00E7
ENCODING 231
SWIDTH 450 0
DWIDTH 5 0
BBX 5 8 0 -3
BITMAP
78
48
C0
40
78
20
10
20
ENDCHAR
STARTCHAR 00E8
ENCODING 232
SWIDTH 450 0
DWIDTH 5 0
BBX 5 8 0 0
BITMAP
20
20
00
78
48
F8
40
78
ENDCHAR
STARTCHAR 00E9
ENCODING 233
SWIDTH 450 0
DWIDTH 5 0
BBX 5 8 0 0
BITMAP
10
10
00
78
48
F8
40
78
ENDCHAR
STARTCHAR 00EA
ENCODING 234
SWIDTH 450 0
DWIDTH 5 0
BBX 5 8 0 0
BITMAP
30
78
00
78
48
F8
40
78
ENDCHAR
STARTCHAR 00EB
ENCODING 235
SWIDTH 450 0
DWIDTH 5 0
BBX 5 7 0 0
BITMAP
78
00
78
48
F8
40
78
ENDCHAR
STARTCHAR 00EC
ENCODING 236
SWIDTH 270 0
DWIDTH 3 0
BBX 4 8 0 0
BITMAP
C0
40
00
E0
60
60
60
F0
ENDCHAR
STARTCHAR 00ED
ENCODING 237
SWIDTH 270 0
DWIDTH 3 0
BBX 4 8 0 0
BITMAP
20
20
00
E0
60
60
60
F0
ENDCHAR
STARTCHAR 00EE
ENCODING 238
SWIDTH 270 0
DWIDTH 3 0
BBX 4 8 0 0
BITMAP
60
A0
00
E0
60
60
60
F0
ENDCHAR
STARTCHAR 00EF
ENCODING 239
SWIDTH 270 0
DWIDTH 3 0
BBX 4 7 0 0
BITMAP
F0
00
E0
60
60
60
F0
ENDCHAR
STARTCHAR 00F0
ENCODING 240
SWIDTH 540 0
DWIDTH 6 0
BBX 6 8 0 0
BITMAP
70
18
28
7C
4C
CC
4C
78
ENDCHAR
STARTCHAR 00F1
ENCODING 241
SWIDTH 630 0
DWIDTH 7 0
BBX 7 7 0 1
BITMAP
38
00
FC
64
64
64
EE
ENDCHAR
STARTCHAR 00F2
ENCODING 242
SWIDTH 540 0
DWIDTH 6 0
BBX 6 8 0 0
BITMAP
20
10
00
78
4C
CC
4C
78
ENDCHAR
STARTCHAR 00F3
ENCODING 243
SWIDTH 540 0
DWIDTH 6 0
BBX 6 8 0 0
BITMAP
18
10
00
78
4C
CC
4C
78
ENDCHAR
STARTCHAR 00F4
ENCODING 244
SWIDTH 540 0
DWIDTH 6 0
BBX 6 8 0 0
BITMAP
10
68
00
78
4C
CC
4C
78
ENDCHAR
STARTCHAR 00F5
ENCODING 245
SWIDTH 540 0
DWIDTH 6 0
BBX 6 8 0 0
BITMAP
20
58
00
78
4C
CC
4C
78
ENDCHAR
STARTCHAR 00F6
ENCODING 246
SWIDTH 540 0
DWIDTH 6 0
BBX 6 7 0 0
BITMAP
68
00
78
4C
CC
4C
78
ENDCHAR
STARTCHAR 00F7
ENCODING 247
SWIDTH 540 0
DWIDTH 6 0
BBX 4 5 1 1
BITMAP
60
00
F0
60
20
ENDCHAR
STARTCHAR 00F8
ENCODING 248
SWIDTH 540 0
DWIDTH 6 0
BBX 6 5 0 0
BITMAP
7C
5C
DC
6C
78
ENDCHAR
STARTCHAR 00F9
ENCODING 249
SWIDTH 540 0
DWIDTH 6 0
BBX 6 8 0 0
BITMAP
20
10
00
DC
4C
4C
6C
7C
ENDCHAR
STARTCHAR 00FA
ENCODING 250
SWIDTH 540 0
DWIDTH 6 0
BBX 6 8 0 0
BITMAP
18
10
00
DC
4C
4C
6C
7C
ENDCHAR
STARTCHAR 00FB
ENCODING 251
SWIDTH 540 0
DWIDTH 6 0
BBX 6 8 0 0
BITMAP
10
28
00
DC
4C
4C
6C
7C
ENDCHAR
STARTCHAR 00FC
ENCODING 252
SWIDTH 540 0
DWIDTH 6 0
BBX 6 7 0 0
BITMAP
68
00
DC
4C
4C
6C
7C
ENDCHAR
STARTCHAR 00FD
ENCODING 253
SWIDTH 540 0
DWIDTH 6 0
BBX 6 11 0 -3
BITMAP
08
10
00
EC
68
28
30
30
10
E0
40
ENDCHAR
STARTCHAR 00FE
ENCODING 254
SWIDTH 540 0
DWIDTH 6 0
BBX 7 11 0 -3
BITMAP
E0
60
60
7C
66
66
64
78
60
60
F0
ENDCHAR
STARTCHAR 00FF
ENCODING 255
SWIDTH 540 0
DWIDTH 6 0
BBX 6 10 0 -3
BITMAP
6C
00
EC
68
28
30
30
10
E0
40
ENDCHAR
STARTCHAR 0100
ENCODING 256
SWIDTH 630 0
DWIDTH 7 0
BBX 8 9 0 0
BITMAP
3C
10
18
18
2C
2C
7C
46
C7
ENDCHAR
STARTCHAR 0101
ENCODING 257
SWIDTH 540 0
DWIDTH 6 0
BBX 5 7 1 0
BITMAP
F0
00
70
90
70
90
F8
ENDCHAR
STARTCHAR 0102
ENCODING 258
SWIDTH 630 0
DWIDTH 7 0
BBX 8 10 0 0
BITMAP
24
38
10
18
18
2C
2C
7C
46
C7
ENDCHAR
STARTCHAR 0103
ENCODING 259
SWIDTH 540 0
DWIDTH 6 0
BBX 5 8 1 0
BITMAP
90
F0
00
70
90
70
90
F8
ENDCHAR
STARTCHAR 0104
ENCODING 260
SWIDTH 630 0
DWIDTH 7 0
BBX 8 11 0 -3
BITMAP
10
18
18
2C
2C
7C
46
C7
04
0C
06
ENDCHAR
STARTCHAR 0105
ENCODING 261
SWIDTH 540 0
DWIDTH 6 0
BBX 5 8 1 -3
BITMAP
70
90
70
90
F8
30
30
30
ENDCHAR
STARTCHAR 0106
ENCODING 262
SWIDTH 630 0
DWIDTH 7 0
BBX 7 10 0 0
BITMAP
08
08
18
66
40
C0
C0
40
60
3C
ENDCHAR
STARTCHAR 0107
ENCODING 263
SWIDTH 450 0
DWIDTH 5 0
BBX 5 8 0 0
BITMAP
10
10
00
78
48
C0
40
78
ENDCHAR
STARTCHAR 0108
ENCODING 264
SWIDTH 630 0
DWIDTH 7 0
BBX 7 10 0 0
BITMAP
08
34
18
66
40
C0
C0
40
60
3C
ENDCHAR
STARTCHAR 0109
ENCODING 265
SWIDTH 450 0
DWIDTH 5 0
BBX 5 8 0 0
BITMAP
30
58
00
78
48
C0
40
78
ENDCHAR
STARTCHAR 010A
ENCODING 266
SWIDTH 630 0
DWIDTH 7 0
BBX 7 10 0 0
BITMAP
08
18
18
66
40
C0
C0
40
60
3C
ENDCHAR
STARTCHAR 010B
ENCODING 267
SWIDTH 450 0
DWIDTH 5 0
BBX 5 7 0 0
BITMAP
30
00
78
48
C0
40
78
ENDCHAR
STARTCHAR 010C
ENCODING 268
SWIDTH 630 0
DWIDTH 7 0
BBX 7 10 0 0
BITMAP
24
18
18
66
40
C0
C0
40
60
3C
ENDCHAR
STARTCHAR 010D
ENCODING 269
SWIDTH 450 0
DWIDTH 5 0
BBX 5 8 0 0
BITMAP
48
30
00
78
48
C0
40
78
ENDCHAR
STARTCHAR 010E
ENCODING 270
SWIDTH 720 0
DWIDTH 8 0
BBX 8 10 0 0
BITMAP
24
18
F0
6E
63
63
63
63
62
7C
ENDCHAR
STARTCHAR 010F
ENCODING 271
SWIDTH 720 0
DWIDTH 8 0
BBX 8 8 0 0
BITMAP
1F
0D
0D
7C
4C
CC
CC
7C
ENDCHAR
STARTCHAR 0110
ENCODING 272
SWIDTH 720 0
DWIDTH 8 0
BBX 8 8 0 0
BITMAP
F0
6E
63
63
F3
63
62
7C
ENDCHAR
STARTCHAR 0111
ENCODING 273
SWIDTH 540 0
DWIDTH 6 0
BBX 6 8 0 0
BITMAP
1C
0C
1C
7C
4C
CC
CC
7C
ENDCHAR
STARTCHAR 0112
ENCODING 274
SWIDTH 540 0
DWIDTH 6 0
BBX 7 9 0 0
BITMAP
78
FC
64
60
68
78
60
62
7C
ENDCHAR
STARTCHAR 0113
ENCODING 275
SWIDTH 450 0
DWIDTH 5 0
BBX 5 7 0 0
BITMAP
78
00
78
48
F8
40
78
ENDCHAR
STARTCHAR 0114
ENCODING 276
SWIDTH 540 0
DWIDTH 6 0
BBX 7 10 0 0
BITMAP
08
38
FC
64
60
68
78
60
62
7C
ENDCHAR
STARTCHAR 0115
ENCODING 277
SWIDTH 450 0
DWIDTH 5 0
BBX 5 8 0 0
BITMAP
48
78
00
78
48
F8
40
78
ENDCHAR
STARTCHAR 0116
ENCODING 278
SWIDTH 540 0
DWIDTH 6 0
BBX 7 10 0 0
BITMAP
10
30
FC
64
60
68
78
60
62
7C
ENDCHAR
STARTCHAR 0117
ENCODING 279
SWIDTH 450 0
DWIDTH 5 0
BBX 5 7 0 0
BITMAP
30
00
78
48
F8
40
78
ENDCHAR
STARTCHAR 0118
ENCODING 280
SWIDTH 540 0
DWIDTH 6 0
BBX 7 11 0 -3
BITMAP
FC
64
60
68
78
60
62
7C
08
18
08
ENDCHAR
STARTCHAR 0119
ENCODING 281
SWIDTH 450 0
DWIDTH 5 0
BBX 5 8 0 -3
BITMAP
78
48
F8
40
78
10
30
18
ENDCHAR
STARTCHAR 011A
ENCODING 282
SWIDTH 540 0
DWIDTH 6 0
BBX 7 10 0 0
BITMAP
68
30
FC
64
60
68
78
60
62
7C
ENDCHAR
STARTCHAR 011B
ENCODING 283
SWIDTH 450 0
DWIDTH 5 0
BBX 5 8 0 0
BITMAP
48
30
00
78
48
F8
40
78
ENDCHAR
STARTCHAR 011C
ENCODING 284
SWIDTH 630 0
DWIDTH 7 0
BBX 7 10 0 0
BITMAP
08
34
18
66
42
C0
C6
46
66
3E
ENDCHAR
STARTCHAR 011D
ENCODING 285
SWIDTH 540 0
DWIDTH 6 0
BBX 6 11 0 -3
BITMAP
30
58
00
7C
C8
48
70
78
7C
C8
70
ENDCHAR
STARTCHAR 011E
ENCODING 286
SWIDTH 630 0
DWIDTH 7 0
BBX 7 10 0 0
BITMAP
24
1C
18
66
42
C0
C6
46
66
3E
ENDCHAR
STARTCHAR 011F
ENCODING 287
SWIDTH 540 0
DWIDTH 6 0
BBX 6 11 0 -3
BITMAP
48
78
00
7C
C8
48
70
78
7C
C8
70
ENDCHAR
STARTCHAR 0120
ENCODING 288
SWIDTH 630 0
DWIDTH 7 0
BBX 7 10 0 0
BITMAP
08
18
18
66
42
C0
C6
46
66
3E
ENDCHAR
STARTCHAR 0121
ENCODING 289
SWIDTH 540 0
DWIDTH 6 0
BBX 6 10 0 -3
BITMAP
30
00
7C
C8
48
70
78
7C
C8
70
ENDCHAR
STARTCHAR 0122
ENCODING 290
SWIDTH 630 0
DWIDTH 7 0
BBX 7 11 0 -3
BITMAP
18
66
42
C0
C6
46
66
3E
00
18
08
ENDCHAR
STARTCHAR 0123
ENCODING 291
SWIDTH 540 0
DWIDTH 6 0
BBX 6 11 0 -3
BITMAP
20
30
00
7C
C8
48
70
78
7C
C8
70
ENDCHAR
STARTCHAR 0124
ENCODING 292
SWIDTH 720 0
DWIDTH 8 0
BBX 8 10 0 0
BITMAP
08
34
F7
62
62
62
7E
62
62
77
ENDCHAR
STARTCHAR 0125
ENCODING 293
SWIDTH 630 0
DWIDTH 7 0
BBX 7 10 0 0
BITMAP
10
68
E0
60
60
7C
64
64
64
EE
ENDCHAR
STARTCHAR 0126
ENCODING 294
SWIDTH 720 0
DWIDTH 8 0
BBX 8 8 0 0
BITMAP
F7
62
7F
62
7E
62
62
77
ENDCHAR
STARTCHAR 0127
ENCODING 295
SWIDTH 630 0
DWIDTH 7 0
BBX 7 8 0 0
BITMAP
E0
60
F0
7C
64
64
64
EE
ENDCHAR
STARTCHAR 0128
ENCODING 296
SWIDTH 360 0
DWIDTH 4 0
BBX 4 10 0 0
BITMAP
50
B0
F0
60
60
60
60
60
60
70
ENDCHAR
STARTCHAR 0129
ENCODING 297
SWIDTH 270 0
DWIDTH 3 0
BBX 4 7 0 0
BITMAP
F0
00
E0
60
60
60
F0
ENDCHAR
STARTCHAR 012A
ENCODING 298
SWIDTH 360 0
DWIDTH 4 0
BBX 4 9 0 0
BITMAP
F0
F0
60
60
60
60
60
60
70
ENDCHAR
STARTCHAR 012B
ENCODING 299
SWIDTH 270 0
DWIDTH 3 0
BBX 4 7 0 0
BITMAP
E0
00
E0
60
60
60
F0
ENDCHAR
STARTCHAR 012C
ENCODING 300
SWIDTH 360 0
DWIDTH 4 0
BBX 4 10 0 0
BITMAP
90
70
F0
60
60
60
60
60
60
70
ENDCHAR
STARTCHAR 012D
ENCODING 301
SWIDTH 270 0
DWIDTH 3 0
BBX 4 8 0 0
BITMAP
90
E0
00
E0
60
60
60
F0
ENDCHAR
STARTCHAR 012E
ENCODING 302
SWIDTH 360 0
DWIDTH 4 0
BBX 4 11 0 -3
BITMAP
F0
60
60
60
60
60
60
70
40
40
60
ENDCHAR
STARTCHAR 012F
ENCODING 303
SWIDTH 270 0
DWIDTH 3 0
BBX 4 11 0 -3
BITMAP
60
60
00
E0
60
60
60
F0
40
40
60
ENDCHAR
STARTCHAR 0130
ENCODING 304
SWIDTH 360 0
DWIDTH 4 0
BBX 4 10 0 0
BITMAP
20
60
F0
60
60
60
60
60
60
70
ENDCHAR
STARTCHAR 0131
ENCODING 305
SWIDTH 270 0
DWIDTH 3 0
BBX 4 5 0 0
BITMAP
E0
60
60
60
F0
ENDCHAR
STARTCHAR 0132
ENCODING 306
SWIDTH 630 0
DWIDTH 7 0
BBX 7 10 0 -3
BITMAP
FE
66
64
64
64
64
64
74
04
0C
ENDCHAR
STARTCHAR 0133
ENCODING 307
SWIDTH 540 0
DWIDTH 6 0
BBX 6 11 0 -3
BITMAP
6C
6C
00
EC
6C
6C
6C
FC
0C
08
10
ENDCHAR
STARTCHAR 0134
ENCODING 308
SWIDTH 360 0
DWIDTH 4 0
BBX 4 13 0 -3
BITMAP
20
E0
F0
60
60
60
60
60
60
60
60
40
80
ENDCHAR
STARTCHAR 0135
ENCODING 309
SWIDTH 270 0
DWIDTH 3 0
BBX 3 11 0 -3
BITMAP
60
A0
00
E0
60
60
60
60
60
40
80
ENDCHAR
STARTCHAR 0136
ENCODING 310
SWIDTH 720 0
DWIDTH 8 0
BBX 8 11 0 -3
BITMAP
F6
64
68
70
78
6C
66
77
08
18
10
ENDCHAR
STARTCHAR 0137
ENCODING 311
SWIDTH 540 0
DWIDTH 6 0
BBX 7 11 0 -3
BITMAP
E0
60
60
6C
68
78
6C
E6
00
30
10
ENDCHAR
STARTCHAR 0138
ENCODING 312
SWIDTH 540 0
DWIDTH 6 0
BBX 7 5 0 0
BITMAP
EC
70
78
68
EE
ENDCHAR
STARTCHAR 0139
ENCODING 313
SWIDTH 540 0
DWIDTH 6 0
BBX 6 10 0 0
BITMAP
20
20
F0
60
60
60
60
60
64
7C
ENDCHAR
STARTCHAR 013A
ENCODING 314
SWIDTH 270 0
DWIDTH 3 0
BBX 3 10 0 0
BITMAP
20
00
E0
60
60
60
60
60
60
E0
ENDCHAR
STARTCHAR 013B
ENCODING 315
SWIDTH 540 0
DWIDTH 6 0
BBX 6 11 0 -3
BITMAP
F0
60
60
60
60
60
64
7C
00
30
10
ENDCHAR
STARTCHAR 013C
ENCODING 316
SWIDTH 270 0
DWIDTH 3 0
BBX 3 11 0 -3
BITMAP
E0
60
60
60
60
60
60
E0
00
60
40
ENDCHAR
STARTCHAR 013D
ENCODING 317
SWIDTH 540 0
DWIDTH 6 0
BBX 6 8 0 0
BITMAP
F4
64
64
60
60
60
64
7C
ENDCHAR
STARTCHAR 013E
ENCODING 318
SWIDTH 450 0
DWIDTH 5 0
BBX 5 8 0 0
BITMAP
F8
68
68
60
60
60
60
E0
ENDCHAR
STARTCHAR 013F
ENCODING 319
SWIDTH 540 0
DWIDTH 6 0
BBX 6 8 0 0
BITMAP
F0
60
60
64
64
60
64
7C
ENDCHAR
STARTCHAR 0140
ENCODING 320
SWIDTH 270 0
DWIDTH 3 0
BBX 4 8 0 0
BITMAP
E0
60
60
70
70
60
60
E0
ENDCHAR
STARTCHAR 0141
ENCODING 321
SWIDTH 540 0
DWIDTH 6 0
BBX 6 8 0 0
BITMAP
F0
60
60
70
60
E0
64
7C
ENDCHAR
STARTCHAR 0142
ENCODING 322
SWIDTH 270 0
DWIDTH 3 0
BBX 4 8 0 0
BITMAP
E0
60
60
70
60
E0
60
E0
ENDCHAR
STARTCHAR 0143
ENCODING 323
SWIDTH 720 0
DWIDTH 8 0
BBX 8 10 0 0
BITMAP
08
08
E7
62
72
5A
5E
4E
46
E2
ENDCHAR
STARTCHAR 0144
ENCODING 324
SWIDTH 630 0
DWIDTH 7 0
BBX 7 8 0 0
BITMAP
08
10
00
FC
64
64
64
EE
ENDCHAR
STARTCHAR 0145
ENCODING 325
SWIDTH 720 0
DWIDTH 8 0
BBX 8 11 0 -3
BITMAP
E7
62
72
5A
5E
4E
46
E2
00
18
08
ENDCHAR
STARTCHAR 0146
ENCODING 326
SWIDTH 630 0
DWIDTH 7 0
BBX 7 8 0 -3
BITMAP
FC
64
64
64
EE
00
18
10
ENDCHAR
STARTCHAR 0147
ENCODING 327
SWIDTH 720 0
DWIDTH 8 0
BBX 8 10 0 0
BITMAP
24
18
E7
62
72
5A
5E
4E
46
E2
ENDCHAR
STARTCHAR 0148
ENCODING 328
SWIDTH 630 0
DWIDTH 7 0
BBX 7 8 0 0
BITMAP
24
18
00
FC
64
64
64
EE
ENDCHAR
STARTCHAR 0149
ENCODING 329
SWIDTH 810 0
DWIDTH 9 0
BBX 8 8 1 0
BITMAP
C0
80
80
7E
32
32
32
3F
ENDCHAR
STARTCHAR 014A
ENCODING 330
SWIDTH 630 0
DWIDTH 7 0
BBX 6 11 1 -3
BITMAP
48
FC
C4
C4
C4
C4
C4
E4
04
1C
18
ENDCHAR
STARTCHAR 014B
ENCODING 331
SWIDTH 630 0
DWIDTH 7 0
BBX 6 8 0 -3
BITMAP
FC
64
64
64
E4
04
1C
18
ENDCHAR
STARTCHAR 014C
ENCODING 332
SWIDTH 720 0
DWIDTH 8 0
BBX 8 9 0 0
BITMAP
3C
18
66
43
C3
C3
43
62
3C
ENDCHAR
STARTCHAR 014D
ENCODING 333
SWIDTH 540 0
DWIDTH 6 0
BBX 6 7 0 0
BITMAP
78
00
78
4C
CC
4C
78
ENDCHAR
STARTCHAR 014E
ENCODING 334
SWIDTH 720 0
DWIDTH 8 0
BBX 8 10 0 0
BITMAP
24
1C
18
66
43
C3
C3
43
62
3C
ENDCHAR
STARTCHAR 014F
ENCODING 335
SWIDTH 540 0
DWIDTH 6 0
BBX 6 8 0 0
BITMAP
48
78
00
78
4C
CC
4C
78
ENDCHAR
STARTCHAR 0150
ENCODING 336
SWIDTH 720 0
DWIDTH 8 0
BBX 8 10 0 0
BITMAP
14
14
18
66
43
C3
C3
43
62
3C
ENDCHAR
STARTCHAR 0151
ENCODING 337
SWIDTH 540 0
DWIDTH 6 0
BBX 6 8 0 0
BITMAP
28
28
00
78
4C
CC
4C
78
ENDCHAR
STARTCHAR 0152
ENCODING 338
SWIDTH 990 0
DWIDTH 11 0
BBX 11 8 0 0
BITMAP
1FC0
6640
4200
C280
C380
4200
6620
3FC0
ENDCHAR
STARTCHAR 0153
ENCODING 339
SWIDTH 810 0
DWIDTH 9 0
BBX 9 5 0 0
BITMAP
7F00
4D80
CF80
4C00
7F80
ENDCHAR
STARTCHAR 0154
ENCODING 340
SWIDTH 630 0
DWIDTH 7 0
BBX 8 10 0 0
BITMAP
08
10
F8
66
66
66
78
6C
64
77
ENDCHAR
STARTCHAR 0155
ENCODING 341
SWIDTH 450 0
DWIDTH 5 0
BBX 5 8 0 0
BITMAP
10
20
00
F8
68
60
60
F0
ENDCHAR
STARTCHAR 0156
ENCODING 342
SWIDTH 630 0
DWIDTH 7 0
BBX 8 11 0 -3
BITMAP
F8
66
66
66
78
6C
64
77
08
18
08
ENDCHAR
STARTCHAR 0157
ENCODING 343
SWIDTH 450 0
DWIDTH 5 0
BBX 5 8 0 -3
BITMAP
F8
68
60
60
F0
20
60
20
ENDCHAR
STARTCHAR 0158
ENCODING 344
SWIDTH 630 0
DWIDTH 7 0
BBX 8 10 0 0
BITMAP
28
10
F8
66
66
66
78
6C
64
77
ENDCHAR
STARTCHAR 0159
ENCODING 345
SWIDTH 450 0
DWIDTH 5 0
BBX 5 8 0 0
BITMAP
48
30
00
F8
68
60
60
F0
ENDCHAR
STARTCHAR 015A
ENCODING 346
SWIDTH 540 0
DWIDTH 6 0
BBX 5 10 1 0
BITMAP
20
20
60
90
90
E0
70
18
98
F0
ENDCHAR
STARTCHAR 015B
ENCODING 347
SWIDTH 450 0
DWIDTH 5 0
BBX 5 8 0 0
BITMAP
10
20
00
70
C0
70
98
F0
ENDCHAR
STARTCHAR 015C
ENCODING 348
SWIDTH 540 0
DWIDTH 6 0
BBX 5 10 1 0
BITMAP
20
D0
60
90
90
E0
70
18
98
F0
ENDCHAR
STARTCHAR 015D
ENCODING 349
SWIDTH 450 0
DWIDTH 5 0
BBX 5 8 0 0
BITMAP
20
50
00
70
C0
70
98
F0
ENDCHAR
STARTCHAR 015E
ENCODING 350
SWIDTH 540 0
DWIDTH 6 0
BBX 5 11 1 -3
BITMAP
60
90
90
E0
70
18
98
F0
40
20
40
ENDCHAR
STARTCHAR 015F
ENCODING 351
SWIDTH 450 0
DWIDTH 5 0
BBX 5 8 0 -3
BITMAP
70
C0
70
98
F0
40
20
20
ENDCHAR
STARTCHAR 0160
ENCODING 352
SWIDTH 540 0
DWIDTH 6 0
BBX 5 10 1 0
BITMAP
90
60
60
90
90
E0
70
18
98
F0
ENDCHAR
STARTCHAR 0161
ENCODING 353
SWIDTH 450 0
DWIDTH 5 0
BBX 5 8 0 0
BITMAP
58
60
00
70
C0
70
98
F0
ENDCHAR
STARTCHAR 0162
ENCODING 354
SWIDTH 630 0
DWIDTH 7 0
BBX 7 11 0 -3
BITMAP
7E
D2
12
10
10
10
10
38
10
08
10
ENDCHAR
STARTCHAR 0163
ENCODING 355
SWIDTH 360 0
DWIDTH 4 0
BBX 4 10 0 -3
BITMAP
20
60
F0
60
60
60
70
40
20
20
ENDCHAR
STARTCHAR 0164
ENCODING 356
SWIDTH 630 0
DWIDTH 7 0
BBX 7 10 0 0
BITMAP
28
10
7E
D2
12
10
10
10
10
38
ENDCHAR
STARTCHAR 0165
ENCODING 357
SWIDTH 450 0
DWIDTH 5 0
BBX 6 8 0 0
BITMAP
0C
24
68
F0
60
60
60
70
ENDCHAR
STARTCHAR 0166
ENCODING 358
SWIDTH 630 0
DWIDTH 7 0
BBX 7 8 0 0
BITMAP
7E
D2
12
10
7C
10
10
38
ENDCHAR
STARTCHAR 0167
ENCODING 359
SWIDTH 360 0
DWIDTH 4 0
BBX 4 7 0 0
BITMAP
20
60
F0
60
E0
60
70
ENDCHAR
STARTCHAR 0168
ENCODING 360
SWIDTH 630 0
DWIDTH 7 0
BBX 7 10 0 0
BITMAP
10
2C
F6
62
64
64
64
64
64
3C
ENDCHAR
STARTCHAR 0169
ENCODING 361
SWIDTH 540 0
DWIDTH 6 0
BBX 6 8 0 0
BITMAP
20
58
00
DC
4C
4C
6C
7C
ENDCHAR
STARTCHAR 016A
ENCODING 362
SWIDTH 630 0
DWIDTH 7 0
BBX 7 9 0 0
BITMAP
3C
F6
62
64
64
64
64
64
3C
ENDCHAR
STARTCHAR 016B
ENCODING 363
SWIDTH 540 0
DWIDTH 6 0
BBX 6 7 0 0
BITMAP
78
00
DC
4C
4C
6C
7C
ENDCHAR
STARTCHAR 016C
ENCODING 364
SWIDTH 630 0
DWIDTH 7 0
BBX 7 10 0 0
BITMAP
24
1C
F6
62
64
64
64
64
64
3C
ENDCHAR
STARTCHAR 016D
ENCODING 365
SWIDTH 540 0
DWIDTH 6 0
BBX 6 8 0 0
BITMAP
40
38
00
DC
4C
4C
6C
7C
ENDCHAR
STARTCHAR 016E
ENCODING 366
SWIDTH 630 0
DWIDTH 7 0
BBX 7 10 0 0
BITMAP
18
18
F6
62
64
64
64
64
64
3C
ENDCHAR
STARTCHAR 016F
ENCODING 367
SWIDTH 540 0
DWIDTH 6 0
BBX 6 8 0 0
BITMAP
38
28
10
DC
4C
4C
6C
7C
ENDCHAR
STARTCHAR 0170
ENCODING 368
SWIDTH 630 0
DWIDTH 7 0
BBX 7 10 0 0
BITMAP
1E
14
F6
62
64
64
64
64
64
3C
ENDCHAR
STARTCHAR 0171
ENCODING 369
SWIDTH 540 0
DWIDTH 6 0
BBX 6 8 0 0
BITMAP
3C
28
00
DC
4C
4C
6C
7C
ENDCHAR
STARTCHAR 0172
ENCODING 370
SWIDTH 630 0
DWIDTH 7 0
BBX 7 11 0 -3
BITMAP
F6
62
64
64
64
64
64
3C
08
18
08
ENDCHAR
STARTCHAR 0173
ENCODING 371
SWIDTH 540 0
DWIDTH 6 0
BBX 6 8 0 -3
BITMAP
DC
4C
4C
6C
7C
08
08
0C
ENDCHAR
STARTCHAR 0174
ENCODING 372
SWIDTH 990 0
DWIDTH 11 0
BBX 11 10 0 0
BITMAP
0600
0B00
E0E0
6640
6640
6A40
3B80
3B80
3180
1100
ENDCHAR
STARTCHAR 0175
ENCODING 373
SWIDTH 720 0
DWIDTH 8 0
BBX 9 8 0 0
BITMAP
0C00
1600
0000
E980
6D00
7600
3600
2600
ENDCHAR
STARTCHAR 0176
ENCODING 374
SWIDTH 630 0
DWIDTH 7 0
BBX 7 10 0 0
BITMAP
18
2C
E6
64
64
38
38
10
10
38
ENDCHAR
STARTCHAR 0177
ENCODING 375
SWIDTH 540 0
DWIDTH 6 0
BBX 6 11 0 -3
BITMAP
10
28
00
EC
68
28
30
30
10
E0
40
ENDCHAR
STARTCHAR 0178
ENCODING 376
SWIDTH 630 0
DWIDTH 7 0
BBX 7 10 0 0
BITMAP
24
3C
E6
64
64
38
38
10
10
38
ENDCHAR
STARTCHAR 0179
ENCODING 377
SWIDTH 540 0
DWIDTH 6 0
BBX 6 10 0 0
BITMAP
18
10
7C
4C
58
18
30
30
64
FC
ENDCHAR
STARTCHAR 017A
ENCODING 378
SWIDTH 450 0
DWIDTH 5 0
BBX 4 8 1 0
BITMAP
20
40
00
F0
A0
60
D0
F0
ENDCHAR
STARTCHAR 017B
ENCODING 379
SWIDTH 540 0
DWIDTH 6 0
BBX 6 10 0 0
BITMAP
10
10
7C
4C
58
18
30
30
64
FC
ENDCHAR
STARTCHAR 017C
ENCODING 380
SWIDTH 450 0
DWIDTH 5 0
BBX 4 7 1 0
BITMAP
60
00
F0
A0
60
D0
F0
ENDCHAR
STARTCHAR 017D
ENCODING 381
SWIDTH 540 0
DWIDTH 6 0
BBX 6 10 0 0
BITMAP
28
10
7C
4C
58
18
30
30
64
FC
ENDCHAR
STARTCHAR 017E
ENCODING 382
SWIDTH 450 0
DWIDTH 5 0
BBX 4 8 1 0
BITMAP
90
60
00
F0
A0
60
D0
F0
ENDCHAR
STARTCHAR 017F
ENCODING 383
SWIDTH 360 0
DWIDTH 4 0
BBX 5 8 0 0
BITMAP
38
68
60
E0
60
60
60
F0
ENDCHAR
STARTCHAR 018E
ENCODING 398
SWIDTH 540 0
DWIDTH 6 0
BBX 6 8 0 0
BITMAP
7C
4C
4C
2C
3C
0C
8C
7C
ENDCHAR
STARTCHAR 018F
ENCODING 399
SWIDTH 630 0
DWIDTH 7 0
BBX 7 8 0 0
BITMAP
30
4C
46
06
FE
46
44
38
ENDCHAR
STARTCHAR 0192
ENCODING 402
SWIDTH 360 0
DWIDTH 4 0
BBX 8 11 -2 -3
BITMAP
07
08
08
3C
18
18
10
10
10
B0
E0
ENDCHAR
STARTCHAR 019D
ENCODING 413
SWIDTH 720 0
DWIDTH 8 0
BBX 9 11 -1 -3
BITMAP
7380
3100
3900
2D00
2F00
2700
2300
2100
2000
E000
C000
ENDCHAR
STARTCHAR 01A0
ENCODING 416
SWIDTH 720 0
DWIDTH 8 0
BBX 8 9 0 0
BITMAP
01
1B
66
43
C3
C3
43
62
3C
ENDCHAR
STARTCHAR 01A1
ENCODING 417
SWIDTH 540 0
DWIDTH 6 0
BBX 6 6 0 0
BITMAP
04
78
4C
CC
4C
78
ENDCHAR
STARTCHAR 01AF
ENCODING 431
SWIDTH 720 0
DWIDTH 8 0
BBX 8 9 0 0
BITMAP
01
F7
62
64
64
64
64
64
3C
ENDCHAR
STARTCHAR 01B0
ENCODING 432
SWIDTH 630 0
DWIDTH 7 0
BBX 7 6 0 0
BITMAP
02
DC
4C
4C
6C
7C
ENDCHAR
STARTCHAR 01B7
ENCODING 439
SWIDTH 540 0
DWIDTH 6 0
BBX 5 8 1 0
BITMAP
F8
98
B0
60
38
18
98
F0
ENDCHAR
STARTCHAR 01C4
ENCODING 452
SWIDTH 1260 0
DWIDTH 14 0
BBX 14 10 0 0
BITMAP
0028
0010
F07C
6E4C
6348
6318
6330
6330
6264
7C7C
ENDCHAR
STARTCHAR 01C5
ENCODING 453
SWIDTH 1170 0
DWIDTH 13 0
BBX 13 8 0 0
BITMAP
F048
6E30
6300
6378
6358
6330
6268
7C78
ENDCHAR
STARTCHAR 01C6
ENCODING 454
SWIDTH 1080 0
DWIDTH 12 0
BBX 12 8 0 0
BITMAP
1C90
0C60
0C00
7DF0
4D60
CC60
CCD0
7DF0
ENDCHAR
STARTCHAR 01C7
ENCODING 455
SWIDTH 900 0
DWIDTH 10 0
BBX 10 10 0 -3
BITMAP
F1C0
60C0
60C0
60C0
60C0
60C0
64C0
7C80
0080
0180
ENDCHAR
STARTCHAR 01C8
ENCODING 456
SWIDTH 900 0
DWIDTH 10 0
BBX 9 11 0 -3
BITMAP
F080
6080
6000
6180
6080
6080
6480
7C80
0080
0180
0100
ENDCHAR
STARTCHAR 01C9
ENCODING 457
SWIDTH 630 0
DWIDTH 7 0
BBX 7 11 0 -3
BITMAP
E4
66
60
6E
66
66
66
E6
04
0C
08
ENDCHAR
STARTCHAR 01CA
ENCODING 458
SWIDTH 1080 0
DWIDTH 12 0
BBX 12 11 0 -3
BITMAP
E7F0
6260
7260
5A60
5E60
4E60
4660
E260
0060
0040
0080
ENDCHAR
STARTCHAR 01CB
ENCODING 459
SWIDTH 990 0
DWIDTH 11 0
BBX 11 11 0 -3
BITMAP
E760
6260
7200
5AE0
5E60
4E60
4660
E260
0060
0040
0080
ENDCHAR
STARTCHAR 01CC
ENCODING 460
SWIDTH 900 0
DWIDTH 10 0
BBX 10 10 0 -3
BITMAP
0040
00C0
0000
FCC0
64C0
64C0
64C0
EEC0
00C0
0080
ENDCHAR
STARTCHAR 01CD
ENCODING 461
SWIDTH 630 0
DWIDTH 7 0
BBX 8 10 0 0
BITMAP
24
18
10
18
18
2C
2C
7C
46
C7
ENDCHAR
STARTCHAR 01CE
ENCODING 462
SWIDTH 540 0
DWIDTH 6 0
BBX 5 8 1 0
BITMAP
90
60
00
70
90
70
90
F8
ENDCHAR
STARTCHAR 01CF
ENCODING 463
SWIDTH 360 0
DWIDTH 4 0
BBX 4 10 0 0
BITMAP
50
60
F0
60
60
60
60
60
60
70
ENDCHAR
STARTCHAR 01D0
ENCODING 464
SWIDTH 270 0
DWIDTH 3 0
BBX 4 8 0 0
BITMAP
90
60
00
E0
60
60
60
F0
ENDCHAR
STARTCHAR 01D1
ENCODING 465
SWIDTH 720 0
DWIDTH 8 0
BBX 8 10 0 0
BITMAP
24
18
18
66
43
C3
C3
43
62
3C
ENDCHAR
STARTCHAR 01D2
ENCODING 466
SWIDTH 540 0
DWIDTH 6 0
BBX 6 8 0 0
BITMAP
48
30
00
78
4C
CC
4C
78
ENDCHAR
STARTCHAR 01D3
ENCODING 467
SWIDTH 630 0
DWIDTH 7 0
BBX 7 10 0 0
BITMAP
34
18
F6
62
64
64
64
64
64
3C
ENDCHAR
STARTCHAR 01D4
ENCODING 468
SWIDTH 540 0
DWIDTH 6 0
BBX 6 8 0 0
BITMAP
48
30
00
DC
4C
4C
6C
7C
ENDCHAR
STARTCHAR 01D5
ENCODING 469
SWIDTH 630 0
DWIDTH 7 0
BBX 7 11 0 0
BITMAP
3C
14
34
F6
62
64
64
64
64
64
3C
ENDCHAR
STARTCHAR 01D6
ENCODING 470
SWIDTH 540 0
DWIDTH 6 0
BBX 6 9 0 0
BITMAP
78
00
68
00
DC
4C
4C
6C
7C
ENDCHAR
STARTCHAR 01D7
ENCODING 471
SWIDTH 630 0
DWIDTH 7 0
BBX 7 12 0 0
BITMAP
0C
08
14
34
F6
62
64
64
64
64
64
3C
ENDCHAR
STARTCHAR 01D8
ENCODING 472
SWIDTH 540 0
DWIDTH 6 0
BBX 6 9 0 0
BITMAP
10
00
68
00
DC
4C
4C
6C
7C
ENDCHAR
STARTCHAR 01D9
ENCODING 473
SWIDTH 630 0
DWIDTH 7 0
BBX 7 12 0 0
BITMAP
24
18
14
34
F6
62
64
64
64
64
64
3C
ENDCHAR
STARTCHAR 01DA
ENCODING 474
SWIDTH 540 0
DWIDTH 6 0
BBX 6 9 0 0
BITMAP
38
00
68
00
DC
4C
4C
6C
7C
ENDCHAR
STARTCHAR 01DB
ENCODING 475
SWIDTH 630 0
DWIDTH 7 0
BBX 7 12 0 0
BITMAP
10
08
14
34
F6
62
64
64
64
64
64
3C
ENDCHAR
STARTCHAR 01DC
ENCODING 476
SWIDTH 540 0
DWIDTH 6 0
BBX 6 9 0 0
BITMAP
30
00
68
00
DC
4C
4C
6C
7C
ENDCHAR
STARTCHAR 01DD
ENCODING 477
SWIDTH 450 0
DWIDTH 5 0
BBX 5 5 0 0
BITMAP
78
18
F8
48
70
ENDCHAR
STARTCHAR 01E4
ENCODING 484
SWIDTH 630 0
DWIDTH 7 0
BBX 8 8 0 0
BITMAP
18
66
42
C0
C6
46
6F
3E
ENDCHAR
STARTCHAR 01E5
ENCODING 485
SWIDTH 540 0
DWIDTH 6 0
BBX 6 8 0 -3
BITMAP
7C
C8
48
70
78
7C
FC
70
ENDCHAR
STARTCHAR 01E6
ENCODING 486
SWIDTH 630 0
DWIDTH 7 0
BBX 7 10 0 0
BITMAP
34
18
18
66
42
C0
C6
46
66
3E
ENDCHAR
STARTCHAR 01E7
ENCODING 487
SWIDTH 540 0
DWIDTH 6 0
BBX 6 11 0 -3
BITMAP
48
30
00
7C
C8
48
70
78
7C
C8
70
ENDCHAR
STARTCHAR 01E8
ENCODING 488
SWIDTH 720 0
DWIDTH 8 0
BBX 8 10 0 0
BITMAP
24
18
F6
64
68
70
78
6C
66
77
ENDCHAR
STARTCHAR 01E9
ENCODING 489
SWIDTH 540 0
DWIDTH 6 0
BBX 7 10 0 0
BITMAP
28
10
E0
60
60
6C
68
78
6C
E6
ENDCHAR
STARTCHAR 01EA
ENCODING 490
SWIDTH 720 0
DWIDTH 8 0
BBX 8 11 0 -3
BITMAP
18
66
43
C3
C3
43
62
3C
08
18
0C
ENDCHAR
STARTCHAR 01EB
ENCODING 491
SWIDTH 540 0
DWIDTH 6 0
BBX 6 8 0 -3
BITMAP
78
4C
CC
4C
78
20
20
30
ENDCHAR
STARTCHAR 01EE
ENCODING 494
SWIDTH 540 0
DWIDTH 6 0
BBX 5 10 1 0
BITMAP
D0
60
F8
98
B0
60
38
18
98
F0
ENDCHAR
STARTCHAR 01EF
ENCODING 495
SWIDTH 450 0
DWIDTH 5 0
BBX 4 11 1 -3
BITMAP
90
60
00
F0
B0
60
60
30
10
B0
E0
ENDCHAR
STARTCHAR 01F1
ENCODING 497
SWIDTH 1260 0
DWIDTH 14 0
BBX 14 8 0 0
BITMAP
F07C
6E4C
6348
6318
6330
6330
6264
7C7C
ENDCHAR
STARTCHAR 01F2
ENCODING 498
SWIDTH 1170 0
DWIDTH 13 0
BBX 13 8 0 0
BITMAP
F000
6E00
6300
6378
6358
6330
6268
7C78
ENDCHAR
STARTCHAR 01F3
ENCODING 499
SWIDTH 1080 0
DWIDTH 12 0
BBX 12 8 0 0
BITMAP
1C00
0C00
0C00
7DF0
4D60
CC60
CCD0
7DF0
ENDCHAR
STARTCHAR 01FA
ENCODING 506
SWIDTH 630 0
DWIDTH 7 0
BBX 8 12 0 0
BITMAP
08
00
18
18
10
18
18
2C
2C
7C
46
C7
ENDCHAR
STARTCHAR 01FB
ENCODING 507
SWIDTH 540 0
DWIDTH 6 0
BBX 5 10 1 0
BITMAP
20
40
00
E0
40
70
90
70
90
F8
ENDCHAR
STARTCHAR 01FC
ENCODING 508
SWIDTH 900 0
DWIDTH 10 0
BBX 10 10 0 0
BITMAP
0200
0000
1FC0
0E40
1600
1680
3F80
2680
4640
EFC0
ENDCHAR
STARTCHAR 01FD
ENCODING 509
SWIDTH 720 0
DWIDTH 8 0
BBX 8 8 0 0
BITMAP
0C
08
00
7E
5B
7E
D8
6E
ENDCHAR
STARTCHAR 01FE
ENCODING 510
SWIDTH 720 0
DWIDTH 8 0
BBX 8 10 0 0
BITMAP
08
08
19
66
47
CB
DB
53
62
7C
ENDCHAR
STARTCHAR 01FF
ENCODING 511
SWIDTH 540 0
DWIDTH 6 0
BBX 6 8 0 0
BITMAP
18
10
00
7C
5C
DC
6C
78
ENDCHAR
STARTCHAR 0200
ENCODING 512
SWIDTH 630 0
DWIDTH 7 0
BBX 8 10 0 0
BITMAP
28
28
10
18
18
2C
2C
7C
46
C7
ENDCHAR
STARTCHAR 0201
ENCODING 513
SWIDTH 540 0
DWIDTH 6 0
BBX 5 8 1 0
BITMAP
A0
A0
00
70
90
70
90
F8
ENDCHAR
STARTCHAR 0202
ENCODING 514
SWIDTH 630 0
DWIDTH 7 0
BBX 8 10 0 0
BITMAP
18
24
10
18
18
2C
2C
7C
46
C7
ENDCHAR
STARTCHAR 0203
ENCODING 515
SWIDTH 540 0
DWIDTH 6 0
BBX 5 8 1 0
BITMAP
E0
90
00
70
90
70
90
F8
ENDCHAR
STARTCHAR 0204
ENCODING 516
SWIDTH 540 0
DWIDTH 6 0
BBX 7 10 0 0
BITMAP
50
28
FC
64
60
68
78
60
62
7C
ENDCHAR
STARTCHAR 0205
ENCODING 517
SWIDTH 450 0
DWIDTH 5 0
BBX 5 8 0 0
BITMAP
50
28
00
78
48
F8
40
78
ENDCHAR
STARTCHAR 0206
ENCODING 518
SWIDTH 540 0
DWIDTH 6 0
BBX 7 10 0 0
BITMAP
30
08
FC
64
60
68
78
60
62
7C
ENDCHAR
STARTCHAR 0207
ENCODING 519
SWIDTH 450 0
DWIDTH 5 0
BBX 5 8 0 0
BITMAP
30
48
00
78
48
F8
40
78
ENDCHAR
STARTCHAR 0208
ENCODING 520
SWIDTH 360 0
DWIDTH 4 0
BBX 4 10 0 0
BITMAP
A0
60
F0
60
60
60
60
60
60
70
ENDCHAR
STARTCHAR 0209
ENCODING 521
SWIDTH 270 0
DWIDTH 3 0
BBX 4 8 0 0
BITMAP
A0
A0
00
E0
60
60
60
F0
ENDCHAR
STARTCHAR 020A
ENCODING 522
SWIDTH 360 0
DWIDTH 4 0
BBX 4 10 0 0
BITMAP
60
90
F0
60
60
60
60
60
60
70
ENDCHAR
STARTCHAR 020B
ENCODING 523
SWIDTH 270 0
DWIDTH 3 0
BBX 4 8 0 0
BITMAP
60
90
00
E0
60
60
60
F0
ENDCHAR
STARTCHAR 020C
ENCODING 524
SWIDTH 720 0
DWIDTH 8 0
BBX 8 10 0 0
BITMAP
28
18
18
66
43
C3
C3
43
62
3C
ENDCHAR
STARTCHAR 020D
ENCODING 525
SWIDTH 540 0
DWIDTH 6 0
BBX 6 8 0 0
BITMAP
50
28
00
78
4C
CC
4C
78
ENDCHAR
STARTCHAR 020E
ENCODING 526
SWIDTH 720 0
DWIDTH 8 0
BBX 8 10 0 0
BITMAP
18
24
18
66
43
C3
C3
43
62
3C
ENDCHAR
STARTCHAR 020F
ENCODING 527
SWIDTH 540 0
DWIDTH 6 0
BBX 6 8 0 0
BITMAP
38
48
00
78
4C
CC
4C
78
ENDCHAR
STARTCHAR 0210
ENCODING 528
SWIDTH 630 0
DWIDTH 7 0
BBX 8 9 0 1
BITMAP
28
F8
66
66
66
78
6C
64
77
ENDCHAR
STARTCHAR 0211
ENCODING 529
SWIDTH 450 0
DWIDTH 5 0
BBX 5 8 0 0
BITMAP
50
50
00
F8
68
60
60
F0
ENDCHAR
STARTCHAR 0212
ENCODING 530
SWIDTH 630 0
DWIDTH 7 0
BBX 8 10 0 0
BITMAP
18
28
F8
66
66
66
78
6C
64
77
ENDCHAR
STARTCHAR 0213
ENCODING 531
SWIDTH 450 0
DWIDTH 5 0
BBX 5 8 0 0
BITMAP
70
48
00
F8
68
60
60
F0
ENDCHAR
STARTCHAR 0214
ENCODING 532
SWIDTH 630 0
DWIDTH 7 0
BBX 7 10 0 0
BITMAP
28
14
F6
62
64
64
64
64
64
3C
ENDCHAR
STARTCHAR 0215
ENCODING 533
SWIDTH 540 0
DWIDTH 6 0
BBX 6 8 0 0
BITMAP
78
28
00
DC
4C
4C
6C
7C
ENDCHAR
STARTCHAR 0216
ENCODING 534
SWIDTH 630 0
DWIDTH 7 0
BBX 7 10 0 0
BITMAP
18
24
F6
62
64
64
64
64
64
3C
ENDCHAR
STARTCHAR 0217
ENCODING 535
SWIDTH 540 0
DWIDTH 6 0
BBX 6 8 0 0
BITMAP
38
48
00
DC
4C
4C
6C
7C
ENDCHAR
STARTCHAR 0218
ENCODING 536
SWIDTH 540 0
DWIDTH 6 0
BBX 5 11 1 -3
BITMAP
60
90
90
E0
70
18
98
F0
20
60
20
ENDCHAR
STARTCHAR 0219
ENCODING 537
SWIDTH 450 0
DWIDTH 5 0
BBX 5 8 0 -3
BITMAP
70
C0
70
98
F0
00
20
20
ENDCHAR
STARTCHAR 021A
ENCODING 538
SWIDTH 630 0
DWIDTH 7 0
BBX 7 11 0 -3
BITMAP
7E
D2
12
10
10
10
10
38
00
10
10
ENDCHAR
STARTCHAR 021B
ENCODING 539
SWIDTH 360 0
DWIDTH 4 0
BBX 4 10 0 -3
BITMAP
20
60
F0
60
60
60
70
00
20
20
ENDCHAR
STARTCHAR 021C
ENCODING 540
SWIDTH 540 0
DWIDTH 6 0
BBX 5 10 1 -2
BITMAP
60
90
98
10
60
18
18
18
10
E0
ENDCHAR
STARTCHAR 021D
ENCODING 541
SWIDTH 450 0
DWIDTH 5 0
BBX 4 8 1 -3
BITMAP
F0
B0
30
E0
30
10
30
E0
ENDCHAR
STARTCHAR 021E
ENCODING 542
SWIDTH 720 0
DWIDTH 8 0
BBX 8 10 0 0
BITMAP
34
18
F7
62
62
62
7E
62
62
77
ENDCHAR
STARTCHAR 021F
ENCODING 543
SWIDTH 630 0
DWIDTH 7 0
BBX 7 10 0 0
BITMAP
68
30
E0
60
60
7C
64
64
64
EE
ENDCHAR
STARTCHAR 0228
ENCODING 552
SWIDTH 540 0
DWIDTH 6 0
BBX 7 11 0 -3
BITMAP
FC
64
60
68
78
60
62
7C
10
10
10
ENDCHAR
STARTCHAR 0229
ENCODING 553
SWIDTH 450 0
DWIDTH 5 0
BBX 5 8 0 -3
BITMAP
78
48
F8
40
78
20
10
20
ENDCHAR
STARTCHAR 022A
ENCODING 554
SWIDTH 720 0
DWIDTH 8 0
BBX 8 11 0 0
BITMAP
3C
24
34
18
66
43
C3
C3
43
62
3C
ENDCHAR
STARTCHAR 022B
ENCODING 555
SWIDTH 540 0
DWIDTH 6 0
BBX 6 9 0 0
BITMAP
78
00
68
00
78
4C
CC
4C
78
ENDCHAR
STARTCHAR 022C
ENCODING 556
SWIDTH 720 0
DWIDTH 8 0
BBX 8 11 0 0
BITMAP
3C
10
2C
18
66
43
C3
C3
43
62
3C
ENDCHAR
STARTCHAR 022D
ENCODING 557
SWIDTH 540 0
DWIDTH 6 0
BBX 6 9 0 0
BITMAP
78
00
78
00
78
4C
CC
4C
78
ENDCHAR
STARTCHAR 0230
ENCODING 560
SWIDTH 720 0
DWIDTH 8 0
BBX 8 11 0 0
BITMAP
3C
08
18
18
66
43
C3
C3
43
62
3C
ENDCHAR
STARTCHAR 0231
ENCODING 561
SWIDTH 540 0
DWIDTH 6 0
BBX 6 8 0 0
BITMAP
38
30
00
78
4C
CC
4C
78
ENDCHAR
STARTCHAR 0232
ENCODING 562
SWIDTH 630 0
DWIDTH 7 0
BBX 7 9 0 0
BITMAP
3C
E6
64
64
38
38
10
10
38
ENDCHAR
STARTCHAR 0233
ENCODING 563
SWIDTH 540 0
DWIDTH 6 0
BBX 6 10 0 -3
BITMAP
7C
00
EC
68
28
30
30
10
E0
40
ENDCHAR
STARTCHAR 0237
ENCODING 567
SWIDTH 270 0
DWIDTH 3 0
BBX 3 8 0 -3
BITMAP
E0
60
60
60
60
60
40
80
ENDCHAR
STARTCHAR 0258
ENCODING 600
SWIDTH 450 0
DWIDTH 5 0
BBX 5 5 0 0
BITMAP
78
C8
78
08
70
ENDCHAR
STARTCHAR 0259
ENCODING 601
SWIDTH 450 0
DWIDTH 5 0
BBX 5 5 0 0
BITMAP
78
18
F8
48
70
ENDCHAR
STARTCHAR 0272
ENCODING 626
SWIDTH 630 0
DWIDTH 7 0
BBX 7 8 0 -3
BITMAP
FC
64
64
64
6E
60
40
80
ENDCHAR
STARTCHAR 0292
ENCODING 658
SWIDTH 450 0
DWIDTH 5 0
BBX 4 8 1 -3
BITMAP
F0
B0
60
60
30
10
B0
E0
ENDCHAR
STARTCHAR 02B9
ENCODING 697
SWIDTH 270 0
DWIDTH 3 0
BBX 2 3 1 5
BITMAP
C0
80
80
ENDCHAR
STARTCHAR 02BA
ENCODING 698
SWIDTH 450 0
DWIDTH 5 0
BBX 4 3 1 5
BITMAP
F0
A0
A0
ENDCHAR
STARTCHAR 02BB
ENCODING 699
SWIDTH 270 0
DWIDTH 3 0
BBX 1 3 1 5
BITMAP
80
80
80
ENDCHAR
STARTCHAR 02BC
ENCODING 700
SWIDTH 270 0
DWIDTH 3 0
BBX 2 3 1 5
BITMAP
C0
80
80
ENDCHAR
STARTCHAR 02BE
ENCODING 702
SWIDTH 180 0
DWIDTH 2 0
BBX 2 3 0 5
BITMAP
C0
40
C0
ENDCHAR
STARTCHAR 02BF
ENCODING 703
SWIDTH 180 0
DWIDTH 2 0
BBX 2 3 0 5
BITMAP
40
C0
40
ENDCHAR
STARTCHAR 02C6
ENCODING 710
SWIDTH 270 0
DWIDTH 3 0
BBX 3 2 0 6
BITMAP
40
A0
ENDCHAR
STARTCHAR 02C7
ENCODING 711
SWIDTH 270 0
DWIDTH 3 0
BBX 4 2 0 6
BITMAP
90
60
ENDCHAR
STARTCHAR 02C8
ENCODING 712
SWIDTH 180 0
DWIDTH 2 0
BBX 1 3 1 5
BITMAP
80
80
80
ENDCHAR
STARTCHAR 02C9
ENCODING 713
SWIDTH 450 0
DWIDTH 5 0
BBX 4 1 1 6
BITMAP
F0
ENDCHAR
STARTCHAR 02CA
ENCODING 714
SWIDTH 270 0
DWIDTH 3 0
BBX 2 2 2 6
BITMAP
C0
80
ENDCHAR
STARTCHAR 02CB
ENCODING 715
SWIDTH 270 0
DWIDTH 3 0
BBX 2 2 2 6
BITMAP
80
40
ENDCHAR
STARTCHAR 02CC
ENCODING 716
SWIDTH 180 0
DWIDTH 2 0
BBX 1 3 1 -2
BITMAP
80
80
80
ENDCHAR
STARTCHAR 02D8
ENCODING 728
SWIDTH 270 0
DWIDTH 3 0
BBX 4 2 0 6
BITMAP
90
E0
ENDCHAR
STARTCHAR 02D9
ENCODING 729
SWIDTH 270 0
DWIDTH 3 0
BBX 2 1 1 6
BITMAP
C0
ENDCHAR
STARTCHAR 02DA
ENCODING 730
SWIDTH 270 0
DWIDTH 3 0
BBX 3 2 0 6
BITMAP
60
E0
ENDCHAR
STARTCHAR 02DB
ENCODING 731
SWIDTH 270 0
DWIDTH 3 0
BBX 2 3 0 -3
BITMAP
40
C0
40
ENDCHAR
STARTCHAR 02DC
ENCODING 732
SWIDTH 270 0
DWIDTH 3 0
BBX 3 1 0 7
BITMAP
E0
ENDCHAR
STARTCHAR 02DD
ENCODING 733
SWIDTH 270 0
DWIDTH 3 0
BBX 3 2 0 6
BITMAP
A0
A0
ENDCHAR
STARTCHAR 0300
ENCODING 768
SWIDTH 0 0
DWIDTH 0 0
BBX 2 2 1 6
BITMAP
80
40
ENDCHAR
STARTCHAR 0301
ENCODING 769
SWIDTH 0 0
DWIDTH 0 0
BBX 1 2 1 6
BITMAP
80
80
ENDCHAR
STARTCHAR 0302
ENCODING 770
SWIDTH 0 0
DWIDTH 0 0
BBX 3 2 1 6
BITMAP
40
A0
ENDCHAR
STARTCHAR 0303
ENCODING 771
SWIDTH 0 0
DWIDTH 0 0
BBX 3 1 1 7
BITMAP
E0
ENDCHAR
STARTCHAR 0304
ENCODING 772
SWIDTH 0 0
DWIDTH 0 0
BBX 4 1 1 6
BITMAP
F0
ENDCHAR
STARTCHAR 0306
ENCODING 774
SWIDTH 0 0
DWIDTH 0 0
BBX 4 2 1 6
BITMAP
10
E0
ENDCHAR
STARTCHAR 0307
ENCODING 775
SWIDTH 0 0
DWIDTH 0 0
BBX 1 1 1 6
BITMAP
80
ENDCHAR
STARTCHAR 0308
ENCODING 776
SWIDTH 0 0
DWIDTH 0 0
BBX 4 1 1 6
BITMAP
B0
ENDCHAR
STARTCHAR 0309
ENCODING 777
SWIDTH 0 0
DWIDTH 0 0
BBX 2 2 1 6
BITMAP
C0
40
ENDCHAR
STARTCHAR 030A
ENCODING 778
SWIDTH 0 0
DWIDTH 0 0
BBX 2 2 1 6
BITMAP
C0
C0
ENDCHAR
STARTCHAR 030B
ENCODING 779
SWIDTH 0 0
DWIDTH 0 0
BBX 3 2 1 6
BITMAP
A0
A0
ENDCHAR
STARTCHAR 030C
ENCODING 780
SWIDTH 0 0
DWIDTH 0 0
BBX 4 2 1 6
BITMAP
90
60
ENDCHAR
STARTCHAR 030F
ENCODING 783
SWIDTH 0 0
DWIDTH 0 0
BBX 4 2 1 6
BITMAP
A0
50
ENDCHAR
STARTCHAR 0311
ENCODING 785
SWIDTH 0 0
DWIDTH 0 0
BBX 4 2 1 6
BITMAP
E0
90
ENDCHAR
STARTCHAR 0312
ENCODING 786
SWIDTH 0 0
DWIDTH 0 0
BBX 1 2 1 6
BITMAP
80
80
ENDCHAR
STARTCHAR 0313
ENCODING 787
SWIDTH 0 0
DWIDTH 0 0
BBX 1 2 1 6
BITMAP
80
80
ENDCHAR
STARTCHAR 031B
ENCODING 795
SWIDTH 0 0
DWIDTH 0 0
BBX 2 2 -1 4
BITMAP
40
80
ENDCHAR
STARTCHAR 0323
ENCODING 803
SWIDTH 0 0
DWIDTH 0 0
BBX 1 1 1 -2
BITMAP
80
ENDCHAR
STARTCHAR 0324
ENCODING 804
SWIDTH 0 0
DWIDTH 0 0
BBX 4 1 1 -2
BITMAP
B0
ENDCHAR
STARTCHAR 0325
ENCODING 805
SWIDTH 0 0
DWIDTH 0 0
BBX 2 2 1 -3
BITMAP
C0
C0
ENDCHAR
STARTCHAR 0326
ENCODING 806
SWIDTH 0 0
DWIDTH 0 0
BBX 1 2 1 -2
BITMAP
80
80
ENDCHAR
STARTCHAR 0327
ENCODING 807
SWIDTH 0 0
DWIDTH 0 0
BBX 1 3 1 -3
BITMAP
80
80
80
ENDCHAR
STARTCHAR 0328
ENCODING 808
SWIDTH 0 0
DWIDTH 0 0
BBX 2 3 1 -3
BITMAP
80
80
C0
ENDCHAR
STARTCHAR 032E
ENCODING 814
SWIDTH 0 0
DWIDTH 0 0
BBX 3 1 1 -2
BITMAP
E0
ENDCHAR
STARTCHAR 0331
ENCODING 817
SWIDTH 0 0
DWIDTH 0 0
BBX 4 1 1 -2
BITMAP
F0
ENDCHAR
STARTCHAR 0335
ENCODING 821
SWIDTH 0 0
DWIDTH 0 0
BBX 3 1 1 3
BITMAP
E0
ENDCHAR
STARTCHAR 0336
ENCODING 822
SWIDTH 0 0
DWIDTH 0 0
BBX 6 1 1 2
BITMAP
FC
ENDCHAR
STARTCHAR 0337
ENCODING 823
SWIDTH 0 0
DWIDTH 0 0
BBX 5 3 1 2
BITMAP
18
60
80
ENDCHAR
STARTCHAR 0338
ENCODING 824
SWIDTH 0 0
DWIDTH 0 0
BBX 5 3 1 2
BITMAP
18
60
80
ENDCHAR
STARTCHAR 0374
ENCODING 884
SWIDTH 270 0
DWIDTH 3 0
BBX 2 3 1 5
BITMAP
C0
80
80
ENDCHAR
STARTCHAR 0375
ENCODING 885
SWIDTH 270 0
DWIDTH 3 0
BBX 2 3 1 -2
BITMAP
40
80
80
ENDCHAR
STARTCHAR 037E
ENCODING 894
SWIDTH 270 0
DWIDTH 3 0
BBX 2 7 1 -2
BITMAP
C0
80
00
00
C0
80
80
ENDCHAR
STARTCHAR 0384
ENCODING 900
SWIDTH 270 0
DWIDTH 3 0
BBX 1 2 1 6
BITMAP
80
80
ENDCHAR
STARTCHAR 0385
ENCODING 901
SWIDTH 270 0
DWIDTH 3 0
BBX 5 2 -1 6
BITMAP
20
F8
ENDCHAR
STARTCHAR 0386
ENCODING 902
SWIDTH 630 0
DWIDTH 7 0
BBX 8 8 0 0
BITMAP
50
58
18
2C
2C
7C
46
C7
ENDCHAR
STARTCHAR 0387
ENCODING 903
SWIDTH 270 0
DWIDTH 3 0
BBX 1 2 1 3
BITMAP
80
80
ENDCHAR
STARTCHAR 0388
ENCODING 904
SWIDTH 540 0
DWIDTH 6 0
BBX 8 8 -1 0
BITMAP
FE
B2
30
34
3C
30
31
3E
ENDCHAR
STARTCHAR 0389
ENCODING 905
SWIDTH 720 0
DWIDTH 8 0
BBX 10 8 -2 0
BITMAP
7DC0
5880
9880
1880
1F80
1880
1880
1DC0
ENDCHAR
STARTCHAR 038A
ENCODING 906
SWIDTH 360 0
DWIDTH 4 0
BBX 6 8 -2 0
BITMAP
7C
58
98
18
18
18
18
1C
ENDCHAR
STARTCHAR 038C
ENCODING 908
SWIDTH 720 0
DWIDTH 8 0
BBX 9 8 -1 0
BITMAP
CC00
B300
A180
6180
6180
2180
3100
1E00
ENDCHAR
STARTCHAR 038E
ENCODING 910
SWIDTH 630 0
DWIDTH 7 0
BBX 9 8 -2 0
BITMAP
F980
9900
9900
0E00
0E00
0400
0400
0E00
ENDCHAR
STARTCHAR 038F
ENCODING 911
SWIDTH 810 0
DWIDTH 9 0
BBX 9 8 0 0
BITMAP
8C00
B300
6300
6100
6100
2300
5280
7780
ENDCHAR
STARTCHAR 0390
ENCODING 912
SWIDTH 270 0
DWIDTH 3 0
BBX 4 8 0 0
BITMAP
20
D0
00
E0
60
60
60
70
ENDCHAR
STARTCHAR 0391
ENCODING 913
SWIDTH 630 0
DWIDTH 7 0
BBX 8 8 0 0
BITMAP
10
18
18
2C
2C
7C
46
C7
ENDCHAR
STARTCHAR 0392
ENCODING 914
SWIDTH 630 0
DWIDTH 7 0
BBX 7 8 0 0
BITMAP
F0
6C
64
6C
7C
66
66
7C
ENDCHAR
STARTCHAR 0393
ENCODING 915
SWIDTH 540 0
DWIDTH 6 0
BBX 6 8 0 0
BITMAP
FC
64
60
60
60
60
60
F0
ENDCHAR
STARTCHAR 0394
ENCODING 916
SWIDTH 630 0
DWIDTH 7 0
BBX 7 8 0 0
BITMAP
10
18
38
28
4C
44
86
FE
ENDCHAR
STARTCHAR 0395
ENCODING 917
SWIDTH 540 0
DWIDTH 6 0
BBX 7 8 0 0
BITMAP
FC
64
60
68
78
60
62
7C
ENDCHAR
STARTCHAR 0396
ENCODING 918
SWIDTH 540 0
DWIDTH 6 0
BBX 6 8 0 0
BITMAP
7C
4C
58
18
30
30
64
FC
ENDCHAR
STARTCHAR 0397
ENCODING 919
SWIDTH 720 0
DWIDTH 8 0
BBX 8 8 0 0
BITMAP
F7
62
62
62
7E
62
62
77
ENDCHAR
STARTCHAR 0398
ENCODING 920
SWIDTH 720 0
DWIDTH 8 0
BBX 8 8 0 0
BITMAP
18
66
43
C3
DB
43
62
3C
ENDCHAR
STARTCHAR 0399
ENCODING 921
SWIDTH 360 0
DWIDTH 4 0
BBX 4 8 0 0
BITMAP
F0
60
60
60
60
60
60
70
ENDCHAR
STARTCHAR 039A
ENCODING 922
SWIDTH 720 0
DWIDTH 8 0
BBX 8 8 0 0
BITMAP
F6
64
68
70
78
6C
66
77
ENDCHAR
STARTCHAR 039B
ENCODING 923
SWIDTH 630 0
DWIDTH 7 0
BBX 7 8 0 0
BITMAP
10
10
18
38
4C
4C
46
CE
ENDCHAR
STARTCHAR 039C
ENCODING 924
SWIDTH 900 0
DWIDTH 10 0
BBX 10 8 0 0
BITMAP
60C0
3180
3180
5280
5A80
4CC0
4CC0
EDC0
ENDCHAR
STARTCHAR 039D
ENCODING 925
SWIDTH 720 0
DWIDTH 8 0
BBX 8 8 0 0
BITMAP
E7
62
72
5A
5E
4E
46
E2
ENDCHAR
STARTCHAR 039E
ENCODING 926
SWIDTH 540 0
DWIDTH 6 0
BBX 6 8 0 0
BITMAP
7C
7C
00
48
38
00
84
7C
ENDCHAR
STARTCHAR 039F
ENCODING 927
SWIDTH 720 0
DWIDTH 8 0
BBX 8 8 0 0
BITMAP
18
66
43
C3
C3
43
62
3C
ENDCHAR
STARTCHAR 03A0
ENCODING 928
SWIDTH 720 0
DWIDTH 8 0
BBX 8 8 0 0
BITMAP
FF
62
62
62
62
62
62
77
ENDCHAR
STARTCHAR 03A1
ENCODING 929
SWIDTH 630 0
DWIDTH 7 0
BBX 7 8 0 0
BITMAP
F0
6C
66
66
6C
60
60
F0
ENDCHAR
STARTCHAR 03A3
ENCODING 931
SWIDTH 540 0
DWIDTH 6 0
BBX 6 8 0 0
BITMAP
7C
64
34
30
18
30
64
FC
ENDCHAR
STARTCHAR 03A4
ENCODING 932
SWIDTH 630 0
DWIDTH 7 0
BBX 7 8 0 0
BITMAP
7E
D2
12
10
10
10
10
38
ENDCHAR
STARTCHAR 03A5
ENCODING 933
SWIDTH 630 0
DWIDTH 7 0
BBX 7 8 0 0
BITMAP
E6
64
64
38
38
10
10
38
ENDCHAR
STARTCHAR 03A6
ENCODING 934
SWIDTH 720 0
DWIDTH 8 0
BBX 8 8 0 0
BITMAP
1C
18
7E
DB
DB
5B
3E
1C
ENDCHAR
STARTCHAR 03A7
ENCODING 935
SWIDTH 630 0
DWIDTH 7 0
BBX 7 8 0 0
BITMAP
F6
66
34
18
18
2C
2C
EE
ENDCHAR
STARTCHAR 03A8
ENCODING 936
SWIDTH 810 0
DWIDTH 9 0
BBX 8 8 1 0
BITMAP
3B
9A
92
92
D6
38
10
38
ENDCHAR
STARTCHAR 03A9
ENCODING 937
SWIDTH 810 0
DWIDTH 9 0
BBX 8 8 1 0
BITMAP
18
66
C6
C2
C2
46
A5
EF
ENDCHAR
STARTCHAR 03AA
ENCODING 938
SWIDTH 360 0
DWIDTH 4 0
BBX 4 10 0 0
BITMAP
90
D0
F0
60
60
60
60
60
60
70
ENDCHAR
STARTCHAR 03AB
ENCODING 939
SWIDTH 630 0
DWIDTH 7 0
BBX 7 10 0 0
BITMAP
24
3C
E6
64
64
38
38
10
10
38
ENDCHAR
STARTCHAR 03AC
ENCODING 940
SWIDTH 630 0
DWIDTH 7 0
BBX 7 8 0 0
BITMAP
10
10
00
76
4C
CC
CC
76
ENDCHAR
STARTCHAR 03AD
ENCODING 941
SWIDTH 360 0
DWIDTH 4 0
BBX 4 8 0 0
BITMAP
30
20
00
70
40
60
C0
70
ENDCHAR
STARTCHAR 03AE
ENCODING 942
SWIDTH 630 0
DWIDTH 7 0
BBX 6 10 0 -3
BITMAP
10
10
00
FC
64
64
64
64
04
04
ENDCHAR
STARTCHAR 03AF
ENCODING 943
SWIDTH 270 0
DWIDTH 3 0
BBX 4 8 0 0
BITMAP
20
20
00
E0
60
60
60
70
ENDCHAR
STARTCHAR 03B0
ENCODING 944
SWIDTH 450 0
DWIDTH 5 0
BBX 5 8 0 0
BITMAP
10
68
00
D8
48
48
48
70
ENDCHAR
STARTCHAR 03B1
ENCODING 945
SWIDTH 630 0
DWIDTH 7 0
BBX 7 5 0 0
BITMAP
76
4C
CC
CC
76
ENDCHAR
STARTCHAR 03B2
ENCODING 946
SWIDTH 540 0
DWIDTH 6 0
BBX 5 10 1 -3
BITMAP
70
98
98
B0
98
98
98
F0
80
80
ENDCHAR
STARTCHAR 03B3
ENCODING 947
SWIDTH 540 0
DWIDTH 6 0
BBX 6 8 0 -3
BITMAP
EC
68
28
30
10
30
30
30
ENDCHAR
STARTCHAR 03B4
ENCODING 948
SWIDTH 540 0
DWIDTH 6 0
BBX 6 8 0 0
BITMAP
38
40
60
38
5C
CC
CC
78
ENDCHAR
STARTCHAR 03B5
ENCODING 949
SWIDTH 360 0
DWIDTH 4 0
BBX 4 5 0 0
BITMAP
70
40
60
C0
70
ENDCHAR
STARTCHAR 03B6
ENCODING 950
SWIDTH 450 0
DWIDTH 5 0
BBX 5 11 0 -3
BITMAP
78
78
30
60
40
C0
60
78
18
18
20
ENDCHAR
STARTCHAR 03B7
ENCODING 951
SWIDTH 630 0
DWIDTH 7 0
BBX 6 7 0 -3
BITMAP
FC
64
64
64
64
04
04
ENDCHAR
STARTCHAR 03B8
ENCODING 952
SWIDTH 540 0
DWIDTH 6 0
BBX 6 8 0 0
BITMAP
38
4C
4C
CC
FC
4C
4C
78
ENDCHAR
STARTCHAR 03B9
ENCODING 953
SWIDTH 270 0
DWIDTH 3 0
BBX 4 5 0 0
BITMAP
E0
60
60
60
70
ENDCHAR
STARTCHAR 03BA
ENCODING 954
SWIDTH 540 0
DWIDTH 6 0
BBX 7 5 0 0
BITMAP
EC
70
78
68
6E
ENDCHAR
STARTCHAR 03BB
ENCODING 955
SWIDTH 540 0
DWIDTH 6 0
BBX 6 8 0 0
BITMAP
60
30
30
30
30
58
58
CC
ENDCHAR
STARTCHAR 03BC
ENCODING 956
SWIDTH 630 0
DWIDTH 7 0
BBX 7 8 0 -3
BITMAP
EC
6C
6C
6C
76
40
40
40
ENDCHAR
STARTCHAR 03BD
ENCODING 957
SWIDTH 450 0
DWIDTH 5 0
BBX 6 5 0 0
BITMAP
CC
68
68
30
30
ENDCHAR
STARTCHAR 03BE
ENCODING 958
SWIDTH 450 0
DWIDTH 5 0
BBX 5 11 0 -3
BITMAP
78
D8
60
40
30
40
C0
78
18
18
20
ENDCHAR
STARTCHAR 03BF
ENCODING 959
SWIDTH 540 0
DWIDTH 6 0
BBX 6 5 0 0
BITMAP
78
4C
CC
4C
78
ENDCHAR
STARTCHAR 03C0
ENCODING 960
SWIDTH 540 0
DWIDTH 6 0
BBX 5 6 1 0
BITMAP
08
F8
50
50
D0
98
ENDCHAR
STARTCHAR 03C1
ENCODING 961
SWIDTH 540 0
DWIDTH 6 0
BBX 6 8 0 -3
BITMAP
78
4C
CC
CC
F8
C0
C0
80
ENDCHAR
STARTCHAR 03C2
ENCODING 962
SWIDTH 450 0
DWIDTH 5 0
BBX 5 8 0 -3
BITMAP
78
C8
C0
60
38
18
18
20
ENDCHAR
STARTCHAR 03C3
ENCODING 963
SWIDTH 630 0
DWIDTH 7 0
BBX 7 6 0 0
BITMAP
02
7E
4C
CC
4C
78
ENDCHAR
STARTCHAR 03C4
ENCODING 964
SWIDTH 360 0
DWIDTH 4 0
BBX 4 6 0 0
BITMAP
10
F0
E0
60
60
30
ENDCHAR
STARTCHAR 03C5
ENCODING 965
SWIDTH 450 0
DWIDTH 5 0
BBX 5 5 0 0
BITMAP
D8
48
48
48
70
ENDCHAR
STARTCHAR 03C6
ENCODING 966
SWIDTH 720 0
DWIDTH 8 0
BBX 8 7 0 -3
BITMAP
6F
49
C9
49
7E
08
08
ENDCHAR
STARTCHAR 03C7
ENCODING 967
SWIDTH 540 0
DWIDTH 6 0
BBX 6 8 0 -3
BITMAP
EC
68
30
30
30
58
58
C8
ENDCHAR
STARTCHAR 03C8
ENCODING 968
SWIDTH 720 0
DWIDTH 8 0
BBX 8 10 0 -3
BITMAP
18
08
08
CB
49
49
69
3E
08
08
ENDCHAR
STARTCHAR 03C9
ENCODING 969
SWIDTH 720 0
DWIDTH 8 0
BBX 8 5 0 0
BITMAP
62
4B
CB
4B
76
ENDCHAR
STARTCHAR 03CA
ENCODING 970
SWIDTH 270 0
DWIDTH 3 0
BBX 4 7 0 0
BITMAP
F0
00
E0
60
60
60
70
ENDCHAR
STARTCHAR 03CB
ENCODING 971
SWIDTH 450 0
DWIDTH 5 0
BBX 5 7 0 0
BITMAP
78
00
D8
48
48
48
70
ENDCHAR
STARTCHAR 03CC
ENCODING 972
SWIDTH 540 0
DWIDTH 6 0
BBX 6 8 0 0
BITMAP
10
10
00
78
4C
CC
4C
78
ENDCHAR
STARTCHAR 03CD
ENCODING 973
SWIDTH 450 0
DWIDTH 5 0
BBX 5 8 0 0
BITMAP
10
20
00
D8
48
48
48
70
ENDCHAR
STARTCHAR 03CE
ENCODING 974
SWIDTH 720 0
DWIDTH 8 0
BBX 8 8 0 0
BITMAP
08
08
00
62
4B
CB
4B
76
ENDCHAR
STARTCHAR 03CF
ENCODING 975
SWIDTH 720 0
DWIDTH 8 0
BBX 8 11 0 -3
BITMAP
F6
64
68
70
78
6C
66
77
04
0C
0C
ENDCHAR
STARTCHAR 03D1
ENCODING 977
SWIDTH 540 0
DWIDTH 6 0
BBX 6 8 0 0
BITMAP
38
4C
6C
6C
1C
EC
6C
78
ENDCHAR
STARTCHAR 03D2
ENCODING 978
SWIDTH 630 0
DWIDTH 7 0
BBX 7 8 0 0
BITMAP
42
E6
38
18
18
18
18
3C
ENDCHAR
STARTCHAR 03D5
ENCODING 981
SWIDTH 720 0
DWIDTH 8 0
BBX 8 10 0 -3
BITMAP
18
08
08
7E
4B
C9
49
7E
08
08
ENDCHAR
STARTCHAR 03D6
ENCODING 982
SWIDTH 810 0
DWIDTH 9 0
BBX 8 6 1 0
BITMAP
01
FF
66
5A
D2
7E
ENDCHAR
STARTCHAR 03D7
ENCODING 983
SWIDTH 540 0
DWIDTH 6 0
BBX 7 8 0 -3
BITMAP
EC
70
78
68
6E
06
04
38
ENDCHAR
STARTCHAR 03F0
ENCODING 1008
SWIDTH 540 0
DWIDTH 6 0
BBX 6 5 0 0
BITMAP
EC
38
38
68
6C
ENDCHAR
STARTCHAR 03F1
ENCODING 1009
SWIDTH 540 0
DWIDTH 6 0
BBX 6 8 0 -3
BITMAP
78
4C
CC
CC
B8
40
78
04
ENDCHAR
STARTCHAR 03F2
ENCODING 1010
SWIDTH 450 0
DWIDTH 5 0
BBX 5 5 0 0
BITMAP
78
48
C0
40
78
ENDCHAR
STARTCHAR 03F4
ENCODING 1012
SWIDTH 720 0
DWIDTH 8 0
BBX 8 8 0 0
BITMAP
18
66
43
C3
FF
43
62
3C
ENDCHAR
STARTCHAR 03F6
ENCODING 1014
SWIDTH 450 0
DWIDTH 5 0
BBX 5 5 0 0
BITMAP
F0
98
78
98
F0
ENDCHAR
STARTCHAR 03F7
ENCODING 1015
SWIDTH 630 0
DWIDTH 7 0
BBX 7 8 0 0
BITMAP
F0
60
7C
66
66
64
68
70
ENDCHAR
STARTCHAR 03F8
ENCODING 1016
SWIDTH 540 0
DWIDTH 6 0
BBX 7 11 0 -3
BITMAP
E0
60
60
7C
66
66
64
78
60
60
40
ENDCHAR
STARTCHAR 03F9
ENCODING 1017
SWIDTH 630 0
DWIDTH 7 0
BBX 7 8 0 0
BITMAP
18
66
40
C0
C0
40
60
3C
ENDCHAR
STARTCHAR 0400
ENCODING 1024
SWIDTH 540 0
DWIDTH 6 0
BBX 7 10 0 0
BITMAP
20
10
FC
64
60
68
78
60
62
7C
ENDCHAR
STARTCHAR 0401
ENCODING 1025
SWIDTH 540 0
DWIDTH 6 0
BBX 7 10 0 0
BITMAP
68
68
FC
64
60
68
78
60
62
7C
ENDCHAR
STARTCHAR 0402
ENCODING 1026
SWIDTH 720 0
DWIDTH 8 0
BBX 8 8 0 0
BITMAP
7E
D2
12
10
1F
11
11
3B
ENDCHAR
STARTCHAR 0403
ENCODING 1027
SWIDTH 540 0
DWIDTH 6 0
BBX 6 10 0 0
BITMAP
10
10
FC
64
60
60
60
60
60
F0
ENDCHAR
STARTCHAR 0404
ENCODING 1028
SWIDTH 630 0
DWIDTH 7 0
BBX 6 8 0 0
BITMAP
18
64
40
C0
F8
40
64
3C
ENDCHAR
STARTCHAR 0405
ENCODING 1029
SWIDTH 540 0
DWIDTH 6 0
BBX 5 8 1 0
BITMAP
60
90
90
E0
70
18
98
F0
ENDCHAR
STARTCHAR 0406
ENCODING 1030
SWIDTH 360 0
DWIDTH 4 0
BBX 4 8 0 0
BITMAP
F0
60
60
60
60
60
60
70
ENDCHAR
STARTCHAR 0407
ENCODING 1031
SWIDTH 360 0
DWIDTH 4 0
BBX 4 9 0 1
BITMAP
F0
F0
60
60
60
60
60
60
70
ENDCHAR
STARTCHAR 0408
ENCODING 1032
SWIDTH 360 0
DWIDTH 4 0
BBX 4 11 0 -3
BITMAP
F0
60
60
60
60
60
60
60
60
40
80
ENDCHAR
STARTCHAR 0409
ENCODING 1033
SWIDTH 900 0
DWIDTH 10 0
BBX 10 8 0 0
BITMAP
7E00
2400
2400
2400
27C0
24C0
E4C0
CF80
ENDCHAR
STARTCHAR 040A
ENCODING 1034
SWIDTH 990 0
DWIDTH 11 0
BBX 11 8 0 0
BITMAP
F700
6600
6600
6600
7FC0
6660
6660
77C0
ENDCHAR
STARTCHAR 040B
ENCODING 1035
SWIDTH 810 0
DWIDTH 9 0
BBX 9 8 0 0
BITMAP
7E00
D200
1200
1000
1F00
1100
1180
3B80
ENDCHAR
STARTCHAR 040C
ENCODING 1036
SWIDTH 720 0
DWIDTH 8 0
BBX 8 10 0 0
BITMAP
08
00
F7
66
64
68
78
6C
66
77
ENDCHAR
STARTCHAR 040D
ENCODING 1037
SWIDTH 720 0
DWIDTH 8 0
BBX 8 10 0 0
BITMAP
10
08
F3
66
66
6A
6A
72
72
67
ENDCHAR
STARTCHAR 040E
ENCODING 1038
SWIDTH 630 0
DWIDTH 7 0
BBX 7 10 0 0
BITMAP
24
1C
E6
62
24
34
18
18
10
70
ENDCHAR
STARTCHAR 040F
ENCODING 1039
SWIDTH 720 0
DWIDTH 8 0
BBX 8 10 0 -2
BITMAP
F7
62
62
62
62
62
62
7F
08
08
ENDCHAR
STARTCHAR 0410
ENCODING 1040
SWIDTH 630 0
DWIDTH 7 0
BBX 8 8 0 0
BITMAP
10
18
18
2C
2C
7C
46
C7
ENDCHAR
STARTCHAR 0411
ENCODING 1041
SWIDTH 630 0
DWIDTH 7 0
BBX 7 8 0 0
BITMAP
FC
64
64
60
7C
66
66
7C
ENDCHAR
STARTCHAR 0412
ENCODING 1042
SWIDTH 630 0
DWIDTH 7 0
BBX 7 8 0 0
BITMAP
F0
6C
64
6C
7C
66
66
7C
ENDCHAR
STARTCHAR 0413
ENCODING 1043
SWIDTH 540 0
DWIDTH 6 0
BBX 6 8 0 0
BITMAP
FC
64
60
60
60
60
60
F0
ENDCHAR
STARTCHAR 0414
ENCODING 1044
SWIDTH 720 0
DWIDTH 8 0
BBX 8 10 0 -2
BITMAP
3E
26
24
24
24
24
24
FF
C1
81
ENDCHAR
STARTCHAR 0415
ENCODING 1045
SWIDTH 540 0
DWIDTH 6 0
BBX 7 8 0 0
BITMAP
FC
64
60
68
78
60
62
7C
ENDCHAR
STARTCHAR 0416
ENCODING 1046
SWIDTH 990 0
DWIDTH 11 0
BBX 12 8 0 0
BITMAP
6E60
2640
1680
1700
1F80
36C0
26C0
EE70
ENDCHAR
STARTCHAR 0417
ENCODING 1047
SWIDTH 540 0
DWIDTH 6 0
BBX 5 8 1 0
BITMAP
60
98
98
30
30
18
98
F0
ENDCHAR
STARTCHAR 0418
ENCODING 1048
SWIDTH 720 0
DWIDTH 8 0
BBX 8 8 0 0
BITMAP
F3
66
66
6A
6A
72
72
67
ENDCHAR
STARTCHAR 0419
ENCODING 1049
SWIDTH 720 0
DWIDTH 8 0
BBX 8 10 0 0
BITMAP
26
1C
F3
66
66
6A
6A
72
72
67
ENDCHAR
STARTCHAR 041A
ENCODING 1050
SWIDTH 720 0
DWIDTH 8 0
BBX 8 8 0 0
BITMAP
F7
66
64
68
78
6C
66
77
ENDCHAR
STARTCHAR 041B
ENCODING 1051
SWIDTH 630 0
DWIDTH 7 0
BBX 7 8 0 0
BITMAP
7E
26
26
26
26
26
E6
CE
ENDCHAR
STARTCHAR 041C
ENCODING 1052
SWIDTH 900 0
DWIDTH 10 0
BBX 10 8 0 0
BITMAP
60C0
3180
3180
5280
5A80
4CC0
4CC0
EDC0
ENDCHAR
STARTCHAR 041D
ENCODING 1053
SWIDTH 720 0
DWIDTH 8 0
BBX 8 8 0 0
BITMAP
F7
62
62
62
7E
62
62
77
ENDCHAR
STARTCHAR 041E
ENCODING 1054
SWIDTH 720 0
DWIDTH 8 0
BBX 8 8 0 0
BITMAP
18
66
43
C3
C3
43
62
3C
ENDCHAR
STARTCHAR 041F
ENCODING 1055
SWIDTH 720 0
DWIDTH 8 0
BBX 8 8 0 0
BITMAP
FF
62
62
62
62
62
62
77
ENDCHAR
STARTCHAR 0420
ENCODING 1056
SWIDTH 630 0
DWIDTH 7 0
BBX 7 8 0 0
BITMAP
F0
6C
66
66
6C
60
60
F0
ENDCHAR
STARTCHAR 0421
ENCODING 1057
SWIDTH 630 0
DWIDTH 7 0
BBX 7 8 0 0
BITMAP
18
66
40
C0
C0
40
60
3C
ENDCHAR
STARTCHAR 0422
ENCODING 1058
SWIDTH 630 0
DWIDTH 7 0
BBX 7 8 0 0
BITMAP
7E
D2
12
10
10
10
10
38
ENDCHAR
STARTCHAR 0423
ENCODING 1059
SWIDTH 630 0
DWIDTH 7 0
BBX 7 8 0 0
BITMAP
E6
62
24
34
18
18
10
70
ENDCHAR
STARTCHAR 0424
ENCODING 1060
SWIDTH 810 0
DWIDTH 9 0
BBX 9 8 0 0
BITMAP
1E00
0C00
7F80
CD80
CD80
6D80
1E00
1E00
ENDCHAR
STARTCHAR 0425
ENCODING 1061
SWIDTH 630 0
DWIDTH 7 0
BBX 7 8 0 0
BITMAP
F6
66
34
18
18
2C
2C
EE
ENDCHAR
STARTCHAR 0426
ENCODING 1062
SWIDTH 810 0
DWIDTH 9 0
BBX 9 10 0 -2
BITMAP
F700
6200
6200
6200
6200
6200
6200
7F80
0180
0080
ENDCHAR
STARTCHAR 0427
ENCODING 1063
SWIDTH 720 0
DWIDTH 8 0
BBX 8 8 0 0
BITMAP
F7
66
66
66
3E
06
06
0F
ENDCHAR
STARTCHAR 0428
ENCODING 1064
SWIDTH 990 0
DWIDTH 11 0
BBX 11 8 0 0
BITMAP
FEE0
6660
6640
6640
6640
6640
6640
7FE0
ENDCHAR
STARTCHAR 0429
ENCODING 1065
SWIDTH 1080 0
DWIDTH 12 0
BBX 12 10 0 -2
BITMAP
FEE0
6660
6640
6640
6640
6640
6640
7FF0
0010
0010
ENDCHAR
STARTCHAR 042A
ENCODING 1066
SWIDTH 720 0
DWIDTH 8 0
BBX 8 8 0 0
BITMAP
7C
D8
10
10
1F
13
13
3E
ENDCHAR
STARTCHAR 042B
ENCODING 1067
SWIDTH 900 0
DWIDTH 10 0
BBX 10 8 0 0
BITMAP
F1C0
6180
6080
6080
7C80
6680
6480
7DC0
ENDCHAR
STARTCHAR 042C
ENCODING 1068
SWIDTH 630 0
DWIDTH 7 0
BBX 7 8 0 0
BITMAP
F0
60
60
60
7E
66
66
7C
ENDCHAR
STARTCHAR 042D
ENCODING 1069
SWIDTH 630 0
DWIDTH 7 0
BBX 6 8 1 0
BITMAP
60
98
88
0C
7C
0C
88
F0
ENDCHAR
STARTCHAR 042E
ENCODING 1070
SWIDTH 990 0
DWIDTH 11 0
BBX 11 8 0 0
BITMAP
F180
6640
6C60
6C20
7C20
6C60
6460
77C0
ENDCHAR
STARTCHAR 042F
ENCODING 1071
SWIDTH 630 0
DWIDTH 7 0
BBX 7 8 0 0
BITMAP
1E
66
64
64
1C
34
64
EE
ENDCHAR
STARTCHAR 0430
ENCODING 1072
SWIDTH 450 0
DWIDTH 5 0
BBX 5 5 0 0
BITMAP
70
D8
38
D8
F8
ENDCHAR
STARTCHAR 0431
ENCODING 1073
SWIDTH 540 0
DWIDTH 6 0
BBX 6 8 0 0
BITMAP
0C
38
40
78
CC
CC
CC
78
ENDCHAR
STARTCHAR 0432
ENCODING 1074
SWIDTH 540 0
DWIDTH 6 0
BBX 6 5 0 0
BITMAP
F8
6C
78
6C
FC
ENDCHAR
STARTCHAR 0433
ENCODING 1075
SWIDTH 450 0
DWIDTH 5 0
BBX 5 5 0 0
BITMAP
F8
68
60
60
F0
ENDCHAR
STARTCHAR 0434
ENCODING 1076
SWIDTH 540 0
DWIDTH 6 0
BBX 7 7 0 -2
BITMAP
7C
2C
4C
4C
FE
86
84
ENDCHAR
STARTCHAR 0435
ENCODING 1077
SWIDTH 450 0
DWIDTH 5 0
BBX 5 5 0 0
BITMAP
78
48
F8
40
78
ENDCHAR
STARTCHAR 0436
ENCODING 1078
SWIDTH 810 0
DWIDTH 9 0
BBX 10 5 0 0
BITMAP
6D80
2D00
3F00
2D00
EDC0
ENDCHAR
STARTCHAR 0437
ENCODING 1079
SWIDTH 450 0
DWIDTH 5 0
BBX 5 5 0 0
BITMAP
78
18
30
98
F8
ENDCHAR
STARTCHAR 0438
ENCODING 1080
SWIDTH 630 0
DWIDTH 7 0
BBX 7 5 0 0
BITMAP
EE
6C
74
64
EE
ENDCHAR
STARTCHAR 0439
ENCODING 1081
SWIDTH 630 0
DWIDTH 7 0
BBX 7 8 0 0
BITMAP
64
28
10
EE
6C
74
64
EE
ENDCHAR
STARTCHAR 043A
ENCODING 1082
SWIDTH 540 0
DWIDTH 6 0
BBX 7 5 0 0
BITMAP
EC
68
70
78
EE
ENDCHAR
STARTCHAR 043B
ENCODING 1083
SWIDTH 540 0
DWIDTH 6 0
BBX 6 5 0 0
BITMAP
7C
28
48
48
DC
ENDCHAR
STARTCHAR 043C
ENCODING 1084
SWIDTH 720 0
DWIDTH 8 0
BBX 8 5 0 0
BITMAP
67
7A
7A
5A
D7
ENDCHAR
STARTCHAR 043D
ENCODING 1085
SWIDTH 630 0
DWIDTH 7 0
BBX 7 5 0 0
BITMAP
EE
64
7C
64
EE
ENDCHAR
STARTCHAR 043E
ENCODING 1086
SWIDTH 540 0
DWIDTH 6 0
BBX 6 5 0 0
BITMAP
78
4C
CC
4C
78
ENDCHAR
STARTCHAR 043F
ENCODING 1087
SWIDTH 630 0
DWIDTH 7 0
BBX 7 5 0 0
BITMAP
FE
64
64
64
EE
ENDCHAR
STARTCHAR 0440
ENCODING 1088
SWIDTH 630 0
DWIDTH 7 0
BBX 7 8 0 -3
BITMAP
FC
66
66
64
7C
60
60
F0
ENDCHAR
STARTCHAR 0441
ENCODING 1089
SWIDTH 450 0
DWIDTH 5 0
BBX 5 5 0 0
BITMAP
78
48
C0
40
78
ENDCHAR
STARTCHAR 0442
ENCODING 1090
SWIDTH 540 0
DWIDTH 6 0
BBX 6 5 0 0
BITMAP
FC
B4
30
30
78
ENDCHAR
STARTCHAR 0443
ENCODING 1091
SWIDTH 540 0
DWIDTH 6 0
BBX 6 8 0 -3
BITMAP
EC
68
28
30
30
10
E0
40
ENDCHAR
STARTCHAR 0444
ENCODING 1092
SWIDTH 720 0
DWIDTH 8 0
BBX 8 11 0 -3
BITMAP
18
08
08
7F
49
C9
49
7E
08
08
1C
ENDCHAR
STARTCHAR 0445
ENCODING 1093
SWIDTH 540 0
DWIDTH 6 0
BBX 6 5 0 0
BITMAP
EC
28
30
58
DC
ENDCHAR
STARTCHAR 0446
ENCODING 1094
SWIDTH 630 0
DWIDTH 7 0
BBX 7 7 0 -2
BITMAP
EE
64
64
64
FE
02
02
ENDCHAR
STARTCHAR 0447
ENCODING 1095
SWIDTH 540 0
DWIDTH 6 0
BBX 6 5 0 0
BITMAP
EC
4C
7C
0C
1C
ENDCHAR
STARTCHAR 0448
ENCODING 1096
SWIDTH 810 0
DWIDTH 9 0
BBX 9 5 0 0
BITMAP
ED80
6D80
6D80
6D80
FF80
ENDCHAR
STARTCHAR 0449
ENCODING 1097
SWIDTH 900 0
DWIDTH 10 0
BBX 10 7 0 -2
BITMAP
ED80
6D80
6D80
6D80
FFC0
0040
0040
ENDCHAR
STARTCHAR 044A
ENCODING 1098
SWIDTH 540 0
DWIDTH 6 0
BBX 6 5 0 0
BITMAP
F8
B0
3C
34
7C
ENDCHAR
STARTCHAR 044B
ENCODING 1099
SWIDTH 810 0
DWIDTH 9 0
BBX 9 5 0 0
BITMAP
F380
6100
7900
6D00
FB80
ENDCHAR
STARTCHAR 044C
ENCODING 1100
SWIDTH 540 0
DWIDTH 6 0
BBX 6 5 0 0
BITMAP
F0
60
7C
6C
F8
ENDCHAR
STARTCHAR 044D
ENCODING 1101
SWIDTH 450 0
DWIDTH 5 0
BBX 5 5 0 0
BITMAP
F0
98
78
98
F0
ENDCHAR
STARTCHAR 044E
ENCODING 1102
SWIDTH 810 0
DWIDTH 9 0
BBX 9 5 0 0
BITMAP
EF00
6980
7980
6980
EF00
ENDCHAR
STARTCHAR 044F
ENCODING 1103
SWIDTH 540 0
DWIDTH 6 0
BBX 6 5 0 0
BITMAP
7C
48
78
68
DC
ENDCHAR
STARTCHAR 0450
ENCODING 1104
SWIDTH 450 0
DWIDTH 5 0
BBX 5 8 0 0
BITMAP
60
20
00
78
48
F8
40
78
ENDCHAR
STARTCHAR 0451
ENCODING 1105
SWIDTH 450 0
DWIDTH 5 0
BBX 5 7 0 0
BITMAP
78
00
78
48
F8
40
78
ENDCHAR
STARTCHAR 0452
ENCODING 1106
SWIDTH 540 0
DWIDTH 6 0
BBX 6 11 0 -3
BITMAP
E0
60
70
7C
64
64
64
E4
0C
08
10
ENDCHAR
STARTCHAR 0453
ENCODING 1107
SWIDTH 450 0
DWIDTH 5 0
BBX 5 8 0 0
BITMAP
10
20
00
F8
68
60
60
F0
ENDCHAR
STARTCHAR 0454
ENCODING 1108
SWIDTH 450 0
DWIDTH 5 0
BBX 5 5 0 0
BITMAP
78
48
F0
48
78
ENDCHAR
STARTCHAR 0455
ENCODING 1109
SWIDTH 450 0
DWIDTH 5 0
BBX 5 5 0 0
BITMAP
70
C0
70
98
F0
ENDCHAR
STARTCHAR 0456
ENCODING 1110
SWIDTH 270 0
DWIDTH 3 0
BBX 4 8 0 0
BITMAP
60
60
00
E0
60
60
60
F0
ENDCHAR
STARTCHAR 0457
ENCODING 1111
SWIDTH 270 0
DWIDTH 3 0
BBX 4 7 0 0
BITMAP
F0
00
E0
60
60
60
F0
ENDCHAR
STARTCHAR 0458
ENCODING 1112
SWIDTH 270 0
DWIDTH 3 0
BBX 3 11 0 -3
BITMAP
60
60
00
E0
60
60
60
60
60
40
80
ENDCHAR
STARTCHAR 0459
ENCODING 1113
SWIDTH 810 0
DWIDTH 9 0
BBX 9 5 0 0
BITMAP
7C00
2C00
2F00
4D80
DF00
ENDCHAR
STARTCHAR 045A
ENCODING 1114
SWIDTH 810 0
DWIDTH 9 0
BBX 9 5 0 0
BITMAP
EE00
6C00
7F80
6D80
EF80
ENDCHAR
STARTCHAR 045B
ENCODING 1115
SWIDTH 630 0
DWIDTH 7 0
BBX 7 8 0 0
BITMAP
E0
60
F0
7C
64
64
64
EE
ENDCHAR
STARTCHAR 045C
ENCODING 1116
SWIDTH 540 0
DWIDTH 6 0
BBX 7 8 0 0
BITMAP
08
10
00
EC
68
70
78
EE
ENDCHAR
STARTCHAR 045D
ENCODING 1117
SWIDTH 630 0
DWIDTH 7 0
BBX 7 8 0 0
BITMAP
30
10
00
EE
6C
74
64
EE
ENDCHAR
STARTCHAR 045E
ENCODING 1118
SWIDTH 540 0
DWIDTH 6 0
BBX 6 11 0 -3
BITMAP
44
28
10
EC
68
28
30
30
10
E0
40
ENDCHAR
STARTCHAR 045F
ENCODING 1119
SWIDTH 630 0
DWIDTH 7 0
BBX 7 7 0 -2
BITMAP
EE
64
64
64
FE
10
10
ENDCHAR
STARTCHAR 0462
ENCODING 1122
SWIDTH 720 0
DWIDTH 8 0
BBX 8 8 0 0
BITMAP
78
30
FC
B0
3E
33
33
7E
ENDCHAR
STARTCHAR 0463
ENCODING 1123
SWIDTH 630 0
DWIDTH 7 0
BBX 7 8 0 0
BITMAP
70
30
30
FC
B0
3C
36
7C
ENDCHAR
STARTCHAR 046A
ENCODING 1130
SWIDTH 900 0
DWIDTH 10 0
BBX 10 8 0 0
BITMAP
7F80
3080
1900
0E00
1F00
3D80
6D80
EEC0
ENDCHAR
STARTCHAR 046B
ENCODING 1131
SWIDTH 810 0
DWIDTH 9 0
BBX 9 5 0 0
BITMAP
7F00
3200
3E00
6B00
DD80
ENDCHAR
STARTCHAR 0472
ENCODING 1138
SWIDTH 720 0
DWIDTH 8 0
BBX 8 8 0 0
BITMAP
18
66
43
D3
FF
43
62
3C
ENDCHAR
STARTCHAR 0473
ENCODING 1139
SWIDTH 540 0
DWIDTH 6 0
BBX 6 5 0 0
BITMAP
78
4C
FC
4C
78
ENDCHAR
STARTCHAR 0474
ENCODING 1140
SWIDTH 720 0
DWIDTH 8 0
BBX 8 8 0 0
BITMAP
E1
63
64
24
38
38
18
10
ENDCHAR
STARTCHAR 0475
ENCODING 1141
SWIDTH 450 0
DWIDTH 5 0
BBX 6 5 0 0
BITMAP
EC
68
70
30
20
ENDCHAR
STARTCHAR 048A
ENCODING 1162
SWIDTH 810 0
DWIDTH 9 0
BBX 9 12 0 -2
BITMAP
2600
1C00
F300
6600
6600
6A00
6A00
7200
7200
6780
0100
0100
ENDCHAR
STARTCHAR 048B
ENCODING 1163
SWIDTH 630 0
DWIDTH 7 0
BBX 7 10 0 -2
BITMAP
64
28
10
EE
6C
74
64
EE
02
04
ENDCHAR
STARTCHAR 048C
ENCODING 1164
SWIDTH 630 0
DWIDTH 7 0
BBX 7 8 0 0
BITMAP
F0
60
F0
60
7E
66
66
7C
ENDCHAR
STARTCHAR 048D
ENCODING 1165
SWIDTH 540 0
DWIDTH 6 0
BBX 6 8 0 0
BITMAP
E0
60
60
F0
60
7C
6C
FC
ENDCHAR
STARTCHAR 048E
ENCODING 1166
SWIDTH 630 0
DWIDTH 7 0
BBX 7 8 0 0
BITMAP
F0
64
66
6E
6C
62
60
F0
ENDCHAR
STARTCHAR 048F
ENCODING 1167
SWIDTH 630 0
DWIDTH 7 0
BBX 7 8 0 -3
BITMAP
FC
66
66
64
7C
64
60
F0
ENDCHAR
STARTCHAR 0490
ENCODING 1168
SWIDTH 540 0
DWIDTH 6 0
BBX 6 9 0 0
BITMAP
04
FC
60
60
60
60
60
60
F0
ENDCHAR
STARTCHAR 0491
ENCODING 1169
SWIDTH 450 0
DWIDTH 5 0
BBX 5 7 0 0
BITMAP
08
08
F8
60
60
60
F0
ENDCHAR
STARTCHAR 0492
ENCODING 1170
SWIDTH 540 0
DWIDTH 6 0
BBX 6 8 0 0
BITMAP
FC
64
60
60
F8
60
60
F0
ENDCHAR
STARTCHAR 0493
ENCODING 1171
SWIDTH 450 0
DWIDTH 5 0
BBX 5 5 0 0
BITMAP
F8
68
F0
60
F0
ENDCHAR
STARTCHAR 0494
ENCODING 1172
SWIDTH 630 0
DWIDTH 7 0
BBX 7 11 0 -3
BITMAP
FC
64
60
60
7C
66
66
F6
04
0C
08
ENDCHAR
STARTCHAR 0495
ENCODING 1173
SWIDTH 540 0
DWIDTH 6 0
BBX 6 8 0 -3
BITMAP
F8
60
78
6C
EC
0C
08
10
ENDCHAR
STARTCHAR 0496
ENCODING 1174
SWIDTH 1080 0
DWIDTH 12 0
BBX 12 10 0 -2
BITMAP
EEE0
2640
1680
1700
1780
36C0
66C0
EE70
0010
0010
ENDCHAR
STARTCHAR 0497
ENCODING 1175
SWIDTH 810 0
DWIDTH 9 0
BBX 10 7 0 -2
BITMAP
6D80
2D00
3E00
2F00
FDC0
0040
0040
ENDCHAR
STARTCHAR 0498
ENCODING 1176
SWIDTH 540 0
DWIDTH 6 0
BBX 5 10 1 -2
BITMAP
60
98
98
30
30
18
98
F0
60
20
ENDCHAR
STARTCHAR 0499
ENCODING 1177
SWIDTH 450 0
DWIDTH 5 0
BBX 5 7 0 -2
BITMAP
78
18
30
98
F8
20
20
ENDCHAR
STARTCHAR 049A
ENCODING 1178
SWIDTH 720 0
DWIDTH 8 0
BBX 8 10 0 -2
BITMAP
F7
66
64
68
78
6C
66
77
01
01
ENDCHAR
STARTCHAR 049B
ENCODING 1179
SWIDTH 540 0
DWIDTH 6 0
BBX 7 7 0 -2
BITMAP
EC
68
70
78
EE
02
02
ENDCHAR
STARTCHAR 049C
ENCODING 1180
SWIDTH 720 0
DWIDTH 8 0
BBX 8 8 0 0
BITMAP
F1
63
74
78
7C
74
66
73
ENDCHAR
STARTCHAR 049D
ENCODING 1181
SWIDTH 630 0
DWIDTH 7 0
BBX 7 5 0 0
BITMAP
E6
78
78
7C
E6
ENDCHAR
STARTCHAR 049E
ENCODING 1182
SWIDTH 720 0
DWIDTH 8 0
BBX 8 8 0 0
BITMAP
F3
67
F8
68
7C
6C
66
77
ENDCHAR
STARTCHAR 049F
ENCODING 1183
SWIDTH 540 0
DWIDTH 6 0
BBX 7 8 0 0
BITMAP
E0
60
F0
6C
70
78
68
EE
ENDCHAR
STARTCHAR 04A0
ENCODING 1184
SWIDTH 810 0
DWIDTH 9 0
BBX 9 8 0 0
BITMAP
F880
D980
1A00
1C00
1E00
1B00
1B00
3980
ENDCHAR
STARTCHAR 04A1
ENCODING 1185
SWIDTH 630 0
DWIDTH 7 0
BBX 7 5 0 0
BITMAP
F6
B4
3C
34
76
ENDCHAR
STARTCHAR 04A2
ENCODING 1186
SWIDTH 810 0
DWIDTH 9 0
BBX 9 10 0 -2
BITMAP
F700
6200
6200
6200
7E00
6200
6200
7780
0080
0080
ENDCHAR
STARTCHAR 04A3
ENCODING 1187
SWIDTH 630 0
DWIDTH 7 0
BBX 7 7 0 -2
BITMAP
EE
64
7C
64
EE
02
02
ENDCHAR
STARTCHAR 04A4
ENCODING 1188
SWIDTH 900 0
DWIDTH 10 0
BBX 10 8 0 0
BITMAP
F7C0
6640
6600
6600
7E00
6600
6600
7700
ENDCHAR
STARTCHAR 04A5
ENCODING 1189
SWIDTH 720 0
DWIDTH 8 0
BBX 8 5 0 0
BITMAP
EF
6C
7C
6C
EE
ENDCHAR
STARTCHAR 04A8
ENCODING 1192
SWIDTH 900 0
DWIDTH 10 0
BBX 9 8 0 0
BITMAP
1000
6700
4980
C980
C980
4D80
6D00
3F80
ENDCHAR
STARTCHAR 04A9
ENCODING 1193
SWIDTH 720 0
DWIDTH 8 0
BBX 8 5 0 0
BITMAP
6E
5B
DB
5A
7F
ENDCHAR
STARTCHAR 04AA
ENCODING 1194
SWIDTH 630 0
DWIDTH 7 0
BBX 7 10 0 -2
BITMAP
18
66
40
C0
C0
40
60
3C
08
08
ENDCHAR
STARTCHAR 04AB
ENCODING 1195
SWIDTH 450 0
DWIDTH 5 0
BBX 5 7 0 -2
BITMAP
78
48
C0
40
78
10
10
ENDCHAR
STARTCHAR 04AC
ENCODING 1196
SWIDTH 630 0
DWIDTH 7 0
BBX 7 10 0 -2
BITMAP
7E
D2
12
10
10
10
10
3C
04
04
ENDCHAR
STARTCHAR 04AD
ENCODING 1197
SWIDTH 540 0
DWIDTH 6 0
BBX 6 7 0 -2
BITMAP
FC
B4
30
30
78
08
08
ENDCHAR
STARTCHAR 04AE
ENCODING 1198
SWIDTH 630 0
DWIDTH 7 0
BBX 7 8 0 0
BITMAP
E6
64
64
38
38
10
10
38
ENDCHAR
STARTCHAR 04AF
ENCODING 1199
SWIDTH 540 0
DWIDTH 6 0
BBX 6 8 0 -3
BITMAP
EC
68
28
30
30
30
30
38
ENDCHAR
STARTCHAR 04B0
ENCODING 1200
SWIDTH 630 0
DWIDTH 7 0
BBX 7 8 0 0
BITMAP
E6
64
64
38
38
7C
10
38
ENDCHAR
STARTCHAR 04B1
ENCODING 1201
SWIDTH 540 0
DWIDTH 6 0
BBX 6 8 0 -3
BITMAP
EC
68
28
30
78
30
30
38
ENDCHAR
STARTCHAR 04B2
ENCODING 1202
SWIDTH 720 0
DWIDTH 8 0
BBX 8 10 0 -2
BITMAP
F6
66
34
18
18
2C
2C
EF
01
01
ENDCHAR
STARTCHAR 04B3
ENCODING 1203
SWIDTH 540 0
DWIDTH 6 0
BBX 6 7 0 -2
BITMAP
EC
28
30
58
DC
04
04
ENDCHAR
STARTCHAR 04B4
ENCODING 1204
SWIDTH 990 0
DWIDTH 11 0
BBX 11 10 0 -2
BITMAP
7DC0
DEC0
18C0
18C0
18C0
18C0
18C0
3FE0
0020
0020
ENDCHAR
STARTCHAR 04B5
ENCODING 1205
SWIDTH 810 0
DWIDTH 9 0
BBX 9 7 0 -2
BITMAP
FB00
B300
3300
3300
3F80
0080
0080
ENDCHAR
STARTCHAR 04B6
ENCODING 1206
SWIDTH 720 0
DWIDTH 8 0
BBX 8 10 0 -2
BITMAP
F7
66
66
66
3E
06
06
0F
01
01
ENDCHAR
STARTCHAR 04B7
ENCODING 1207
SWIDTH 630 0
DWIDTH 7 0
BBX 7 7 0 -2
BITMAP
EC
4C
7C
0C
1E
02
02
ENDCHAR
STARTCHAR 04B8
ENCODING 1208
SWIDTH 720 0
DWIDTH 8 0
BBX 8 8 0 0
BITMAP
F7
62
6A
6A
3E
0A
02
07
ENDCHAR
STARTCHAR 04B9
ENCODING 1209
SWIDTH 630 0
DWIDTH 7 0
BBX 7 5 0 0
BITMAP
EE
54
7C
14
0E
ENDCHAR
STARTCHAR 04BA
ENCODING 1210
SWIDTH 720 0
DWIDTH 8 0
BBX 8 8 0 0
BITMAP
F0
60
60
7C
66
66
66
77
ENDCHAR
STARTCHAR 04BB
ENCODING 1211
SWIDTH 630 0
DWIDTH 7 0
BBX 7 8 0 0
BITMAP
E0
60
60
7C
64
64
64
EE
ENDCHAR
STARTCHAR 04BC
ENCODING 1212
SWIDTH 810 0
DWIDTH 9 0
BBX 9 8 0 0
BITMAP
0400
1B00
7180
F180
3E00
3000
1880
0F00
ENDCHAR
STARTCHAR 04BD
ENCODING 1213
SWIDTH 630 0
DWIDTH 7 0
BBX 6 5 1 0
BITMAP
B8
EC
FC
60
3C
ENDCHAR
STARTCHAR 04BE
ENCODING 1214
SWIDTH 810 0
DWIDTH 9 0
BBX 9 10 0 -2
BITMAP
0400
1B00
7180
F180
3E00
3000
1880
0F00
0400
0400
ENDCHAR
STARTCHAR 04BF
ENCODING 1215
SWIDTH 630 0
DWIDTH 7 0
BBX 6 7 1 -2
BITMAP
B8
EC
FC
60
3C
10
10
ENDCHAR
STARTCHAR 04C0
ENCODING 1216
SWIDTH 360 0
DWIDTH 4 0
BBX 4 8 0 0
BITMAP
F0
60
60
60
60
60
60
70
ENDCHAR
STARTCHAR 04C1
ENCODING 1217
SWIDTH 990 0
DWIDTH 11 0
BBX 12 10 0 0
BITMAP
1900
0E00
EEE0
2640
1680
1700
1780
36C0
66C0
EE70
ENDCHAR
STARTCHAR 04C2
ENCODING 1218
SWIDTH 810 0
DWIDTH 9 0
BBX 10 8 0 0
BITMAP
1200
1600
0800
6D80
2D00
3E00
2F00
FDC0
ENDCHAR
STARTCHAR 04C3
ENCODING 1219
SWIDTH 630 0
DWIDTH 7 0
BBX 7 11 0 -3
BITMAP
F2
66
68
68
7C
66
62
72
06
04
08
ENDCHAR
STARTCHAR 04C4
ENCODING 1220
SWIDTH 540 0
DWIDTH 6 0
BBX 6 8 0 -3
BITMAP
EC
70
78
6C
E4
0C
08
10
ENDCHAR
STARTCHAR 04C5
ENCODING 1221
SWIDTH 720 0
DWIDTH 8 0
BBX 8 10 0 -2
BITMAP
7E
26
26
26
26
26
E6
CF
03
02
ENDCHAR
STARTCHAR 04C6
ENCODING 1222
SWIDTH 540 0
DWIDTH 6 0
BBX 7 7 0 -2
BITMAP
7C
28
48
48
DE
04
04
ENDCHAR
STARTCHAR 04C7
ENCODING 1223
SWIDTH 720 0
DWIDTH 8 0
BBX 8 11 0 -3
BITMAP
F7
62
62
62
7E
62
62
72
02
06
04
ENDCHAR
STARTCHAR 04C8
ENCODING 1224
SWIDTH 630 0
DWIDTH 7 0
BBX 7 7 0 -3
BITMAP
EE
64
7C
64
E4
0C
08
ENDCHAR
STARTCHAR 04C9
ENCODING 1225
SWIDTH 810 0
DWIDTH 9 0
BBX 9 10 0 -2
BITMAP
F700
6200
6200
6200
7E00
6200
6200
7780
0100
0100
ENDCHAR
STARTCHAR 04CA
ENCODING 1226
SWIDTH 630 0
DWIDTH 7 0
BBX 7 7 0 -2
BITMAP
EE
64
7C
64
EE
02
04
ENDCHAR
STARTCHAR 04CB
ENCODING 1227
SWIDTH 720 0
DWIDTH 8 0
BBX 8 10 0 -2
BITMAP
F7
66
66
66
3E
06
06
0F
08
08
ENDCHAR
STARTCHAR 04CC
ENCODING 1228
SWIDTH 540 0
DWIDTH 6 0
BBX 6 7 0 -2
BITMAP
EC
4C
7C
0C
1C
10
10
ENDCHAR
STARTCHAR 04CD
ENCODING 1229
SWIDTH 990 0
DWIDTH 11 0
BBX 11 10 0 -2
BITMAP
60C0
3180
3180
5280
5A80
4CC0
4CC0
EDE0
0020
0040
ENDCHAR
STARTCHAR 04CE
ENCODING 1230
SWIDTH 720 0
DWIDTH 8 0
BBX 8 7 0 -2
BITMAP
67
7A
7A
5A
D7
01
01
ENDCHAR
STARTCHAR 04CF
ENCODING 1231
SWIDTH 270 0
DWIDTH 3 0
BBX 3 8 0 0
BITMAP
E0
60
60
60
60
60
60
E0
ENDCHAR
STARTCHAR 04D0
ENCODING 1232
SWIDTH 630 0
DWIDTH 7 0
BBX 8 10 0 0
BITMAP
24
38
10
18
18
2C
2C
7C
46
C7
ENDCHAR
STARTCHAR 04D1
ENCODING 1233
SWIDTH 540 0
DWIDTH 6 0
BBX 5 8 1 0
BITMAP
90
F0
00
70
90
70
90
F8
ENDCHAR
STARTCHAR 04D2
ENCODING 1234
SWIDTH 630 0
DWIDTH 7 0
BBX 8 10 0 0
BITMAP
24
2C
10
18
18
2C
2C
7C
46
C7
ENDCHAR
STARTCHAR 04D3
ENCODING 1235
SWIDTH 540 0
DWIDTH 6 0
BBX 5 7 1 0
BITMAP
B0
00
70
90
70
90
F8
ENDCHAR
STARTCHAR 04D4
ENCODING 1236
SWIDTH 900 0
DWIDTH 10 0
BBX 10 8 0 0
BITMAP
1FC0
0E40
1600
1680
3F80
2680
4640
EFC0
ENDCHAR
STARTCHAR 04D5
ENCODING 1237
SWIDTH 720 0
DWIDTH 8 0
BBX 8 5 0 0
BITMAP
7E
5B
7E
D8
6E
ENDCHAR
STARTCHAR 04D6
ENCODING 1238
SWIDTH 540 0
DWIDTH 6 0
BBX 7 10 0 0
BITMAP
44
38
FC
64
60
68
78
60
62
7C
ENDCHAR
STARTCHAR 04D7
ENCODING 1239
SWIDTH 450 0
DWIDTH 5 0
BBX 5 8 0 0
BITMAP
48
78
00
78
48
F8
40
78
ENDCHAR
STARTCHAR 04D8
ENCODING 1240
SWIDTH 630 0
DWIDTH 7 0
BBX 7 8 0 0
BITMAP
30
4C
46
06
FE
46
44
38
ENDCHAR
STARTCHAR 04D9
ENCODING 1241
SWIDTH 450 0
DWIDTH 5 0
BBX 5 5 0 0
BITMAP
78
08
F8
C8
70
ENDCHAR
STARTCHAR 04DA
ENCODING 1242
SWIDTH 630 0
DWIDTH 7 0
BBX 7 10 0 0
BITMAP
28
2C
30
4C
46
06
FE
46
44
38
ENDCHAR
STARTCHAR 04DB
ENCODING 1243
SWIDTH 450 0
DWIDTH 5 0
BBX 5 7 0 0
BITMAP
58
00
78
08
F8
C8
70
ENDCHAR
STARTCHAR 04DC
ENCODING 1244
SWIDTH 990 0
DWIDTH 11 0
BBX 12 10 0 0
BITMAP
0900
0B00
EEE0
2640
1680
1700
1780
36C0
66C0
EE70
ENDCHAR
STARTCHAR 04DD
ENCODING 1245
SWIDTH 810 0
DWIDTH 9 0
BBX 10 7 0 0
BITMAP
1600
0000
6D80
2D00
3E00
2F00
FDC0
ENDCHAR
STARTCHAR 04DE
ENCODING 1246
SWIDTH 540 0
DWIDTH 6 0
BBX 5 10 1 0
BITMAP
90
D0
60
98
98
30
30
18
98
F0
ENDCHAR
STARTCHAR 04DF
ENCODING 1247
SWIDTH 450 0
DWIDTH 5 0
BBX 5 7 0 0
BITMAP
58
00
78
18
30
98
F8
ENDCHAR
STARTCHAR 04E0
ENCODING 1248
SWIDTH 540 0
DWIDTH 6 0
BBX 5 8 1 0
BITMAP
F0
F0
90
20
78
18
98
F0
ENDCHAR
STARTCHAR 04E1
ENCODING 1249
SWIDTH 450 0
DWIDTH 5 0
BBX 4 8 1 -3
BITMAP
F0
A0
20
60
30
10
B0
E0
ENDCHAR
STARTCHAR 04E2
ENCODING 1250
SWIDTH 720 0
DWIDTH 8 0
BBX 8 9 0 0
BITMAP
3C
F3
66
66
6A
6A
72
72
67
ENDCHAR
STARTCHAR 04E3
ENCODING 1251
SWIDTH 630 0
DWIDTH 7 0
BBX 7 7 0 0
BITMAP
3C
00
EE
6C
74
64
EE
ENDCHAR
STARTCHAR 04E4
ENCODING 1252
SWIDTH 720 0
DWIDTH 8 0
BBX 8 10 0 0
BITMAP
14
34
F3
66
66
6A
6A
72
72
67
ENDCHAR
STARTCHAR 04E5
ENCODING 1253
SWIDTH 630 0
DWIDTH 7 0
BBX 7 7 0 0
BITMAP
6C
00
EE
6C
74
64
EE
ENDCHAR
STARTCHAR 04E6
ENCODING 1254
SWIDTH 720 0
DWIDTH 8 0
BBX 8 10 0 0
BITMAP
24
34
18
66
43
C3
C3
43
62
3C
ENDCHAR
STARTCHAR 04E7
ENCODING 1255
SWIDTH 540 0
DWIDTH 6 0
BBX 6 7 0 0
BITMAP
68
00
78
4C
CC
4C
78
ENDCHAR
STARTCHAR 04E8
ENCODING 1256
SWIDTH 720 0
DWIDTH 8 0
BBX 8 8 0 0
BITMAP
18
66
43
C3
FF
43
62
3C
ENDCHAR
STARTCHAR 04E9
ENCODING 1257
SWIDTH 540 0
DWIDTH 6 0
BBX 6 5 0 0
BITMAP
78
4C
FC
4C
78
ENDCHAR
STARTCHAR 04EA
ENCODING 1258
SWIDTH 720 0
DWIDTH 8 0
BBX 8 10 0 0
BITMAP
24
34
18
66
43
C3
FF
43
62
3C
ENDCHAR
STARTCHAR 04EB
ENCODING 1259
SWIDTH 540 0
DWIDTH 6 0
BBX 6 7 0 0
BITMAP
68
00
78
4C
FC
4C
78
ENDCHAR
STARTCHAR 04EC
ENCODING 1260
SWIDTH 630 0
DWIDTH 7 0
BBX 6 10 1 0
BITMAP
90
D0
60
98
88
0C
7C
0C
88
F0
ENDCHAR
STARTCHAR 04ED
ENCODING 1261
SWIDTH 450 0
DWIDTH 5 0
BBX 5 7 0 0
BITMAP
D0
00
F0
98
78
98
F0
ENDCHAR
STARTCHAR 04EE
ENCODING 1262
SWIDTH 630 0
DWIDTH 7 0
BBX 7 9 0 0
BITMAP
3C
E6
62
24
34
18
18
10
70
ENDCHAR
STARTCHAR 04EF
ENCODING 1263
SWIDTH 540 0
DWIDTH 6 0
BBX 6 10 0 -3
BITMAP
7C
00
EC
68
28
30
30
10
E0
40
ENDCHAR
STARTCHAR 04F0
ENCODING 1264
SWIDTH 630 0
DWIDTH 7 0
BBX 7 10 0 0
BITMAP
24
34
E6
62
24
34
18
18
10
70
ENDCHAR
STARTCHAR 04F1
ENCODING 1265
SWIDTH 540 0
DWIDTH 6 0
BBX 6 10 0 -3
BITMAP
6C
00
EC
68
28
30
30
10
E0
40
ENDCHAR
STARTCHAR 04F2
ENCODING 1266
SWIDTH 630 0
DWIDTH 7 0
BBX 7 10 0 0
BITMAP
14
14
E6
62
24
34
18
18
10
70
ENDCHAR
STARTCHAR 04F3
ENCODING 1267
SWIDTH 540 0
DWIDTH 6 0
BBX 6 11 0 -3
BITMAP
14
28
00
EC
68
28
30
30
10
E0
40
ENDCHAR
STARTCHAR 04F4
ENCODING 1268
SWIDTH 720 0
DWIDTH 8 0
BBX 8 10 0 0
BITMAP
24
34
F7
66
66
66
3E
06
06
0F
ENDCHAR
STARTCHAR 04F5
ENCODING 1269
SWIDTH 540 0
DWIDTH 6 0
BBX 6 7 0 0
BITMAP
68
00
EC
4C
7C
0C
1C
ENDCHAR
STARTCHAR 04F6
ENCODING 1270
SWIDTH 540 0
DWIDTH 6 0
BBX 6 10 0 -2
BITMAP
FC
64
60
60
60
60
60
F0
10
10
ENDCHAR
STARTCHAR 04F7
ENCODING 1271
SWIDTH 450 0
DWIDTH 5 0
BBX 5 7 0 -2
BITMAP
F8
68
60
60
F0
10
10
ENDCHAR
STARTCHAR 04F8
ENCODING 1272
SWIDTH 900 0
DWIDTH 10 0
BBX 10 10 0 0
BITMAP
0A00
1A00
F1C0
6180
6080
6080
7C80
6680
6480
7DC0
ENDCHAR
STARTCHAR 04F9
ENCODING 1273
SWIDTH 810 0
DWIDTH 9 0
BBX 9 7 0 0
BITMAP
1600
0000
F380
6100
7900
6D00
FB80
ENDCHAR
STARTCHAR 04FA
ENCODING 1274
SWIDTH 540 0
DWIDTH 6 0
BBX 6 11 0 -3
BITMAP
FC
64
60
60
F8
60
60
F8
18
10
20
ENDCHAR
STARTCHAR 04FB
ENCODING 1275
SWIDTH 450 0
DWIDTH 5 0
BBX 5 8 0 -3
BITMAP
F8
68
F0
60
F0
10
30
20
ENDCHAR
STARTCHAR 04FC
ENCODING 1276
SWIDTH 630 0
DWIDTH 7 0
BBX 7 11 0 -3
BITMAP
F6
64
34
18
18
2C
26
E2
02
06
04
ENDCHAR
STARTCHAR 04FD
ENCODING 1277
SWIDTH 540 0
DWIDTH 6 0
BBX 6 8 0 -3
BITMAP
EC
28
30
58
EC
04
0C
08
ENDCHAR
STARTCHAR 04FE
ENCODING 1278
SWIDTH 630 0
DWIDTH 7 0
BBX 7 8 0 0
BITMAP
F6
66
34
18
7E
2C
2C
EE
ENDCHAR
STARTCHAR 04FF
ENCODING 1279
SWIDTH 540 0
DWIDTH 6 0
BBX 6 5 0 0
BITMAP
EC
28
7C
58
DC
ENDCHAR
STARTCHAR 0510
ENCODING 1296
SWIDTH 540 0
DWIDTH 6 0
BBX 5 8 1 0
BITMAP
70
D8
C8
C0
E0
80
88
F8
ENDCHAR
STARTCHAR 0511
ENCODING 1297
SWIDTH 450 0
DWIDTH 5 0
BBX 5 5 0 0
BITMAP
78
40
30
C8
78
ENDCHAR
STARTCHAR 0512
ENCODING 1298
SWIDTH 630 0
DWIDTH 7 0
BBX 7 11 0 -3
BITMAP
7E
26
26
26
26
26
E6
C6
04
0C
08
ENDCHAR
STARTCHAR 0513
ENCODING 1299
SWIDTH 540 0
DWIDTH 6 0
BBX 6 8 0 -3
BITMAP
7C
2C
2C
4C
CC
08
08
10
ENDCHAR
STARTCHAR 051A
ENCODING 1306
SWIDTH 720 0
DWIDTH 8 0
BBX 9 10 0 -2
BITMAP
1800
6600
4300
C300
C300
4300
6200
3C00
0600
0380
ENDCHAR
STARTCHAR 051B
ENCODING 1307
SWIDTH 540 0
DWIDTH 6 0
BBX 7 8 0 -3
BITMAP
7C
4C
CC
CC
7C
0C
0C
1E
ENDCHAR
STARTCHAR 051C
ENCODING 1308
SWIDTH 990 0
DWIDTH 11 0
BBX 11 8 0 0
BITMAP
E0E0
6640
6640
6A40
3B80
3B80
3180
1100
ENDCHAR
STARTCHAR 051D
ENCODING 1309
SWIDTH 720 0
DWIDTH 8 0
BBX 9 5 0 0
BITMAP
E980
6D00
7600
3600
2600
ENDCHAR
STARTCHAR 0524
ENCODING 1316
SWIDTH 810 0
DWIDTH 9 0
BBX 9 10 0 -2
BITMAP
FF00
6200
6200
6200
6200
6200
6200
7780
0180
0080
ENDCHAR
STARTCHAR 0525
ENCODING 1317
SWIDTH 630 0
DWIDTH 7 0
BBX 7 7 0 -2
BITMAP
FE
64
64
64
EE
02
02
ENDCHAR
STARTCHAR 0526
ENCODING 1318
SWIDTH 720 0
DWIDTH 8 0
BBX 8 10 0 -2
BITMAP
F0
60
60
7C
66
66
66
77
01
01
ENDCHAR
STARTCHAR 0527
ENCODING 1319
SWIDTH 630 0
DWIDTH 7 0
BBX 7 10 0 -2
BITMAP
E0
60
60
7C
64
64
64
EE
02
02
ENDCHAR
STARTCHAR 0528
ENCODING 1320
SWIDTH 720 0
DWIDTH 8 0
BBX 8 11 0 -3
BITMAP
F7
62
62
62
7E
62
62
67
60
40
80
ENDCHAR
STARTCHAR 0529
ENCODING 1321
SWIDTH 630 0
DWIDTH 7 0
BBX 7 8 0 -3
BITMAP
6E
64
7C
64
6E
60
40
80
ENDCHAR
STARTCHAR 052E
ENCODING 1326
SWIDTH 720 0
DWIDTH 8 0
BBX 8 10 0 -2
BITMAP
7E
26
26
26
26
26
E6
CF
01
01
ENDCHAR
STARTCHAR 052F
ENCODING 1327
SWIDTH 540 0
DWIDTH 6 0
BBX 7 7 0 -2
BITMAP
7C
28
48
48
DE
02
02
ENDCHAR
STARTCHAR 058F
ENCODING 1423
SWIDTH 540 0
DWIDTH 6 0
BBX 6 8 0 0
BITMAP
30
58
C8
08
3C
3C
08
1C
ENDCHAR
STARTCHAR 1E08
ENCODING 7688
SWIDTH 630 0
DWIDTH 7 0
BBX 7 13 0 -3
BITMAP
08
08
18
66
40
C0
C0
40
60
3C
10
08
10
ENDCHAR
STARTCHAR 1E09
ENCODING 7689
SWIDTH 450 0
DWIDTH 5 0
BBX 5 11 0 -3
BITMAP
10
10
00
78
48
C0
40
78
20
10
20
ENDCHAR
STARTCHAR 1E0C
ENCODING 7692
SWIDTH 720 0
DWIDTH 8 0
BBX 8 10 0 -2
BITMAP
F0
6E
63
63
63
63
62
7C
00
18
ENDCHAR
STARTCHAR 1E0D
ENCODING 7693
SWIDTH 540 0
DWIDTH 6 0
BBX 6 10 0 -2
BITMAP
1C
0C
0C
7C
4C
CC
CC
7C
00
30
ENDCHAR
STARTCHAR 1E0E
ENCODING 7694
SWIDTH 720 0
DWIDTH 8 0
BBX 8 10 0 -2
BITMAP
F0
6E
63
63
63
63
62
7C
00
3C
ENDCHAR
STARTCHAR 1E0F
ENCODING 7695
SWIDTH 540 0
DWIDTH 6 0
BBX 6 10 0 -2
BITMAP
1C
0C
0C
7C
4C
CC
CC
7C
00
78
ENDCHAR
STARTCHAR 1E10
ENCODING 7696
SWIDTH 720 0
DWIDTH 8 0
BBX 8 11 0 -3
BITMAP
F0
6E
63
63
63
63
62
7C
00
18
10
ENDCHAR
STARTCHAR 1E11
ENCODING 7697
SWIDTH 540 0
DWIDTH 6 0
BBX 6 11 0 -3
BITMAP
1C
0C
0C
7C
4C
CC
CC
7C
00
30
10
ENDCHAR
STARTCHAR 1E14
ENCODING 7700
SWIDTH 540 0
DWIDTH 6 0
BBX 7 11 0 0
BITMAP
30
00
78
FC
64
60
68
78
60
62
7C
ENDCHAR
STARTCHAR 1E15
ENCODING 7701
SWIDTH 450 0
DWIDTH 5 0
BBX 5 9 0 0
BITMAP
20
10
78
00
78
48
F8
40
78
ENDCHAR
STARTCHAR 1E16
ENCODING 7702
SWIDTH 540 0
DWIDTH 6 0
BBX 7 11 0 0
BITMAP
10
00
78
FC
64
60
68
78
60
62
7C
ENDCHAR
STARTCHAR 1E17
ENCODING 7703
SWIDTH 450 0
DWIDTH 5 0
BBX 5 9 0 0
BITMAP
10
20
78
00
78
48
F8
40
78
ENDCHAR
STARTCHAR 1E1C
ENCODING 7708
SWIDTH 540 0
DWIDTH 6 0
BBX 7 13 0 -3
BITMAP
08
38
FC
64
60
68
78
60
62
7C
10
10
10
ENDCHAR
STARTCHAR 1E1D
ENCODING 7709
SWIDTH 450 0
DWIDTH 5 0
BBX 5 11 0 -3
BITMAP
48
78
00
78
48
F8
40
78
20
10
20
ENDCHAR
STARTCHAR 1E20
ENCODING 7712
SWIDTH 630 0
DWIDTH 7 0
BBX 7 9 0 0
BITMAP
3C
18
66
42
C0
C6
46
66
3E
ENDCHAR
STARTCHAR 1E21
ENCODING 7713
SWIDTH 540 0
DWIDTH 6 0
BBX 6 10 0 -3
BITMAP
78
00
7C
C8
48
70
78
7C
C8
70
ENDCHAR
STARTCHAR 1E24
ENCODING 7716
SWIDTH 720 0
DWIDTH 8 0
BBX 8 10 0 -2
BITMAP
F7
62
62
62
7E
62
62
77
00
18
ENDCHAR
STARTCHAR 1E25
ENCODING 7717
SWIDTH 630 0
DWIDTH 7 0
BBX 7 10 0 -2
BITMAP
E0
60
60
7C
64
64
64
EE
00
18
ENDCHAR
STARTCHAR 1E2A
ENCODING 7722
SWIDTH 720 0
DWIDTH 8 0
BBX 8 10 0 -2
BITMAP
F7
62
62
62
7E
62
62
77
00
1C
ENDCHAR
STARTCHAR 1E2B
ENCODING 7723
SWIDTH 630 0
DWIDTH 7 0
BBX 7 10 0 -2
BITMAP
E0
60
60
7C
64
64
64
EE
00
38
ENDCHAR
STARTCHAR 1E2E
ENCODING 7726
SWIDTH 360 0
DWIDTH 4 0
BBX 4 11 0 0
BITMAP
20
00
F0
F0
60
60
60
60
60
60
70
ENDCHAR
STARTCHAR 1E2F
ENCODING 7727
SWIDTH 270 0
DWIDTH 3 0
BBX 4 9 0 0
BITMAP
20
00
F0
00
E0
60
60
60
F0
ENDCHAR
STARTCHAR 1E36
ENCODING 7734
SWIDTH 540 0
DWIDTH 6 0
BBX 6 10 0 -2
BITMAP
F0
60
60
60
60
60
64
7C
00
30
ENDCHAR
STARTCHAR 1E37
ENCODING 7735
SWIDTH 270 0
DWIDTH 3 0
BBX 3 10 0 -2
BITMAP
E0
60
60
60
60
60
60
E0
00
60
ENDCHAR
STARTCHAR 1E3A
ENCODING 7738
SWIDTH 540 0
DWIDTH 6 0
BBX 6 10 0 -2
BITMAP
F0
60
60
60
60
60
64
7C
00
78
ENDCHAR
STARTCHAR 1E3B
ENCODING 7739
SWIDTH 270 0
DWIDTH 3 0
BBX 4 10 0 -2
BITMAP
E0
60
60
60
60
60
60
E0
00
F0
ENDCHAR
STARTCHAR 1E42
ENCODING 7746
SWIDTH 900 0
DWIDTH 10 0
BBX 10 10 0 -2
BITMAP
60C0
3180
3180
5280
5A80
4CC0
4CC0
EDC0
0000
0C00
ENDCHAR
STARTCHAR 1E43
ENCODING 7747
SWIDTH 900 0
DWIDTH 10 0
BBX 10 7 0 -2
BITMAP
FD80
66C0
64C0
64C0
EFC0
0000
0C00
ENDCHAR
STARTCHAR 1E44
ENCODING 7748
SWIDTH 720 0
DWIDTH 8 0
BBX 8 10 0 0
BITMAP
08
18
E7
62
72
5A
5E
4E
46
E2
ENDCHAR
STARTCHAR 1E45
ENCODING 7749
SWIDTH 630 0
DWIDTH 7 0
BBX 7 7 0 0
BITMAP
18
00
FC
64
64
64
EE
ENDCHAR
STARTCHAR 1E46
ENCODING 7750
SWIDTH 720 0
DWIDTH 8 0
BBX 8 10 0 -2
BITMAP
E7
62
72
5A
5E
4E
46
E2
00
18
ENDCHAR
STARTCHAR 1E47
ENCODING 7751
SWIDTH 630 0
DWIDTH 7 0
BBX 7 7 0 -2
BITMAP
FC
64
64
64
EE
00
18
ENDCHAR
STARTCHAR 1E48
ENCODING 7752
SWIDTH 720 0
DWIDTH 8 0
BBX 8 10 0 -2
BITMAP
E7
62
72
5A
5E
4E
46
E2
00
3C
ENDCHAR
STARTCHAR 1E49
ENCODING 7753
SWIDTH 630 0
DWIDTH 7 0
BBX 7 7 0 -2
BITMAP
FC
64
64
64
EE
00
3C
ENDCHAR
STARTCHAR 1E4C
ENCODING 7756
SWIDTH 720 0
DWIDTH 8 0
BBX 8 12 0 0
BITMAP
08
08
10
2C
18
66
43
C3
C3
43
62
3C
ENDCHAR
STARTCHAR 1E4D
ENCODING 7757
SWIDTH 540 0
DWIDTH 6 0
BBX 6 9 0 0
BITMAP
10
00
78
00
78
4C
CC
4C
78
ENDCHAR
STARTCHAR 1E4E
ENCODING 7758
SWIDTH 720 0
DWIDTH 8 0
BBX 8 12 0 0
BITMAP
24
34
10
2C
18
66
43
C3
C3
43
62
3C
ENDCHAR
STARTCHAR 1E4F
ENCODING 7759
SWIDTH 540 0
DWIDTH 6 0
BBX 6 9 0 0
BITMAP
68
00
78
00
78
4C
CC
4C
78
ENDCHAR
STARTCHAR 1E50
ENCODING 7760
SWIDTH 720 0
DWIDTH 8 0
BBX 8 11 0 0
BITMAP
10
00
3C
18
66
43
C3
C3
43
62
3C
ENDCHAR
STARTCHAR 1E51
ENCODING 7761
SWIDTH 540 0
DWIDTH 6 0
BBX 6 9 0 0
BITMAP
20
10
78
00
78
4C
CC
4C
78
ENDCHAR
STARTCHAR 1E52
ENCODING 7762
SWIDTH 720 0
DWIDTH 8 0
BBX 8 11 0 0
BITMAP
08
00
3C
18
66
43
C3
C3
43
62
3C
ENDCHAR
STARTCHAR 1E53
ENCODING 7763
SWIDTH 540 0
DWIDTH 6 0
BBX 6 9 0 0
BITMAP
10
00
78
00
78
4C
CC
4C
78
ENDCHAR
STARTCHAR 1E5A
ENCODING 7770
SWIDTH 630 0
DWIDTH 7 0
BBX 8 10 0 -2
BITMAP
F8
66
66
66
78
6C
64
77
00
18
ENDCHAR
STARTCHAR 1E5B
ENCODING 7771
SWIDTH 450 0
DWIDTH 5 0
BBX 5 7 0 -2
BITMAP
F8
68
60
60
F0
00
60
ENDCHAR
STARTCHAR 1E5E
ENCODING 7774
SWIDTH 630 0
DWIDTH 7 0
BBX 8 10 0 -2
BITMAP
F8
66
66
66
78
6C
64
77
00
3C
ENDCHAR
STARTCHAR 1E5F
ENCODING 7775
SWIDTH 450 0
DWIDTH 5 0
BBX 5 7 0 -2
BITMAP
F8
68
60
60
F0
00
F0
ENDCHAR
STARTCHAR 1E60
ENCODING 7776
SWIDTH 540 0
DWIDTH 6 0
BBX 5 10 1 0
BITMAP
20
60
60
90
90
E0
70
18
98
F0
ENDCHAR
STARTCHAR 1E61
ENCODING 7777
SWIDTH 450 0
DWIDTH 5 0
BBX 5 7 0 0
BITMAP
20
00
70
C0
70
98
F0
ENDCHAR
STARTCHAR 1E62
ENCODING 7778
SWIDTH 540 0
DWIDTH 6 0
BBX 5 10 1 -2
BITMAP
60
90
90
E0
70
18
98
F0
00
60
ENDCHAR
STARTCHAR 1E63
ENCODING 7779
SWIDTH 450 0
DWIDTH 5 0
BBX 5 7 0 -2
BITMAP
70
C0
70
98
F0
00
20
ENDCHAR
STARTCHAR 1E64
ENCODING 7780
SWIDTH 540 0
DWIDTH 6 0
BBX 5 12 1 0
BITMAP
20
20
20
20
60
90
90
E0
70
18
98
F0
ENDCHAR
STARTCHAR 1E65
ENCODING 7781
SWIDTH 450 0
DWIDTH 5 0
BBX 5 9 0 0
BITMAP
30
00
30
00
70
C0
70
98
F0
ENDCHAR
STARTCHAR 1E66
ENCODING 7782
SWIDTH 540 0
DWIDTH 6 0
BBX 5 12 1 0
BITMAP
60
20
90
60
60
90
90
E0
70
18
98
F0
ENDCHAR
STARTCHAR 1E67
ENCODING 7783
SWIDTH 450 0
DWIDTH 5 0
BBX 5 10 0 0
BITMAP
20
20
00
70
00
70
C0
70
98
F0
ENDCHAR
STARTCHAR 1E68
ENCODING 7784
SWIDTH 540 0
DWIDTH 6 0
BBX 5 12 1 -2
BITMAP
20
60
60
90
90
E0
70
18
98
F0
00
60
ENDCHAR
STARTCHAR 1E69
ENCODING 7785
SWIDTH 450 0
DWIDTH 5 0
BBX 5 9 0 -2
BITMAP
20
00
70
C0
70
98
F0
00
20
ENDCHAR
STARTCHAR 1E6C
ENCODING 7788
SWIDTH 630 0
DWIDTH 7 0
BBX 7 10 0 -2
BITMAP
7E
D2
12
10
10
10
10
38
00
18
ENDCHAR
STARTCHAR 1E6D
ENCODING 7789
SWIDTH 360 0
DWIDTH 4 0
BBX 4 9 0 -2
BITMAP
20
60
F0
60
60
60
70
00
20
ENDCHAR
STARTCHAR 1E6E
ENCODING 7790
SWIDTH 630 0
DWIDTH 7 0
BBX 7 10 0 -2
BITMAP
7E
D2
12
10
10
10
10
38
00
3C
ENDCHAR
STARTCHAR 1E6F
ENCODING 7791
SWIDTH 360 0
DWIDTH 4 0
BBX 4 9 0 -2
BITMAP
20
60
F0
60
60
60
70
00
F0
ENDCHAR
STARTCHAR 1E78
ENCODING 7800
SWIDTH 630 0
DWIDTH 7 0
BBX 7 12 0 0
BITMAP
0C
08
10
2C
F6
62
64
64
64
64
64
3C
ENDCHAR
STARTCHAR 1E79
ENCODING 7801
SWIDTH 540 0
DWIDTH 6 0
BBX 6 10 0 0
BITMAP
18
10
20
58
00
DC
4C
4C
6C
7C
ENDCHAR
STARTCHAR 1E7A
ENCODING 7802
SWIDTH 630 0
DWIDTH 7 0
BBX 7 11 0 0
BITMAP
34
00
3C
F6
62
64
64
64
64
64
3C
ENDCHAR
STARTCHAR 1E7B
ENCODING 7803
SWIDTH 540 0
DWIDTH 6 0
BBX 6 9 0 0
BITMAP
68
68
78
00
DC
4C
4C
6C
7C
ENDCHAR
STARTCHAR 1E80
ENCODING 7808
SWIDTH 990 0
DWIDTH 11 0
BBX 11 10 0 0
BITMAP
0400
0400
E0E0
6640
6640
6A40
3B80
3B80
3180
1100
ENDCHAR
STARTCHAR 1E81
ENCODING 7809
SWIDTH 720 0
DWIDTH 8 0
BBX 9 8 0 0
BITMAP
1800
0800
0000
E980
6D00
7600
3600
2600
ENDCHAR
STARTCHAR 1E82
ENCODING 7810
SWIDTH 990 0
DWIDTH 11 0
BBX 11 10 0 0
BITMAP
0200
0400
E0E0
6640
6640
6A40
3B80
3B80
3180
1100
ENDCHAR
STARTCHAR 1E83
ENCODING 7811
SWIDTH 720 0
DWIDTH 8 0
BBX 9 8 0 0
BITMAP
0400
0800
0000
E980
6D00
7600
3600
2600
ENDCHAR
STARTCHAR 1E84
ENCODING 7812
SWIDTH 990 0
DWIDTH 11 0
BBX 11 10 0 0
BITMAP
0900
0B00
E0E0
6640
6640
6A40
3B80
3B80
3180
1100
ENDCHAR
STARTCHAR 1E85
ENCODING 7813
SWIDTH 720 0
DWIDTH 8 0
BBX 9 7 0 0
BITMAP
1600
0000
E980
6D00
7600
3600
2600
ENDCHAR
STARTCHAR 1E8E
ENCODING 7822
SWIDTH 630 0
DWIDTH 7 0
BBX 7 9 0 1
BITMAP
18
E6
64
64
38
38
10
10
38
ENDCHAR
STARTCHAR 1E8F
ENCODING 7823
SWIDTH 540 0
DWIDTH 6 0
BBX 6 10 0 -3
BITMAP
10
00
EC
68
28
30
30
10
E0
40
ENDCHAR
STARTCHAR 1E90
ENCODING 7824
SWIDTH 540 0
DWIDTH 6 0
BBX 6 10 0 0
BITMAP
10
28
7C
4C
58
18
30
30
64
FC
ENDCHAR
STARTCHAR 1E91
ENCODING 7825
SWIDTH 450 0
DWIDTH 5 0
BBX 4 8 1 0
BITMAP
60
B0
00
F0
A0
60
D0
F0
ENDCHAR
STARTCHAR 1E92
ENCODING 7826
SWIDTH 540 0
DWIDTH 6 0
BBX 6 10 0 -2
BITMAP
7C
4C
58
18
30
30
64
FC
00
30
ENDCHAR
STARTCHAR 1E93
ENCODING 7827
SWIDTH 450 0
DWIDTH 5 0
BBX 4 7 1 -2
BITMAP
F0
A0
60
D0
F0
00
60
ENDCHAR
STARTCHAR 1E97
ENCODING 7831
SWIDTH 360 0
DWIDTH 4 0
BBX 4 9 0 0
BITMAP
90
F0
20
60
F0
60
60
60
70
ENDCHAR
STARTCHAR 1E9E
ENCODING 7838
SWIDTH 720 0
DWIDTH 8 0
BBX 8 8 0 0
BITMAP
0E
36
66
6C
66
63
6B
FE
ENDCHAR
STARTCHAR 1EA0
ENCODING 7840
SWIDTH 630 0
DWIDTH 7 0
BBX 8 10 0 -2
BITMAP
10
18
18
2C
2C
7C
46
C7
00
10
ENDCHAR
STARTCHAR 1EA1
ENCODING 7841
SWIDTH 540 0
DWIDTH 6 0
BBX 5 7 1 -2
BITMAP
70
90
70
90
F8
00
60
ENDCHAR
STARTCHAR 1EA2
ENCODING 7842
SWIDTH 630 0
DWIDTH 7 0
BBX 8 10 0 0
BITMAP
18
10
10
18
18
2C
2C
7C
46
C7
ENDCHAR
STARTCHAR 1EA3
ENCODING 7843
SWIDTH 540 0
DWIDTH 6 0
BBX 5 8 1 0
BITMAP
60
60
00
70
90
70
90
F8
ENDCHAR
STARTCHAR 1EA4
ENCODING 7844
SWIDTH 630 0
DWIDTH 7 0
BBX 8 11 0 0
BITMAP
06
18
2C
10
18
18
2C
2C
7C
46
C7
ENDCHAR
STARTCHAR 1EA5
ENCODING 7845
SWIDTH 540 0
DWIDTH 6 0
BBX 5 9 1 0
BITMAP
08
10
E0
00
70
90
70
90
F8
ENDCHAR
STARTCHAR 1EA6
ENCODING 7846
SWIDTH 630 0
DWIDTH 7 0
BBX 8 11 0 0
BITMAP
0C
18
2C
10
18
18
2C
2C
7C
46
C7
ENDCHAR
STARTCHAR 1EA7
ENCODING 7847
SWIDTH 540 0
DWIDTH 6 0
BBX 5 9 1 0
BITMAP
20
10
E0
00
70
90
70
90
F8
ENDCHAR
STARTCHAR 1EA8
ENCODING 7848
SWIDTH 630 0
DWIDTH 7 0
BBX 8 12 0 0
BITMAP
04
0C
18
2C
10
18
18
2C
2C
7C
46
C7
ENDCHAR
STARTCHAR 1EA9
ENCODING 7849
SWIDTH 540 0
DWIDTH 6 0
BBX 5 9 1 0
BITMAP
38
10
E0
00
70
90
70
90
F8
ENDCHAR
STARTCHAR 1EAA
ENCODING 7850
SWIDTH 630 0
DWIDTH 7 0
BBX 8 12 0 0
BITMAP
34
08
18
2C
10
18
18
2C
2C
7C
46
C7
ENDCHAR
STARTCHAR 1EAB
ENCODING 7851
SWIDTH 540 0
DWIDTH 6 0
BBX 5 9 1 0
BITMAP
F0
00
E0
00
70
90
70
90
F8
ENDCHAR
STARTCHAR 1EAC
ENCODING 7852
SWIDTH 630 0
DWIDTH 7 0
BBX 8 12 0 -2
BITMAP
18
2C
10
18
18
2C
2C
7C
46
C7
00
10
ENDCHAR
STARTCHAR 1EAD
ENCODING 7853
SWIDTH 540 0
DWIDTH 6 0
BBX 5 10 1 -2
BITMAP
60
B0
00
70
90
70
90
F8
00
60
ENDCHAR
STARTCHAR 1EAE
ENCODING 7854
SWIDTH 630 0
DWIDTH 7 0
BBX 8 11 0 0
BITMAP
08
24
38
10
18
18
2C
2C
7C
46
C7
ENDCHAR
STARTCHAR 1EAF
ENCODING 7855
SWIDTH 540 0
DWIDTH 6 0
BBX 5 9 1 0
BITMAP
20
40
F0
00
70
90
70
90
F8
ENDCHAR
STARTCHAR 1EB0
ENCODING 7856
SWIDTH 630 0
DWIDTH 7 0
BBX 8 11 0 0
BITMAP
10
24
38
10
18
18
2C
2C
7C
46
C7
ENDCHAR
STARTCHAR 1EB1
ENCODING 7857
SWIDTH 540 0
DWIDTH 6 0
BBX 5 9 1 0
BITMAP
40
40
F0
00
70
90
70
90
F8
ENDCHAR
STARTCHAR 1EB2
ENCODING 7858
SWIDTH 630 0
DWIDTH 7 0
BBX 8 12 0 0
BITMAP
10
08
24
38
10
18
18
2C
2C
7C
46
C7
ENDCHAR
STARTCHAR 1EB3
ENCODING 7859
SWIDTH 540 0
DWIDTH 6 0
BBX 5 9 1 0
BITMAP
60
40
F0
00
70
90
70
90
F8
ENDCHAR
STARTCHAR 1EB4
ENCODING 7860
SWIDTH 630 0
DWIDTH 7 0
BBX 8 11 0 0
BITMAP
38
24
38
10
18
18
2C
2C
7C
46
C7
ENDCHAR
STARTCHAR 1EB5
ENCODING 7861
SWIDTH 540 0
DWIDTH 6 0
BBX 5 9 1 0
BITMAP
F0
00
F0
00
70
90
70
90
F8
ENDCHAR
STARTCHAR 1EB6
ENCODING 7862
SWIDTH 630 0
DWIDTH 7 0
BBX 8 12 0 -2
BITMAP
24
38
10
18
18
2C
2C
7C
46
C7
00
10
ENDCHAR
STARTCHAR 1EB7
ENCODING 7863
SWIDTH 540 0
DWIDTH 6 0
BBX 5 10 1 -2
BITMAP
90
F0
00
70
90
70
90
F8
00
60
ENDCHAR
STARTCHAR 1EB8
ENCODING 7864
SWIDTH 540 0
DWIDTH 6 0
BBX 7 10 0 -2
BITMAP
FC
64
60
68
78
60
62
7C
00
18
ENDCHAR
STARTCHAR 1EB9
ENCODING 7865
SWIDTH 450 0
DWIDTH 5 0
BBX 5 7 0 -2
BITMAP
78
48
F8
40
78
00
30
ENDCHAR
STARTCHAR 1EBA
ENCODING 7866
SWIDTH 540 0
DWIDTH 6 0
BBX 7 10 0 0
BITMAP
30
10
FC
64
60
68
78
60
62
7C
ENDCHAR
STARTCHAR 1EBB
ENCODING 7867
SWIDTH 450 0
DWIDTH 5 0
BBX 5 8 0 0
BITMAP
30
10
00
78
48
F8
40
78
ENDCHAR
STARTCHAR 1EBC
ENCODING 7868
SWIDTH 540 0
DWIDTH 6 0
BBX 7 10 0 0
BITMAP
20
58
FC
64
60
68
78
60
62
7C
ENDCHAR
STARTCHAR 1EBD
ENCODING 7869
SWIDTH 450 0
DWIDTH 5 0
BBX 5 8 0 0
BITMAP
20
78
00
78
48
F8
40
78
ENDCHAR
STARTCHAR 1EBE
ENCODING 7870
SWIDTH 540 0
DWIDTH 6 0
BBX 7 11 0 0
BITMAP
04
10
68
FC
64
60
68
78
60
62
7C
ENDCHAR
STARTCHAR 1EBF
ENCODING 7871
SWIDTH 450 0
DWIDTH 5 0
BBX 6 9 0 0
BITMAP
04
08
30
40
78
48
F8
40
78
ENDCHAR
STARTCHAR 1EC0
ENCODING 7872
SWIDTH 540 0
DWIDTH 6 0
BBX 7 11 0 0
BITMAP
08
10
68
FC
64
60
68
78
60
62
7C
ENDCHAR
STARTCHAR 1EC1
ENCODING 7873
SWIDTH 450 0
DWIDTH 5 0
BBX 5 9 0 0
BITMAP
18
08
30
40
78
48
F8
40
78
ENDCHAR
STARTCHAR 1EC2
ENCODING 7874
SWIDTH 540 0
DWIDTH 6 0
BBX 7 12 0 0
BITMAP
0C
04
10
68
FC
64
60
68
78
60
62
7C
ENDCHAR
STARTCHAR 1EC3
ENCODING 7875
SWIDTH 450 0
DWIDTH 5 0
BBX 6 9 0 0
BITMAP
1C
08
30
40
78
48
F8
40
78
ENDCHAR
STARTCHAR 1EC4
ENCODING 7876
SWIDTH 540 0
DWIDTH 6 0
BBX 7 12 0 0
BITMAP
30
58
10
68
FC
64
60
68
78
60
62
7C
ENDCHAR
STARTCHAR 1EC5
ENCODING 7877
SWIDTH 450 0
DWIDTH 5 0
BBX 5 9 0 0
BITMAP
78
00
30
40
78
48
F8
40
78
ENDCHAR
STARTCHAR 1EC6
ENCODING 7878
SWIDTH 540 0
DWIDTH 6 0
BBX 7 12 0 -2
BITMAP
10
68
FC
64
60
68
78
60
62
7C
00
18
ENDCHAR
STARTCHAR 1EC7
ENCODING 7879
SWIDTH 450 0
DWIDTH 5 0
BBX 5 10 0 -2
BITMAP
30
78
00
78
48
F8
40
78
00
30
ENDCHAR
STARTCHAR 1EC8
ENCODING 7880
SWIDTH 360 0
DWIDTH 4 0
BBX 4 10 0 0
BITMAP
60
20
F0
60
60
60
60
60
60
70
ENDCHAR
STARTCHAR 1EC9
ENCODING 7881
SWIDTH 270 0
DWIDTH 3 0
BBX 4 8 0 0
BITMAP
60
20
00
E0
60
60
60
F0
ENDCHAR
STARTCHAR 1ECA
ENCODING 7882
SWIDTH 360 0
DWIDTH 4 0
BBX 4 10 0 -2
BITMAP
F0
60
60
60
60
60
60
70
00
60
ENDCHAR
STARTCHAR 1ECB
ENCODING 7883
SWIDTH 270 0
DWIDTH 3 0
BBX 4 10 0 -2
BITMAP
60
60
00
E0
60
60
60
F0
00
60
ENDCHAR
STARTCHAR 1ECC
ENCODING 7884
SWIDTH 720 0
DWIDTH 8 0
BBX 8 10 0 -2
BITMAP
18
66
43
C3
C3
43
62
3C
00
18
ENDCHAR
STARTCHAR 1ECD
ENCODING 7885
SWIDTH 540 0
DWIDTH 6 0
BBX 6 7 0 -2
BITMAP
78
4C
CC
4C
78
00
30
ENDCHAR
STARTCHAR 1ECE
ENCODING 7886
SWIDTH 720 0
DWIDTH 8 0
BBX 8 10 0 0
BITMAP
18
08
18
66
43
C3
C3
43
62
3C
ENDCHAR
STARTCHAR 1ECF
ENCODING 7887
SWIDTH 540 0
DWIDTH 6 0
BBX 6 8 0 0
BITMAP
30
10
00
78
4C
CC
4C
78
ENDCHAR
STARTCHAR 1ED0
ENCODING 7888
SWIDTH 720 0
DWIDTH 8 0
BBX 8 11 0 0
BITMAP
02
08
34
18
66
43
C3
C3
43
62
3C
ENDCHAR
STARTCHAR 1ED1
ENCODING 7889
SWIDTH 540 0
DWIDTH 6 0
BBX 6 9 0 0
BITMAP
04
08
38
00
78
4C
CC
4C
78
ENDCHAR
STARTCHAR 1ED2
ENCODING 7890
SWIDTH 720 0
DWIDTH 8 0
BBX 8 11 0 0
BITMAP
04
08
34
18
66
43
C3
C3
43
62
3C
ENDCHAR
STARTCHAR 1ED3
ENCODING 7891
SWIDTH 540 0
DWIDTH 6 0
BBX 6 9 0 0
BITMAP
18
08
38
00
78
4C
CC
4C
78
ENDCHAR
STARTCHAR 1ED4
ENCODING 7892
SWIDTH 720 0
DWIDTH 8 0
BBX 8 12 0 0
BITMAP
04
02
0C
34
18
66
43
C3
C3
43
62
3C
ENDCHAR
STARTCHAR 1ED5
ENCODING 7893
SWIDTH 540 0
DWIDTH 6 0
BBX 6 9 0 0
BITMAP
1C
08
38
00
78
4C
CC
4C
78
ENDCHAR
STARTCHAR 1ED6
ENCODING 7894
SWIDTH 720 0
DWIDTH 8 0
BBX 8 12 0 0
BITMAP
10
0C
08
34
18
66
43
C3
C3
43
62
3C
ENDCHAR
STARTCHAR 1ED7
ENCODING 7895
SWIDTH 540 0
DWIDTH 6 0
BBX 6 9 0 0
BITMAP
78
00
38
00
78
4C
CC
4C
78
ENDCHAR
STARTCHAR 1ED8
ENCODING 7896
SWIDTH 720 0
DWIDTH 8 0
BBX 8 12 0 -2
BITMAP
08
34
18
66
43
C3
C3
43
62
3C
00
18
ENDCHAR
STARTCHAR 1ED9
ENCODING 7897
SWIDTH 540 0
DWIDTH 6 0
BBX 6 10 0 -2
BITMAP
10
68
00
78
4C
CC
4C
78
00
30
ENDCHAR
STARTCHAR 1EDA
ENCODING 7898
SWIDTH 720 0
DWIDTH 8 0
BBX 8 10 0 0
BITMAP
08
09
1B
66
43
C3
C3
43
62
3C
ENDCHAR
STARTCHAR 1EDB
ENCODING 7899
SWIDTH 540 0
DWIDTH 6 0
BBX 6 8 0 0
BITMAP
18
10
04
78
4C
CC
4C
78
ENDCHAR
STARTCHAR 1EDC
ENCODING 7900
SWIDTH 720 0
DWIDTH 8 0
BBX 8 10 0 0
BITMAP
10
09
1B
66
43
C3
C3
43
62
3C
ENDCHAR
STARTCHAR 1EDD
ENCODING 7901
SWIDTH 540 0
DWIDTH 6 0
BBX 6 8 0 0
BITMAP
20
10
04
78
4C
CC
4C
78
ENDCHAR
STARTCHAR 1EDE
ENCODING 7902
SWIDTH 720 0
DWIDTH 8 0
BBX 8 10 0 0
BITMAP
18
09
1B
66
43
C3
C3
43
62
3C
ENDCHAR
STARTCHAR 1EDF
ENCODING 7903
SWIDTH 540 0
DWIDTH 6 0
BBX 6 8 0 0
BITMAP
30
10
04
78
4C
CC
4C
78
ENDCHAR
STARTCHAR 1EE0
ENCODING 7904
SWIDTH 720 0
DWIDTH 8 0
BBX 8 10 0 0
BITMAP
10
2D
1B
66
43
C3
C3
43
62
3C
ENDCHAR
STARTCHAR 1EE1
ENCODING 7905
SWIDTH 540 0
DWIDTH 6 0
BBX 6 8 0 0
BITMAP
20
58
04
78
4C
CC
4C
78
ENDCHAR
STARTCHAR 1EE2
ENCODING 7906
SWIDTH 720 0
DWIDTH 8 0
BBX 8 11 0 -2
BITMAP
01
1B
66
43
C3
C3
43
62
3C
00
18
ENDCHAR
STARTCHAR 1EE3
ENCODING 7907
SWIDTH 540 0
DWIDTH 6 0
BBX 6 8 0 -2
BITMAP
04
78
4C
CC
4C
78
00
30
ENDCHAR
STARTCHAR 1EE4
ENCODING 7908
SWIDTH 630 0
DWIDTH 7 0
BBX 7 10 0 -2
BITMAP
F6
62
64
64
64
64
64
3C
00
18
ENDCHAR
STARTCHAR 1EE5
ENCODING 7909
SWIDTH 540 0
DWIDTH 6 0
BBX 6 7 0 -2
BITMAP
DC
4C
4C
6C
7C
00
30
ENDCHAR
STARTCHAR 1EE6
ENCODING 7910
SWIDTH 630 0
DWIDTH 7 0
BBX 7 10 0 0
BITMAP
18
08
F6
62
64
64
64
64
64
3C
ENDCHAR
STARTCHAR 1EE7
ENCODING 7911
SWIDTH 540 0
DWIDTH 6 0
BBX 6 8 0 0
BITMAP
38
10
00
DC
4C
4C
6C
7C
ENDCHAR
STARTCHAR 1EE8
ENCODING 7912
SWIDTH 720 0
DWIDTH 8 0
BBX 8 10 0 0
BITMAP
0C
09
F7
62
64
64
64
64
64
3C
ENDCHAR
STARTCHAR 1EE9
ENCODING 7913
SWIDTH 630 0
DWIDTH 7 0
BBX 7 8 0 0
BITMAP
18
10
02
DC
4C
4C
6C
7C
ENDCHAR
STARTCHAR 1EEA
ENCODING 7914
SWIDTH 720 0
DWIDTH 8 0
BBX 8 10 0 0
BITMAP
10
09
F7
62
64
64
64
64
64
3C
ENDCHAR
STARTCHAR 1EEB
ENCODING 7915
SWIDTH 630 0
DWIDTH 7 0
BBX 7 8 0 0
BITMAP
20
10
02
DC
4C
4C
6C
7C
ENDCHAR
STARTCHAR 1EEC
ENCODING 7916
SWIDTH 720 0
DWIDTH 8 0
BBX 8 10 0 0
BITMAP
18
09
F7
62
64
64
64
64
64
3C
ENDCHAR
STARTCHAR 1EED
ENCODING 7917
SWIDTH 630 0
DWIDTH 7 0
BBX 7 8 0 0
BITMAP
38
10
02
DC
4C
4C
6C
7C
ENDCHAR
STARTCHAR 1EEE
ENCODING 7918
SWIDTH 720 0
DWIDTH 8 0
BBX 8 10 0 0
BITMAP
10
2D
F7
62
64
64
64
64
64
3C
ENDCHAR
STARTCHAR 1EEF
ENCODING 7919
SWIDTH 630 0
DWIDTH 7 0
BBX 7 8 0 0
BITMAP
20
58
02
DC
4C
4C
6C
7C
ENDCHAR
STARTCHAR 1EF0
ENCODING 7920
SWIDTH 720 0
DWIDTH 8 0
BBX 8 11 0 -2
BITMAP
01
F7
62
64
64
64
64
64
3C
00
18
ENDCHAR
STARTCHAR 1EF1
ENCODING 7921
SWIDTH 630 0
DWIDTH 7 0
BBX 7 8 0 -2
BITMAP
02
DC
4C
4C
6C
7C
00
30
ENDCHAR
STARTCHAR 1EF2
ENCODING 7922
SWIDTH 630 0
DWIDTH 7 0
BBX 7 10 0 0
BITMAP
10
00
E6
64
64
38
38
10
10
38
ENDCHAR
STARTCHAR 1EF3
ENCODING 7923
SWIDTH 540 0
DWIDTH 6 0
BBX 6 11 0 -3
BITMAP
30
10
00
EC
68
28
30
30
10
E0
40
ENDCHAR
STARTCHAR 1EF4
ENCODING 7924
SWIDTH 630 0
DWIDTH 7 0
BBX 7 10 0 -2
BITMAP
E6
64
64
38
38
10
10
38
00
10
ENDCHAR
STARTCHAR 1EF5
ENCODING 7925
SWIDTH 540 0
DWIDTH 6 0
BBX 6 8 0 -3
BITMAP
EC
68
28
30
30
10
E8
40
ENDCHAR
STARTCHAR 1EF6
ENCODING 7926
SWIDTH 630 0
DWIDTH 7 0
BBX 7 10 0 0
BITMAP
18
08
E6
64
64
38
38
10
10
38
ENDCHAR
STARTCHAR 1EF7
ENCODING 7927
SWIDTH 540 0
DWIDTH 6 0
BBX 6 11 0 -3
BITMAP
38
10
00
EC
68
28
30
30
10
E0
40
ENDCHAR
STARTCHAR 1EF8
ENCODING 7928
SWIDTH 630 0
DWIDTH 7 0
BBX 7 10 0 0
BITMAP
10
2C
E6
64
64
38
38
10
10
38
ENDCHAR
STARTCHAR 1EF9
ENCODING 7929
SWIDTH 540 0
DWIDTH 6 0
BBX 6 10 0 -2
BITMAP
78
00
EC
68
28
30
30
10
E0
40
ENDCHAR
STARTCHAR 2007
ENCODING 8199
SWIDTH 540 0
DWIDTH 6 0
BBX 0 0 0 0
BITMAP
ENDCHAR
STARTCHAR 2008
ENCODING 8200
SWIDTH 180 0
DWIDTH 2 0
BBX 0 0 0 0
BITMAP
ENDCHAR
STARTCHAR 2009
ENCODING 8201
SWIDTH 90 0
DWIDTH 1 0
BBX 0 0 0 0
BITMAP
ENDCHAR
STARTCHAR 200A
ENCODING 8202
SWIDTH 0 0
DWIDTH 0 0
BBX 0 0 0 0
BITMAP
ENDCHAR
STARTCHAR 200B
ENCODING 8203
SWIDTH 0 0
DWIDTH 0 0
BBX 0 0 0 0
BITMAP
ENDCHAR
STARTCHAR 2010
ENCODING 8208
SWIDTH 360 0
DWIDTH 4 0
BBX 3 1 1 2
BITMAP
E0
ENDCHAR
STARTCHAR 2011
ENCODING 8209
SWIDTH 360 0
DWIDTH 4 0
BBX 3 1 1 2
BITMAP
E0
ENDCHAR
STARTCHAR 2012
ENCODING 8210
SWIDTH 540 0
DWIDTH 6 0
BBX 5 1 0 2
BITMAP
F8
ENDCHAR
STARTCHAR 2013
ENCODING 8211
SWIDTH 540 0
DWIDTH 6 0
BBX 4 1 1 2
BITMAP
F0
ENDCHAR
STARTCHAR 2014
ENCODING 8212
SWIDTH 990 0
DWIDTH 11 0
BBX 9 1 1 2
BITMAP
FF80
ENDCHAR
STARTCHAR 2015
ENCODING 8213
SWIDTH 990 0
DWIDTH 11 0
BBX 9 1 1 2
BITMAP
FF80
ENDCHAR
STARTCHAR 2016
ENCODING 8214
SWIDTH 270 0
DWIDTH 3 0
BBX 2 11 1 -3
BITMAP
40
C0
C0
C0
C0
C0
C0
C0
C0
C0
40
ENDCHAR
STARTCHAR 2018
ENCODING 8216
SWIDTH 270 0
DWIDTH 3 0
BBX 1 3 1 5
BITMAP
80
80
80
ENDCHAR
STARTCHAR 2019
ENCODING 8217
SWIDTH 270 0
DWIDTH 3 0
BBX 1 3 1 5
BITMAP
80
80
80
ENDCHAR
STARTCHAR 201A
ENCODING 8218
SWIDTH 270 0
DWIDTH 3 0
BBX 1 3 1 -2
BITMAP
80
80
80
ENDCHAR
STARTCHAR 201B
ENCODING 8219
SWIDTH 270 0
DWIDTH 3 0
BBX 1 3 1 5
BITMAP
80
80
80
ENDCHAR
STARTCHAR 201C
ENCODING 8220
SWIDTH 450 0
DWIDTH 5 0
BBX 3 3 1 5
BITMAP
A0
A0
A0
ENDCHAR
STARTCHAR 201D
ENCODING 8221
SWIDTH 450 0
DWIDTH 5 0
BBX 3 3 1 5
BITMAP
A0
A0
A0
ENDCHAR
STARTCHAR 201E
ENCODING 8222
SWIDTH 450 0
DWIDTH 5 0
BBX 3 3 1 -2
BITMAP
A0
A0
A0
ENDCHAR
STARTCHAR 201F
ENCODING 8223
SWIDTH 450 0
DWIDTH 5 0
BBX 3 3 1 5
BITMAP
A0
A0
A0
ENDCHAR
STARTCHAR 2020
ENCODING 8224
SWIDTH 450 0
DWIDTH 5 0
BBX 5 10 0 -3
BITMAP
20
20
F8
20
20
20
20
20
20
20
ENDCHAR
STARTCHAR 2021
ENCODING 8225
SWIDTH 450 0
DWIDTH 5 0
BBX 5 9 0 -2
BITMAP
20
20
F8
20
20
20
78
20
20
ENDCHAR
STARTCHAR 2022
ENCODING 8226
SWIDTH 360 0
DWIDTH 4 0
BBX 3 3 1 1
BITMAP
E0
E0
40
ENDCHAR
STARTCHAR 2023
ENCODING 8227
SWIDTH 360 0
DWIDTH 4 0
BBX 2 3 1 1
BITMAP
C0
C0
80
ENDCHAR
STARTCHAR 2024
ENCODING 8228
SWIDTH 270 0
DWIDTH 3 0
BBX 1 2 1 0
BITMAP
80
80
ENDCHAR
STARTCHAR 2025
ENCODING 8229
SWIDTH 540 0
DWIDTH 6 0
BBX 5 2 1 0
BITMAP
88
98
ENDCHAR
STARTCHAR 2026
ENCODING 8230
SWIDTH 900 0
DWIDTH 10 0
BBX 9 2 1 0
BITMAP
8900
9980
ENDCHAR
STARTCHAR 2027
ENCODING 8231
SWIDTH 270 0
DWIDTH 3 0
BBX 1 2 1 2
BITMAP
80
80
ENDCHAR
STARTCHAR 202F
ENCODING 8239
SWIDTH 180 0
DWIDTH 2 0
BBX 0 0 0 0
BITMAP
ENDCHAR
STARTCHAR 2030
ENCODING 8240
SWIDTH 1170 0
DWIDTH 13 0
BBX 12 8 1 0
BITMAP
0200
E200
A400
E800
1000
2EF0
4990
4E60
ENDCHAR
STARTCHAR 2031
ENCODING 8241
SWIDTH 1530 0
DWIDTH 17 0
BBX 16 8 1 0
BITMAP
0200
E200
A400
E800
1000
2EF7
4999
4E66
ENDCHAR
STARTCHAR 2032
ENCODING 8242
SWIDTH 270 0
DWIDTH 3 0
BBX 2 3 1 5
BITMAP
C0
80
80
ENDCHAR
STARTCHAR 2033
ENCODING 8243
SWIDTH 450 0
DWIDTH 5 0
BBX 4 3 1 5
BITMAP
F0
A0
A0
ENDCHAR
STARTCHAR 2034
ENCODING 8244
SWIDTH 630 0
DWIDTH 7 0
BBX 6 3 1 5
BITMAP
FC
A8
A8
ENDCHAR
STARTCHAR 2035
ENCODING 8245
SWIDTH 270 0
DWIDTH 3 0
BBX 1 3 1 5
BITMAP
80
80
80
ENDCHAR
STARTCHAR 2036
ENCODING 8246
SWIDTH 450 0
DWIDTH 5 0
BBX 3 3 1 5
BITMAP
A0
A0
A0
ENDCHAR
STARTCHAR 2037
ENCODING 8247
SWIDTH 630 0
DWIDTH 7 0
BBX 5 3 1 5
BITMAP
A8
A8
A8
ENDCHAR
STARTCHAR 2038
ENCODING 8248
SWIDTH 540 0
DWIDTH 6 0
BBX 5 3 0 0
BITMAP
30
48
88
ENDCHAR
STARTCHAR 2039
ENCODING 8249
SWIDTH 270 0
DWIDTH 3 0
BBX 2 4 1 1
BITMAP
40
80
80
40
ENDCHAR
STARTCHAR 203A
ENCODING 8250
SWIDTH 270 0
DWIDTH 3 0
BBX 2 3 1 2
BITMAP
C0
40
80
ENDCHAR
STARTCHAR 203D
ENCODING 8253
SWIDTH 540 0
DWIDTH 6 0
BBX 5 8 1 0
BITMAP
F0
A8
28
30
20
20
20
20
ENDCHAR
STARTCHAR 203F
ENCODING 8255
SWIDTH 630 0
DWIDTH 7 0
BBX 6 1 1 -1
BITMAP
FC
ENDCHAR
STARTCHAR 2040
ENCODING 8256
SWIDTH 630 0
DWIDTH 7 0
BBX 6 1 1 8
BITMAP
FC
ENDCHAR
STARTCHAR 2043
ENCODING 8259
SWIDTH 360 0
DWIDTH 4 0
BBX 3 2 1 2
BITMAP
E0
E0
ENDCHAR
STARTCHAR 2044
ENCODING 8260
SWIDTH 180 0
DWIDTH 2 0
BBX 6 8 -2 0
BITMAP
04
04
08
10
20
20
40
80
ENDCHAR
STARTCHAR 204B
ENCODING 8267
SWIDTH 540 0
DWIDTH 6 0
BBX 6 11 0 -3
BITMAP
F0
6C
6C
6C
78
60
60
60
60
60
60
ENDCHAR
STARTCHAR 2052
ENCODING 8274
SWIDTH 540 0
DWIDTH 6 0
BBX 5 6 1 0
BITMAP
88
90
20
20
40
98
ENDCHAR
STARTCHAR 205D
ENCODING 8285
SWIDTH 270 0
DWIDTH 3 0
BBX 1 8 1 0
BITMAP
80
80
00
80
80
00
80
80
ENDCHAR
STARTCHAR 2070
ENCODING 8304
SWIDTH 360 0
DWIDTH 4 0
BBX 5 4 0 4
BITMAP
70
98
50
20
ENDCHAR
STARTCHAR 2074
ENCODING 8308
SWIDTH 360 0
DWIDTH 4 0
BBX 4 5 0 3
BITMAP
30
70
F0
30
30
ENDCHAR
STARTCHAR 2075
ENCODING 8309
SWIDTH 270 0
DWIDTH 3 0
BBX 3 5 0 4
BITMAP
60
C0
20
20
C0
ENDCHAR
STARTCHAR 2076
ENCODING 8310
SWIDTH 360 0
DWIDTH 4 0
BBX 4 5 0 4
BITMAP
60
E0
D0
D0
20
ENDCHAR
STARTCHAR 2077
ENCODING 8311
SWIDTH 270 0
DWIDTH 3 0
BBX 3 5 0 3
BITMAP
E0
20
40
40
40
ENDCHAR
STARTCHAR 2078
ENCODING 8312
SWIDTH 360 0
DWIDTH 4 0
BBX 4 4 0 4
BITMAP
F0
60
70
D0
ENDCHAR
STARTCHAR 2079
ENCODING 8313
SWIDTH 360 0
DWIDTH 4 0
BBX 4 5 0 3
BITMAP
F0
D0
70
20
40
ENDCHAR
STARTCHAR 2080
ENCODING 8320
SWIDTH 360 0
DWIDTH 4 0
BBX 5 4 0 -2
BITMAP
70
98
D0
20
ENDCHAR
STARTCHAR 2081
ENCODING 8321
SWIDTH 270 0
DWIDTH 3 0
BBX 3 4 0 -2
BITMAP
40
40
40
E0
ENDCHAR
STARTCHAR 2082
ENCODING 8322
SWIDTH 270 0
DWIDTH 3 0
BBX 4 4 0 -2
BITMAP
F0
20
70
F0
ENDCHAR
STARTCHAR 2083
ENCODING 8323
SWIDTH 270 0
DWIDTH 3 0
BBX 4 5 0 -3
BITMAP
E0
20
70
30
E0
ENDCHAR
STARTCHAR 2084
ENCODING 8324
SWIDTH 360 0
DWIDTH 4 0
BBX 4 5 0 -3
BITMAP
30
70
B0
F0
30
ENDCHAR
STARTCHAR 2085
ENCODING 8325
SWIDTH 270 0
DWIDTH 3 0
BBX 3 5 0 -2
BITMAP
60
C0
60
20
E0
ENDCHAR
STARTCHAR 2086
ENCODING 8326
SWIDTH 360 0
DWIDTH 4 0
BBX 4 5 0 -2
BITMAP
60
C0
F0
D0
60
ENDCHAR
STARTCHAR 2087
ENCODING 8327
SWIDTH 270 0
DWIDTH 3 0
BBX 3 5 0 -3
BITMAP
E0
20
40
40
40
ENDCHAR
STARTCHAR 2088
ENCODING 8328
SWIDTH 360 0
DWIDTH 4 0
BBX 4 5 0 -2
BITMAP
70
60
70
D0
60
ENDCHAR
STARTCHAR 2089
ENCODING 8329
SWIDTH 360 0
DWIDTH 4 0
BBX 4 5 0 -3
BITMAP
F0
D0
70
20
40
ENDCHAR
STARTCHAR 20A1
ENCODING 8353
SWIDTH 630 0
DWIDTH 7 0
BBX 7 9 0 -1
BITMAP
1C
66
40
C0
C0
40
60
3C
30
ENDCHAR
STARTCHAR 20A3
ENCODING 8355
SWIDTH 540 0
DWIDTH 6 0
BBX 6 8 0 0
BITMAP
FC
64
60
60
78
60
F0
F0
ENDCHAR
STARTCHAR 20A4
ENCODING 8356
SWIDTH 540 0
DWIDTH 6 0
BBX 5 8 1 0
BITMAP
30
D0
C0
C0
F0
40
F8
B0
ENDCHAR
STARTCHAR 20A6
ENCODING 8358
SWIDTH 720 0
DWIDTH 8 0
BBX 8 8 0 0
BITMAP
E7
62
72
5A
7F
4E
46
E2
ENDCHAR
STARTCHAR 20A7
ENCODING 8359
SWIDTH 630 0
DWIDTH 7 0
BBX 7 8 0 0
BITMAP
F8
6C
66
7E
6C
60
60
F0
ENDCHAR
STARTCHAR 20A9
ENCODING 8361
SWIDTH 990 0
DWIDTH 11 0
BBX 11 8 0 0
BITMAP
E0E0
6640
6640
FBE0
3B80
7BC0
3180
1100
ENDCHAR
STARTCHAR 20AB
ENCODING 8363
SWIDTH 540 0
DWIDTH 6 0
BBX 6 8 0 0
BITMAP
1C
0C
1C
7C
CC
CC
7C
7C
ENDCHAR
STARTCHAR 20AC
ENCODING 8364
SWIDTH 720 0
DWIDTH 8 0
BBX 7 8 1 0
BITMAP
18
66
42
F8
C0
70
60
3C
ENDCHAR
STARTCHAR 20AD
ENCODING 8365
SWIDTH 720 0
DWIDTH 8 0
BBX 8 8 0 0
BITMAP
F6
64
68
70
FE
6C
6E
77
ENDCHAR
STARTCHAR 20AE
ENCODING 8366
SWIDTH 630 0
DWIDTH 7 0
BBX 7 8 0 0
BITMAP
7E
D2
12
1C
70
38
10
38
ENDCHAR
STARTCHAR 20B1
ENCODING 8369
SWIDTH 630 0
DWIDTH 7 0
BBX 8 8 0 0
BITMAP
F8
6C
E7
E7
6C
60
60
F0
ENDCHAR
STARTCHAR 20B2
ENCODING 8370
SWIDTH 630 0
DWIDTH 7 0
BBX 7 9 0 -1
BITMAP
1C
62
42
C0
C6
46
66
3E
08
ENDCHAR
STARTCHAR 20B4
ENCODING 8372
SWIDTH 540 0
DWIDTH 6 0
BBX 6 8 0 0
BITMAP
38
6C
0C
FC
00
7C
64
7C
ENDCHAR
STARTCHAR 20B5
ENCODING 8373
SWIDTH 630 0
DWIDTH 7 0
BBX 7 9 0 -1
BITMAP
18
6E
48
C8
C8
48
68
3C
08
ENDCHAR
STARTCHAR 20B8
ENCODING 8376
SWIDTH 630 0
DWIDTH 7 0
BBX 7 8 0 0
BITMAP
7E
00
FE
92
10
10
10
38
ENDCHAR
STARTCHAR 20B9
ENCODING 8377
SWIDTH 540 0
DWIDTH 6 0
BBX 5 8 1 0
BITMAP
F8
60
F8
30
E0
60
30
38
ENDCHAR
STARTCHAR 20BA
ENCODING 8378
SWIDTH 540 0
DWIDTH 6 0
BBX 6 8 0 0
BITMAP
70
60
70
60
F4
64
E4
78
ENDCHAR
STARTCHAR 20BC
ENCODING 8380
SWIDTH 720 0
DWIDTH 8 0
BBX 7 8 1 0
BITMAP
30
5C
96
96
96
96
96
CE
ENDCHAR
STARTCHAR 20BD
ENCODING 8381
SWIDTH 630 0
DWIDTH 7 0
BBX 6 8 1 0
BITMAP
F0
6C
6C
6C
F8
60
F0
E0
ENDCHAR
STARTCHAR 2102
ENCODING 8450
SWIDTH 630 0
DWIDTH 7 0
BBX 7 8 0 0
BITMAP
18
66
60
A0
A0
60
60
3C
ENDCHAR
STARTCHAR 210D
ENCODING 8461
SWIDTH 720 0
DWIDTH 8 0
BBX 8 8 0 0
BITMAP
FF
52
52
52
5E
52
52
7F
ENDCHAR
STARTCHAR 2113
ENCODING 8467
SWIDTH 450 0
DWIDTH 5 0
BBX 4 8 0 0
BITMAP
30
30
70
70
60
E0
60
30
ENDCHAR
STARTCHAR 2115
ENCODING 8469
SWIDTH 720 0
DWIDTH 8 0
BBX 8 8 0 0
BITMAP
F3
51
6A
56
4E
4A
46
62
ENDCHAR
STARTCHAR 2116
ENCODING 8470
SWIDTH 1170 0
DWIDTH 13 0
BBX 13 8 0 0
BITMAP
E720
62D0
72D0
5AD0
5E20
4EF8
4600
E200
ENDCHAR
STARTCHAR 2117
ENCODING 8471
SWIDTH 720 0
DWIDTH 8 0
BBX 7 7 1 -1
BITMAP
7C
BA
A6
AE
A2
B2
7C
ENDCHAR
STARTCHAR 2119
ENCODING 8473
SWIDTH 630 0
DWIDTH 7 0
BBX 7 8 0 0
BITMAP
F8
56
52
52
56
50
50
F8
ENDCHAR
STARTCHAR 211A
ENCODING 8474
SWIDTH 720 0
DWIDTH 8 0
BBX 8 10 0 -2
BITMAP
18
66
63
A1
A1
63
62
3C
06
03
ENDCHAR
STARTCHAR 211D
ENCODING 8477
SWIDTH 630 0
DWIDTH 7 0
BBX 8 8 0 0
BITMAP
F8
56
52
52
5C
54
54
73
ENDCHAR
STARTCHAR 2122
ENCODING 8482
SWIDTH 990 0
DWIDTH 11 0
BBX 9 4 1 4
BITMAP
FD80
4E80
4A80
2000
ENDCHAR
STARTCHAR 2124
ENCODING 8484
SWIDTH 630 0
DWIDTH 7 0
BBX 7 8 0 0
BITMAP
7E
4A
54
14
28
30
52
FE
ENDCHAR
STARTCHAR 2126
ENCODING 8486
SWIDTH 810 0
DWIDTH 9 0
BBX 8 8 1 0
BITMAP
18
66
C6
C2
C2
46
A5
EF
ENDCHAR
STARTCHAR 212E
ENCODING 8494
SWIDTH 540 0
DWIDTH 6 0
BBX 6 7 0 0
BITMAP
10
6C
C4
FC
C0
44
38
ENDCHAR
STARTCHAR 2153
ENCODING 8531
SWIDTH 900 0
DWIDTH 10 0
BBX 10 8 0 0
BITMAP
E100
2100
2200
25C0
7980
08C0
1040
21C0
ENDCHAR
STARTCHAR 2154
ENCODING 8532
SWIDTH 990 0
DWIDTH 11 0
BBX 11 8 0 0
BITMAP
F080
B100
2200
53E0
F540
08C0
1060
11C0
ENDCHAR
STARTCHAR 215B
ENCODING 8539
SWIDTH 900 0
DWIDTH 10 0
BBX 10 8 0 0
BITMAP
E100
2100
2200
25C0
7940
09C0
1340
21C0
ENDCHAR
STARTCHAR 215C
ENCODING 8540
SWIDTH 900 0
DWIDTH 10 0
BBX 10 8 0 0
BITMAP
F100
A200
7200
35C0
EB40
11C0
1340
21C0
ENDCHAR
STARTCHAR 215D
ENCODING 8541
SWIDTH 900 0
DWIDTH 10 0
BBX 11 9 0 0
BITMAP
1000
7100
8100
F200
15C0
E940
09C0
1360
21C0
ENDCHAR
STARTCHAR 215E
ENCODING 8542
SWIDTH 900 0
DWIDTH 10 0
BBX 10 8 0 0
BITMAP
F100
A200
2400
6B80
6AC0
1380
22C0
4380
ENDCHAR
STARTCHAR 2190
ENCODING 8592
SWIDTH 810 0
DWIDTH 9 0
BBX 8 4 1 1
BITMAP
20
40
FF
40
ENDCHAR
STARTCHAR 2191
ENCODING 8593
SWIDTH 450 0
DWIDTH 5 0
BBX 4 8 1 0
BITMAP
40
E0
D0
40
40
40
40
40
ENDCHAR
STARTCHAR 2192
ENCODING 8594
SWIDTH 810 0
DWIDTH 9 0
BBX 8 4 1 1
BITMAP
04
06
FF
04
ENDCHAR
STARTCHAR 2193
ENCODING 8595
SWIDTH 450 0
DWIDTH 5 0
BBX 4 8 1 0
BITMAP
40
40
40
40
40
50
E0
40
ENDCHAR
STARTCHAR 2194
ENCODING 8596
SWIDTH 900 0
DWIDTH 10 0
BBX 9 4 1 1
BITMAP
2000
4300
FF80
4200
ENDCHAR
STARTCHAR 2195
ENCODING 8597
SWIDTH 450 0
DWIDTH 5 0
BBX 4 8 1 0
BITMAP
40
E0
D0
40
40
40
E0
40
ENDCHAR
STARTCHAR 2196
ENCODING 8598
SWIDTH 720 0
DWIDTH 8 0
BBX 6 6 1 0
BITMAP
E0
C0
A0
10
08
04
ENDCHAR
STARTCHAR 2197
ENCODING 8599
SWIDTH 630 0
DWIDTH 7 0
BBX 6 6 1 0
BITMAP
1C
0C
14
20
40
80
ENDCHAR
STARTCHAR 2198
ENCODING 8600
SWIDTH 720 0
DWIDTH 8 0
BBX 6 6 1 0
BITMAP
80
40
20
14
0C
1C
ENDCHAR
STARTCHAR 2199
ENCODING 8601
SWIDTH 720 0
DWIDTH 8 0
BBX 6 6 1 0
BITMAP
04
08
10
A0
C0
E0
ENDCHAR
STARTCHAR 21A4
ENCODING 8612
SWIDTH 810 0
DWIDTH 9 0
BBX 8 4 1 1
BITMAP
21
41
FF
41
ENDCHAR
STARTCHAR 21A5
ENCODING 8613
SWIDTH 450 0
DWIDTH 5 0
BBX 4 8 1 0
BITMAP
40
E0
D0
40
40
40
40
F0
ENDCHAR
STARTCHAR 21A6
ENCODING 8614
SWIDTH 810 0
DWIDTH 9 0
BBX 8 4 1 1
BITMAP
04
86
FF
86
ENDCHAR
STARTCHAR 21A7
ENCODING 8615
SWIDTH 450 0
DWIDTH 5 0
BBX 4 8 1 0
BITMAP
F0
40
40
40
40
50
E0
40
ENDCHAR
STARTCHAR 21B0
ENCODING 8624
SWIDTH 630 0
DWIDTH 7 0
BBX 6 8 1 0
BITMAP
40
FC
C4
24
04
04
04
04
ENDCHAR
STARTCHAR 21B1
ENCODING 8625
SWIDTH 630 0
DWIDTH 7 0
BBX 6 8 1 0
BITMAP
08
FC
8C
90
80
80
80
80
ENDCHAR
STARTCHAR 21B2
ENCODING 8626
SWIDTH 630 0
DWIDTH 7 0
BBX 6 8 1 -1
BITMAP
04
04
04
04
04
44
FC
40
ENDCHAR
STARTCHAR 21B3
ENCODING 8627
SWIDTH 720 0
DWIDTH 8 0
BBX 7 8 1 0
BITMAP
80
80
80
80
80
88
FE
08
ENDCHAR
STARTCHAR 21BC
ENCODING 8636
SWIDTH 810 0
DWIDTH 9 0
BBX 8 3 1 2
BITMAP
20
40
FF
ENDCHAR
STARTCHAR 21BD
ENCODING 8637
SWIDTH 810 0
DWIDTH 9 0
BBX 8 2 1 0
BITMAP
FF
40
ENDCHAR
STARTCHAR 21BE
ENCODING 8638
SWIDTH 360 0
DWIDTH 4 0
BBX 2 8 1 0
BITMAP
80
C0
C0
80
80
80
80
80
ENDCHAR
STARTCHAR 21BF
ENCODING 8639
SWIDTH 360 0
DWIDTH 4 0
BBX 2 8 1 0
BITMAP
40
40
C0
40
40
40
40
40
ENDCHAR
STARTCHAR 21C0
ENCODING 8640
SWIDTH 810 0
DWIDTH 9 0
BBX 8 3 1 2
BITMAP
04
06
FF
ENDCHAR
STARTCHAR 21C1
ENCODING 8641
SWIDTH 810 0
DWIDTH 9 0
BBX 8 2 1 1
BITMAP
FF
04
ENDCHAR
STARTCHAR 21C2
ENCODING 8642
SWIDTH 360 0
DWIDTH 4 0
BBX 3 8 1 0
BITMAP
80
80
80
80
80
A0
C0
80
ENDCHAR
STARTCHAR 21C3
ENCODING 8643
SWIDTH 360 0
DWIDTH 4 0
BBX 2 8 1 0
BITMAP
40
40
40
40
40
40
C0
40
ENDCHAR
STARTCHAR 21C4
ENCODING 8644
SWIDTH 810 0
DWIDTH 9 0
BBX 8 7 1 -1
BITMAP
04
FF
06
24
C0
FF
40
ENDCHAR
STARTCHAR 21C5
ENCODING 8645
SWIDTH 720 0
DWIDTH 8 0
BBX 7 8 1 0
BITMAP
44
E4
D4
44
44
56
4E
4C
ENDCHAR
STARTCHAR 21C6
ENCODING 8646
SWIDTH 810 0
DWIDTH 9 0
BBX 8 7 1 -1
BITMAP
40
FF
C0
24
06
FF
04
ENDCHAR
STARTCHAR 21C7
ENCODING 8647
SWIDTH 810 0
DWIDTH 9 0
BBX 8 7 1 -1
BITMAP
40
FF
40
40
C0
FF
60
ENDCHAR
STARTCHAR 21C8
ENCODING 8648
SWIDTH 720 0
DWIDTH 8 0
BBX 7 8 1 0
BITMAP
44
EC
D6
44
44
44
44
44
ENDCHAR
STARTCHAR 21C9
ENCODING 8649
SWIDTH 810 0
DWIDTH 9 0
BBX 8 7 1 0
BITMAP
04
FF
06
04
06
FA
04
ENDCHAR
STARTCHAR 21CA
ENCODING 8650
SWIDTH 720 0
DWIDTH 8 0
BBX 7 8 1 0
BITMAP
44
48
48
48
48
4A
FC
4C
ENDCHAR
STARTCHAR 21CB
ENCODING 8651
SWIDTH 810 0
DWIDTH 9 0
BBX 8 7 1 -1
BITMAP
20
C0
3F
00
FF
02
04
ENDCHAR
STARTCHAR 21CC
ENCODING 8652
SWIDTH 810 0
DWIDTH 9 0
BBX 8 7 1 -1
BITMAP
04
03
FC
00
FF
40
20
ENDCHAR
STARTCHAR 21D2
ENCODING 8658
SWIDTH 810 0
DWIDTH 9 0
BBX 8 5 1 1
BITMAP
04
FE
03
FE
04
ENDCHAR
STARTCHAR 21D4
ENCODING 8660
SWIDTH 900 0
DWIDTH 10 0
BBX 9 6 1 0
BITMAP
2000
4200
FF00
8180
7F00
4200
ENDCHAR
STARTCHAR 21F5
ENCODING 8693
SWIDTH 720 0
DWIDTH 8 0
BBX 7 8 1 0
BITMAP
44
4C
5E
44
44
54
E4
44
ENDCHAR
STARTCHAR 2200
ENCODING 8704
SWIDTH 630 0
DWIDTH 7 0
BBX 8 8 0 0
BITMAP
E3
62
62
3C
34
18
18
18
ENDCHAR
STARTCHAR 2202
ENCODING 8706
SWIDTH 540 0
DWIDTH 6 0
BBX 6 8 0 0
BITMAP
70
18
08
7C
4C
CC
4C
78
ENDCHAR
STARTCHAR 2203
ENCODING 8707
SWIDTH 540 0
DWIDTH 6 0
BBX 6 8 0 0
BITMAP
7C
4C
4C
2C
3C
0C
8C
7C
ENDCHAR
STARTCHAR 2204
ENCODING 8708
SWIDTH 540 0
DWIDTH 6 0
BBX 6 10 0 -2
BITMAP
10
7C
5C
6C
2C
3C
2C
AC
7C
40
ENDCHAR
STARTCHAR 2205
ENCODING 8709
SWIDTH 540 0
DWIDTH 6 0
BBX 6 6 0 0
BITMAP
34
48
94
A4
48
B0
ENDCHAR
STARTCHAR 2206
ENCODING 8710
SWIDTH 630 0
DWIDTH 7 0
BBX 7 8 0 0
BITMAP
10
18
38
28
4C
44
86
FE
ENDCHAR
STARTCHAR 2207
ENCODING 8711
SWIDTH 630 0
DWIDTH 7 0
BBX 7 8 0 0
BITMAP
FE
C2
62
64
34
38
18
10
ENDCHAR
STARTCHAR 2208
ENCODING 8712
SWIDTH 540 0
DWIDTH 6 0
BBX 6 6 0 0
BITMAP
1C
60
80
F8
40
3C
ENDCHAR
STARTCHAR 2209
ENCODING 8713
SWIDTH 540 0
DWIDTH 6 0
BBX 6 8 0 -1
BITMAP
08
1C
68
90
F8
60
3C
20
ENDCHAR
STARTCHAR 220B
ENCODING 8715
SWIDTH 540 0
DWIDTH 6 0
BBX 6 6 0 0
BITMAP
60
18
04
7C
08
F0
ENDCHAR
STARTCHAR 220C
ENCODING 8716
SWIDTH 540 0
DWIDTH 6 0
BBX 6 8 0 -1
BITMAP
08
70
18
24
7C
28
F0
40
ENDCHAR
STARTCHAR 220E
ENCODING 8718
SWIDTH 540 0
DWIDTH 6 0
BBX 5 8 1 0
BITMAP
F8
F8
F8
F8
F8
F8
F8
F8
ENDCHAR
STARTCHAR 220F
ENCODING 8719
SWIDTH 720 0
DWIDTH 8 0
BBX 8 9 0 -1
BITMAP
FF
62
62
62
62
62
62
62
77
ENDCHAR
STARTCHAR 2211
ENCODING 8721
SWIDTH 630 0
DWIDTH 7 0
BBX 7 9 0 -1
BITMAP
7E
62
62
30
18
10
22
42
FE
ENDCHAR
STARTCHAR 2212
ENCODING 8722
SWIDTH 540 0
DWIDTH 6 0
BBX 4 1 1 2
BITMAP
F0
ENDCHAR
STARTCHAR 2213
ENCODING 8723
SWIDTH 540 0
DWIDTH 6 0
BBX 4 4 1 0
BITMAP
F0
40
F0
40
ENDCHAR
STARTCHAR 2215
ENCODING 8725
SWIDTH 540 0
DWIDTH 6 0
BBX 4 8 1 -1
BITMAP
10
20
20
20
40
40
40
80
ENDCHAR
STARTCHAR 2216
ENCODING 8726
SWIDTH 540 0
DWIDTH 6 0
BBX 4 8 1 -1
BITMAP
80
80
40
40
20
20
20
10
ENDCHAR
STARTCHAR 2217
ENCODING 8727
SWIDTH 540 0
DWIDTH 6 0
BBX 4 4 1 0
BITMAP
40
F0
70
C0
ENDCHAR
STARTCHAR 2218
ENCODING 8728
SWIDTH 540 0
DWIDTH 6 0
BBX 4 3 1 1
BITMAP
F0
90
60
ENDCHAR
STARTCHAR 2219
ENCODING 8729
SWIDTH 540 0
DWIDTH 6 0
BBX 3 3 2 1
BITMAP
C0
E0
C0
ENDCHAR
STARTCHAR 221A
ENCODING 8730
SWIDTH 540 0
DWIDTH 6 0
BBX 6 10 1 -2
BITMAP
0C
10
10
10
10
10
E0
60
60
60
ENDCHAR
STARTCHAR 221D
ENCODING 8733
SWIDTH 720 0
DWIDTH 8 0
BBX 7 4 1 1
BITMAP
F4
98
88
F6
ENDCHAR
STARTCHAR 221E
ENCODING 8734
SWIDTH 900 0
DWIDTH 10 0
BBX 9 4 1 1
BITMAP
F780
9880
8C80
F780
ENDCHAR
STARTCHAR 221F
ENCODING 8735
SWIDTH 540 0
DWIDTH 6 0
BBX 5 5 1 0
BITMAP
80
80
80
80
F8
ENDCHAR
STARTCHAR 2220
ENCODING 8736
SWIDTH 540 0
DWIDTH 6 0
BBX 6 5 0 0
BITMAP
08
10
20
40
FC
ENDCHAR
STARTCHAR 2221
ENCODING 8737
SWIDTH 540 0
DWIDTH 6 0
BBX 6 5 0 0
BITMAP
08
30
30
48
FC
ENDCHAR
STARTCHAR 2222
ENCODING 8738
SWIDTH 540 0
DWIDTH 6 0
BBX 6 6 0 0
BITMAP
10
1C
70
D0
38
14
ENDCHAR
STARTCHAR 2223
ENCODING 8739
SWIDTH 540 0
DWIDTH 6 0
BBX 1 9 3 -2
BITMAP
80
80
80
80
80
80
80
80
80
ENDCHAR
STARTCHAR 2224
ENCODING 8740
SWIDTH 540 0
DWIDTH 6 0
BBX 4 9 1 -2
BITMAP
40
40
40
50
60
C0
40
40
40
ENDCHAR
STARTCHAR 2225
ENCODING 8741
SWIDTH 540 0
DWIDTH 6 0
BBX 4 11 1 -3
BITMAP
90
90
90
90
90
90
90
90
90
90
90
ENDCHAR
STARTCHAR 2226
ENCODING 8742
SWIDTH 540 0
DWIDTH 6 0
BBX 5 11 1 -3
BITMAP
90
90
90
98
90
F0
90
90
90
90
90
ENDCHAR
STARTCHAR 2227
ENCODING 8743
SWIDTH 540 0
DWIDTH 6 0
BBX 6 5 0 0
BITMAP
30
30
48
48
84
ENDCHAR
STARTCHAR 2228
ENCODING 8744
SWIDTH 540 0
DWIDTH 6 0
BBX 6 5 0 0
BITMAP
84
48
48
30
10
ENDCHAR
STARTCHAR 2229
ENCODING 8745
SWIDTH 540 0
DWIDTH 6 0
BBX 6 5 0 0
BITMAP
78
84
84
84
84
ENDCHAR
STARTCHAR 222A
ENCODING 8746
SWIDTH 540 0
DWIDTH 6 0
BBX 6 5 0 0
BITMAP
84
84
84
48
38
ENDCHAR
STARTCHAR 222B
ENCODING 8747
SWIDTH 270 0
DWIDTH 3 0
BBX 4 10 0 -2
BITMAP
30
60
60
60
60
60
60
60
C0
80
ENDCHAR
STARTCHAR 222C
ENCODING 8748
SWIDTH 540 0
DWIDTH 6 0
BBX 7 10 0 -2
BITMAP
36
68
68
68
68
6C
6C
68
D8
90
ENDCHAR
STARTCHAR 222D
ENCODING 8749
SWIDTH 810 0
DWIDTH 9 0
BBX 10 10 0 -2
BITMAP
36C0
6900
6900
6900
6900
6D00
6D00
6900
DF00
9200
ENDCHAR
STARTCHAR 222E
ENCODING 8750
SWIDTH 360 0
DWIDTH 4 0
BBX 5 10 0 -2
BITMAP
10
20
20
F0
A8
B0
70
20
E0
40
ENDCHAR
STARTCHAR 222F
ENCODING 8751
SWIDTH 630 0
DWIDTH 7 0
BBX 7 10 0 -2
BITMAP
36
24
6C
7E
EE
AE
7C
2C
F8
10
ENDCHAR
STARTCHAR 2230
ENCODING 8752
SWIDTH 900 0
DWIDTH 10 0
BBX 10 10 0 -2
BITMAP
36C0
2500
6D00
7F80
EDC0
ADC0
7F80
2D80
FB00
1200
ENDCHAR
STARTCHAR 2234
ENCODING 8756
SWIDTH 540 0
DWIDTH 6 0
BBX 5 5 1 0
BITMAP
60
60
00
98
90
ENDCHAR
STARTCHAR 2235
ENCODING 8757
SWIDTH 540 0
DWIDTH 6 0
BBX 4 4 1 0
BITMAP
90
90
00
60
ENDCHAR
STARTCHAR 2236
ENCODING 8758
SWIDTH 540 0
DWIDTH 6 0
BBX 2 4 2 0
BITMAP
C0
00
00
C0
ENDCHAR
STARTCHAR 223C
ENCODING 8764
SWIDTH 540 0
DWIDTH 6 0
BBX 5 2 0 2
BITMAP
60
98
ENDCHAR
STARTCHAR 223D
ENCODING 8765
SWIDTH 540 0
DWIDTH 6 0
BBX 5 2 1 2
BITMAP
30
C8
ENDCHAR
STARTCHAR 2241
ENCODING 8769
SWIDTH 540 0
DWIDTH 6 0
BBX 5 4 0 1
BITMAP
10
70
98
20
ENDCHAR
STARTCHAR 2243
ENCODING 8771
SWIDTH 540 0
DWIDTH 6 0
BBX 5 4 1 1
BITMAP
C8
30
00
F0
ENDCHAR
STARTCHAR 2245
ENCODING 8773
SWIDTH 540 0
DWIDTH 6 0
BBX 5 4 1 1
BITMAP
F8
00
F8
F0
ENDCHAR
STARTCHAR 2248
ENCODING 8776
SWIDTH 540 0
DWIDTH 6 0
BBX 6 4 0 1
BITMAP
64
98
20
D8
ENDCHAR
STARTCHAR 2249
ENCODING 8777
SWIDTH 540 0
DWIDTH 6 0
BBX 6 8 0 -1
BITMAP
08
10
74
98
20
F8
20
40
ENDCHAR
STARTCHAR 2254
ENCODING 8788
SWIDTH 540 0
DWIDTH 6 0
BBX 6 4 0 1
BITMAP
40
DC
40
DC
ENDCHAR
STARTCHAR 2259
ENCODING 8793
SWIDTH 540 0
DWIDTH 6 0
BBX 4 7 1 1
BITMAP
60
60
90
00
F0
00
F0
ENDCHAR
STARTCHAR 225C
ENCODING 8796
SWIDTH 540 0
DWIDTH 6 0
BBX 4 7 1 1
BITMAP
60
60
F0
00
F0
00
F0
ENDCHAR
STARTCHAR 2260
ENCODING 8800
SWIDTH 540 0
DWIDTH 6 0
BBX 4 8 1 -1
BITMAP
10
20
20
F0
40
F0
40
80
ENDCHAR
STARTCHAR 2261
ENCODING 8801
SWIDTH 540 0
DWIDTH 6 0
BBX 5 4 1 1
BITMAP
F8
00
F0
F8
ENDCHAR
STARTCHAR 2262
ENCODING 8802
SWIDTH 540 0
DWIDTH 6 0
BBX 5 8 1 -1
BITMAP
10
20
F8
20
F0
F8
40
80
ENDCHAR
STARTCHAR 2263
ENCODING 8803
SWIDTH 540 0
DWIDTH 6 0
BBX 5 5 1 0
BITMAP
F0
F8
00
F0
F8
ENDCHAR
STARTCHAR 2264
ENCODING 8804
SWIDTH 540 0
DWIDTH 6 0
BBX 5 5 1 1
BITMAP
70
80
60
10
F8
ENDCHAR
STARTCHAR 2265
ENCODING 8805
SWIDTH 540 0
DWIDTH 6 0
BBX 5 5 1 1
BITMAP
E0
18
20
C0
F8
ENDCHAR
STARTCHAR 226A
ENCODING 8810
SWIDTH 540 0
DWIDTH 6 0
BBX 6 5 0 1
BITMAP
28
50
90
68
04
ENDCHAR
STARTCHAR 226B
ENCODING 8811
SWIDTH 540 0
DWIDTH 6 0
BBX 6 6 0 0
BITMAP
80
58
2C
24
48
90
ENDCHAR
STARTCHAR 2270
ENCODING 8816
SWIDTH 540 0
DWIDTH 6 0
BBX 5 8 1 -1
BITMAP
10
20
70
A0
60
50
F8
80
ENDCHAR
STARTCHAR 2271
ENCODING 8817
SWIDTH 540 0
DWIDTH 6 0
BBX 5 7 1 0
BITMAP
20
E0
58
60
80
F8
80
ENDCHAR
STARTCHAR 2282
ENCODING 8834
SWIDTH 540 0
DWIDTH 6 0
BBX 6 6 0 0
BITMAP
1C
60
80
80
40
3C
ENDCHAR
STARTCHAR 2283
ENCODING 8835
SWIDTH 540 0
DWIDTH 6 0
BBX 6 6 0 0
BITMAP
60
18
04
04
08
F0
ENDCHAR
STARTCHAR 2284
ENCODING 8836
SWIDTH 540 0
DWIDTH 6 0
BBX 6 8 0 -1
BITMAP
08
1C
70
90
90
60
3C
20
ENDCHAR
STARTCHAR 2285
ENCODING 8837
SWIDTH 540 0
DWIDTH 6 0
BBX 6 7 0 0
BITMAP
70
18
24
24
28
F0
40
ENDCHAR
STARTCHAR 2286
ENCODING 8838
SWIDTH 540 0
DWIDTH 6 0
BBX 5 6 1 0
BITMAP
78
80
80
F8
00
F0
ENDCHAR
STARTCHAR 2287
ENCODING 8839
SWIDTH 540 0
DWIDTH 6 0
BBX 5 6 1 0
BITMAP
E0
10
08
F0
00
F0
ENDCHAR
STARTCHAR 2288
ENCODING 8840
SWIDTH 540 0
DWIDTH 6 0
BBX 5 8 1 -1
BITMAP
10
78
A0
A0
F8
40
F0
80
ENDCHAR
STARTCHAR 2289
ENCODING 8841
SWIDTH 540 0
DWIDTH 6 0
BBX 5 7 1 0
BITMAP
E0
30
48
F0
40
F0
80
ENDCHAR
STARTCHAR 2295
ENCODING 8853
SWIDTH 540 0
DWIDTH 6 0
BBX 6 6 0 0
BITMAP
30
48
A4
B4
48
30
ENDCHAR
STARTCHAR 22C5
ENCODING 8901
SWIDTH 540 0
DWIDTH 6 0
BBX 2 2 2 2
BITMAP
C0
C0
ENDCHAR
STARTCHAR 2308
ENCODING 8968
SWIDTH 270 0
DWIDTH 3 0
BBX 3 11 0 -3
BITMAP
E0
C0
C0
C0
C0
C0
C0
C0
C0
C0
C0
ENDCHAR
STARTCHAR 2309
ENCODING 8969
SWIDTH 270 0
DWIDTH 3 0
BBX 2 11 1 -3
BITMAP
C0
40
40
40
40
40
40
40
40
40
40
ENDCHAR
STARTCHAR 230A
ENCODING 8970
SWIDTH 270 0
DWIDTH 3 0
BBX 3 11 0 -3
BITMAP
C0
C0
C0
C0
C0
C0
C0
C0
C0
C0
E0
ENDCHAR
STARTCHAR 230B
ENCODING 8971
SWIDTH 270 0
DWIDTH 3 0
BBX 3 11 0 -3
BITMAP
20
20
20
20
20
20
20
20
20
20
E0
ENDCHAR
STARTCHAR 23DE
ENCODING 9182
SWIDTH 810 0
DWIDTH 9 0
BBX 9 4 0 1
BITMAP
0800
0C00
7F80
8080
ENDCHAR
STARTCHAR 23DF
ENCODING 9183
SWIDTH 810 0
DWIDTH 9 0
BBX 9 4 0 0
BITMAP
8080
7F80
0800
0800
ENDCHAR
STARTCHAR 25A0
ENCODING 9632
SWIDTH 720 0
DWIDTH 8 0
BBX 8 8 0 0
BITMAP
FF
FF
FF
FF
FF
FF
FF
FF
ENDCHAR
STARTCHAR 25A1
ENCODING 9633
SWIDTH 720 0
DWIDTH 8 0
BBX 8 8 0 0
BITMAP
FF
81
81
81
81
81
81
FF
ENDCHAR
STARTCHAR 25B2
ENCODING 9650
SWIDTH 810 0
DWIDTH 9 0
BBX 9 8 0 0
BITMAP
0800
0800
1C00
3E00
3E00
7F00
7F00
FF80
ENDCHAR
STARTCHAR 25B3
ENCODING 9651
SWIDTH 810 0
DWIDTH 9 0
BBX 9 8 0 0
BITMAP
0800
1800
1400
2200
2200
4100
4100
FF80
ENDCHAR
STARTCHAR 25B6
ENCODING 9654
SWIDTH 720 0
DWIDTH 8 0
BBX 7 8 1 0
BITMAP
80
E0
F8
FC
FE
F8
F0
C0
ENDCHAR
STARTCHAR 25B7
ENCODING 9655
SWIDTH 720 0
DWIDTH 8 0
BBX 7 8 1 0
BITMAP
80
E0
98
84
82
8C
B0
C0
ENDCHAR
STARTCHAR 25BC
ENCODING 9660
SWIDTH 810 0
DWIDTH 9 0
BBX 9 8 0 0
BITMAP
FF80
FF80
7F00
3E00
3E00
1C00
1C00
0800
ENDCHAR
STARTCHAR 25BD
ENCODING 9661
SWIDTH 810 0
DWIDTH 9 0
BBX 9 8 0 0
BITMAP
FF80
8080
4100
4200
2200
1400
1400
0800
ENDCHAR
STARTCHAR 25C0
ENCODING 9664
SWIDTH 720 0
DWIDTH 8 0
BBX 8 8 0 0
BITMAP
03
07
1F
7F
FF
3F
0F
03
ENDCHAR
STARTCHAR 25C1
ENCODING 9665
SWIDTH 720 0
DWIDTH 8 0
BBX 8 8 0 -1
BITMAP
03
05
19
61
C1
21
19
07
ENDCHAR
STARTCHAR 25C6
ENCODING 9670
SWIDTH 720 0
DWIDTH 8 0
BBX 7 7 1 1
BITMAP
30
78
FC
FE
7C
38
30
ENDCHAR
STARTCHAR 25C7
ENCODING 9671
SWIDTH 720 0
DWIDTH 8 0
BBX 8 7 0 1
BITMAP
18
24
42
81
42
24
18
ENDCHAR
STARTCHAR 25CA
ENCODING 9674
SWIDTH 540 0
DWIDTH 6 0
BBX 6 7 0 1
BITMAP
30
48
44
84
48
30
10
ENDCHAR
STARTCHAR 26AD
ENCODING 9901
SWIDTH 990 0
DWIDTH 11 0
BBX 11 6 0 0
BITMAP
3F80
4640
8A20
8A20
8A20
7FC0
ENDCHAR
STARTCHAR 26AE
ENCODING 9902
SWIDTH 1260 0
DWIDTH 14 0
BBX 14 8 0 -2
BITMAP
0100
3D78
4384
8304
8304
4304
6588
1970
ENDCHAR
STARTCHAR 26AF
ENCODING 9903
SWIDTH 1350 0
DWIDTH 15 0
BBX 15 6 0 0
BITMAP
3C3C
4244
8282
8382
8282
7C7C
ENDCHAR
STARTCHAR 27C2
ENCODING 10178
SWIDTH 540 0
DWIDTH 6 0
BBX 6 5 0 0
BITMAP
20
20
20
20
FC
ENDCHAR
STARTCHAR 27E8
ENCODING 10216
SWIDTH 360 0
DWIDTH 4 0
BBX 4 11 0 -3
BITMAP
10
20
20
60
40
C0
40
20
20
20
10
ENDCHAR
STARTCHAR 27E9
ENCODING 10217
SWIDTH 360 0
DWIDTH 4 0
BBX 4 11 0 -3
BITMAP
80
40
40
20
20
30
20
60
40
40
80
ENDCHAR
STARTCHAR 2983
ENCODING 10627
SWIDTH 540 0
DWIDTH 6 0
BBX 6 11 0 -3
BITMAP
38
68
68
28
68
C8
68
68
68
28
3C
ENDCHAR
STARTCHAR 2984
ENCODING 10628
SWIDTH 540 0
DWIDTH 6 0
BBX 5 11 1 -3
BITMAP
E0
50
50
70
50
58
70
70
50
50
E0
ENDCHAR
STARTCHAR 299B
ENCODING 10651
SWIDTH 540 0
DWIDTH 6 0
BBX 6 5 0 0
BITMAP
40
30
30
48
FC
ENDCHAR
STARTCHAR 299D
ENCODING 10653
SWIDTH 540 0
DWIDTH 6 0
BBX 5 5 1 0
BITMAP
80
E0
90
D0
F8
ENDCHAR
STARTCHAR 2A2F
ENCODING 10799
SWIDTH 540 0
DWIDTH 6 0
BBX 6 5 0 1
BITMAP
48
30
30
48
84
ENDCHAR
STARTCHAR 2B58
ENCODING 11096
SWIDTH 540 0
DWIDTH 6 0
BBX 6 6 0 0
BITMAP
30
48
84
84
48
30
ENDCHAR
STARTCHAR 2E18
ENCODING 11800
SWIDTH 540 0
DWIDTH 6 0
BBX 5 8 1 -3
BITMAP
60
20
20
60
E0
A0
98
F0
ENDCHAR
STARTCHAR 2E22
ENCODING 11810
SWIDTH 270 0
DWIDTH 3 0
BBX 3 5 0 3
BITMAP
E0
C0
C0
C0
C0
ENDCHAR
STARTCHAR 2E23
ENCODING 11811
SWIDTH 270 0
DWIDTH 3 0
BBX 2 5 1 3
BITMAP
C0
40
40
40
40
ENDCHAR
STARTCHAR 2E24
ENCODING 11812
SWIDTH 270 0
DWIDTH 3 0
BBX 3 6 0 -3
BITMAP
80
C0
C0
C0
C0
E0
ENDCHAR
STARTCHAR 2E25
ENCODING 11813
SWIDTH 270 0
DWIDTH 3 0
BBX 3 6 0 -3
BITMAP
20
20
20
20
20
E0
ENDCHAR
STARTCHAR 2E3A
ENCODING 11834
SWIDTH 1980 0
DWIDTH 22 0
BBX 21 1 1 2
BITMAP
FFFFF8
ENDCHAR
STARTCHAR 2E3B
ENCODING 11835
SWIDTH 3060 0
DWIDTH 34 0
BBX 32 1 1 2
BITMAP
FFFFFFFF
ENDCHAR
STARTCHAR FB01
ENCODING 64257
SWIDTH 630 0
DWIDTH 7 0
BBX 8 8 0 0
BITMAP
3E
64
60
FE
66
66
66
FF
ENDCHAR
STARTCHAR FB02
ENCODING 64258
SWIDTH 630 0
DWIDTH 7 0
BBX 8 8 0 0
BITMAP
3E
66
66
F6
66
66
66
F7
ENDCHAR
ENDFONT
